<?xml version="1.0" encoding="utf-8"?>
<!-- Generator: Adobe Illustrator 24.1.1, SVG Export Plug-In . SVG Version: 6.00 Build 0)  -->
<svg version="1.1" id="Layer_1" xmlns="http://www.w3.org/2000/svg" xmlns:xlink="http://www.w3.org/1999/xlink" x="0px" y="0px"
	 viewBox="0 0 700 200" style="enable-background:new 0 0 700 200;" xml:space="preserve">
<style type="text/css">
	.st0{fill:#2D97B7;}
</style>
<g>
	<path class="st0" d="M77.4,43.7l20.6,12L38.5,158.6l-20.6-12L77.4,43.7z"/>
	<path class="st0" d="M121,43.4l20.6,12L82.1,158.6l-20.6-12L121,43.4z"/>
	<path class="st0" d="M146.8,79.3h14.9v25.2h28.9V79.3h14.9v67.5h-14.9v-29.2h-28.9v29.2h-14.9V79.3z"/>
	<path class="st0" d="M261.2,138.5c-2.3,2.9-5.1,5.1-8.6,6.9c-3.4,1.7-7.1,2.3-10.9,2.3c-3.4,0-6.9-0.6-10-1.7
		c-3.1-1.1-6-2.9-8.3-4.9c-2.3-2-4-4.6-5.4-7.7c-1.4-3.1-2-6.3-2-10s0.6-7.1,2-10c1.4-2.9,3.1-5.4,5.4-7.7c2.3-2,5.1-3.7,8.3-4.9
		c3.1-1.1,6.6-1.7,10-1.7c3.4,0,6.3,0.6,8.9,1.7c2.6,1.1,4.9,2.9,6.9,4.9c2,2,3.4,4.6,4.3,7.7c1.1,2.9,1.4,6.3,1.4,10v4.6h-32.9
		c0.6,2.9,1.7,4.9,3.7,6.6c2,1.7,4.3,2.3,7.1,2.3c2.3,0,4.3-0.6,6-1.4c1.7-1.1,3.1-2.3,4.3-4L261.2,138.5z M249.2,118.2
		c0-2.3-0.9-4.6-2.3-6.3c-1.4-1.7-3.7-2.6-6.3-2.6c-1.7,0-2.9,0.3-4.3,0.9c-1.4,0.6-2.3,1.1-3.1,2c-0.9,0.9-1.4,1.7-2,2.9
		c-0.6,1.1-0.9,2-0.9,3.1H249.2z"/>
	<path class="st0" d="M272.3,74.7h14.3v72h-14.3V74.7z"/>
	<path class="st0" d="M296.9,74.7h14.3v72h-14.3V74.7z"/>
	<path class="st0" d="M319.8,123.3c0-3.7,0.6-7.1,2-10c1.4-2.9,3.1-5.4,5.4-7.7c2.3-2,5.1-3.7,8.3-4.9c3.1-1.1,6.6-1.7,10-1.7
		s6.9,0.6,10,1.7c3.1,1.1,6,2.9,8.3,4.9c2.3,2,4,4.6,5.4,7.7c1.4,2.9,2,6.3,2,10c0,3.7-0.6,7.1-2,10c-1.4,2.9-3.1,5.4-5.4,7.7
		c-2.3,2.3-5.1,3.7-8.3,4.9c-3.1,1.1-6.6,1.7-10,1.7s-6.9-0.6-10-1.7c-3.1-1.1-6-2.9-8.3-4.9c-2.3-2-4-4.6-5.4-7.7
		C320.7,130.5,319.8,127,319.8,123.3z M334.1,123.3c0,3.4,0.9,6.3,2.9,8.6c2,2.3,4.9,3.1,8.3,3.1c3.7,0,6.3-1.1,8.3-3.1
		c2-2.3,2.9-4.9,2.9-8.6c0-3.7-0.9-6.3-2.9-8.6c-2-2.3-4.9-3.1-8.3-3.1c-3.7,0-6.3,1.1-8.3,3.1C335.2,117,334.1,119.9,334.1,123.3z"
		/>
	<path class="st0" d="M407.8,80.2h16.3l10.9,43.2h0.3l14-43.2H463l14,44.3h0.3l11.4-44.3h15.2l-19.7,67.5h-13.7L455.6,101h-0.3
		l-14.9,46.6h-12.9L407.8,80.2z"/>
	<path class="st0" d="M506.5,123.3c0-3.7,0.6-7.1,2-10c1.4-2.9,3.1-5.4,5.4-7.7c2.3-2,5.1-3.7,8.3-4.9c3.1-1.1,6.6-1.7,10-1.7
		c3.4,0,6.9,0.6,10,1.7c3.1,1.1,6,2.9,8.3,4.9c2.3,2,4,4.6,5.4,7.7c1.4,2.9,2,6.3,2,10c0,3.7-0.6,7.1-2,10c-1.4,2.9-3.1,5.4-5.4,7.7
		c-2.3,2-5.1,3.7-8.3,4.9c-3.1,1.1-6.6,1.7-10,1.7c-3.4,0-6.9-0.6-10-1.7c-3.1-1.1-6-2.9-8.3-4.9c-2.3-2-4-4.6-5.4-7.7
		C507,130.2,506.5,127,506.5,123.3z M520.8,123.3c0,3.4,0.9,6.3,2.9,8.6c2,2.3,4.9,3.1,8.3,3.1c3.7,0,6.3-1.1,8.3-3.1
		c2-2.3,2.9-4.9,2.9-8.6c0-3.4-0.9-6.3-2.9-8.6c-2-2.3-4.9-3.1-8.3-3.1c-3.7,0-6.3,1.1-8.3,3.1C521.9,117,520.8,119.9,520.8,123.3z"
		/>
	<path class="st0" d="M566.2,101h14.3v7.4h0.3c1.4-2.9,3.4-4.9,5.4-6.3c2-1.4,4.9-2,8-2c0.9,0,1.7,0,2.6,0c0.9,0,1.7,0.3,2.3,0.3
		v13.1c-1.1-0.3-2-0.6-2.9-0.6c-0.9,0-2-0.3-3.1-0.3c-2.9,0-4.9,0.3-6.6,1.1c-1.7,0.9-2.9,1.7-3.7,3.1c-0.9,1.4-1.4,2.9-1.7,4.9
		s-0.3,4-0.3,6.3v19.4h-14.3V101H566.2z"/>
	<path class="st0" d="M605.4,75.6h14.3v72h-14.3V75.6z"/>
	<path class="st0" d="M678.6,146.5h-13.1v-6h-0.3c-0.6,0.9-1.4,1.7-2.3,2.6c-0.9,0.9-2,1.7-3.1,2.3c-1.1,0.6-2.6,1.1-4,1.7
		c-1.4,0.6-3.1,0.6-4.6,0.6c-3.4,0-6.6-0.6-9.4-1.7c-2.9-1.1-5.1-2.9-7.1-4.9c-2-2-3.4-4.6-4.6-7.4c-1.1-2.9-1.7-6-1.7-9.7
		c0-3.1,0.6-6.3,1.4-9.1c0.9-2.9,2.3-5.4,4.3-7.7c1.7-2.3,4-4,6.6-5.4c2.6-1.4,5.4-2,8.9-2c2.9,0,5.7,0.6,8.3,1.4
		c2.6,0.9,4.6,2.6,6.3,4.6h0.3V74.5h14.3V146.5z M665.4,123.3c0-3.4-0.9-6.3-2.9-8.6c-2-2.3-4.9-3.1-8.3-3.1c-3.7,0-6.3,1.1-8.3,3.1
		c-2,2.3-2.9,4.9-2.9,8.6c0,3.4,0.9,6.3,2.9,8.6c2,2.3,4.9,3.1,8.3,3.1s6.3-1.1,8.3-3.1C664.3,129.6,665.4,126.8,665.4,123.3z"/>
</g>
</svg>
