<svg id="Layer_4" data-name="Layer 4" xmlns="http://www.w3.org/2000/svg" viewBox="0 0 6949.78 2172.89"><defs><style>.cls-1{fill:#febe42;}.cls-2{fill:#298993;}.cls-3{fill:#37b6c1;}.cls-4{fill:#22727b;}.cls-5{fill:#5fc8d6;}.cls-6{fill:#31a0ab;}</style></defs><path class="cls-1" d="M-3119.24-5782.56c116.65-58,72.36-215.47,72.36-215.47-27.5-96.26-100.07-154.79-100.07-154.79-113.21,100.16-113.14,212.76-113.14,212.76-3,132.56,77.59,158.85,77.59,158.85-1.07,40.52.48,63.35.48,63.35.71,7.22,32.25,13.7,33.74,11.61a1.45,1.45,0,0,0,.08-1c-2.1-7.45-10.38-52.84-12.91-77.58-7.21-59.37-5.91-153.63,14-243.5-4.23,145.73,14.83,232.3,14.83,232.3C-3128.84-5784.69-3126.78-5778.85-3119.24-5782.56Z" transform="translate(4227.31 6247.83)"/><path class="cls-1" d="M-2808.65-5515.31c77.18,1.52,94.89-93.57,94.89-93.57,12.66-58.57-8.81-109.6-8.81-109.6-87.23,21.76-118.8,81.4-118.8,81.4-38.77,69.37-3.29,107.27-3.29,107.27-11.93,21.16-17.52,33.67-17.52,33.67-1.66,4,13,16.17,14.35,15.47a.88.88,0,0,0,.33-.51c1-4.52,9.41-30.85,15-44.64,12.89-33.44,39.25-84.71,74.87-126.8-43.11,76-54.09,126.57-54.09,126.57C-2813.33-5519.85-2814.57-5515.51-2808.65-5515.31Z" transform="translate(4227.31 6247.83)"/><path class="cls-1" d="M-2514.14-5425.75c75.53,38.37,131.93-47.3,131.93-47.3,36.36-51.24,36-111.42,36-111.42-94.93-20.38-150.39,22.87-150.39,22.87-66.54,49.33-46.63,102.12-46.63,102.12-20.4,15-31,24.57-31,24.57-3.28,3.14,6.22,22,7.85,22a.86.86,0,0,0,.53-.35c2.83-3.95,21.86-25.68,33-36.48,26.35-26.54,72.91-62.87,125.21-87-73.51,53.74-105.12,99.07-105.12,99.07C-2516.9-5432.42-2519.9-5428.77-2514.14-5425.75Z" transform="translate(4227.31 6247.83)"/><path class="cls-1" d="M-2542-4938.25c4.81,96.31,126.41,113.72,126.41,113.72,74.34,11,136.29-19.85,136.29-19.85-34.8-106.94-112.13-141.46-112.13-141.46-90.12-42.7-134.19,7.91-134.19,7.91-27.5-13.16-43.64-19.11-43.64-19.11-5.17-1.75-19.08,17.5-18.1,19.14a1.14,1.14,0,0,0,.68.36c5.74.88,39.39,9.23,57.13,15.13,42.93,13.36,109.11,38.73,164.84,79.72-98.79-47.57-164.12-60.2-164.12-60.2C-2536.76-4944.44-2542.29-4945.64-2542-4938.25Z" transform="translate(4227.31 6247.83)"/><path class="cls-1" d="M-2433.93-5192c68.63,106,217,45.55,217,45.55,91-36.49,140.47-112.32,140.47-112.32-109.39-98.24-219.14-86.39-219.14-86.39-129.52,11-145.93,97.4-145.93,97.4-39.61,3.21-61.7,7.1-61.7,7.1-7,1.43-10,32.41-7.81,33.61a1.39,1.39,0,0,0,1,0c7-2.79,50.42-15.5,74.27-20.51,57.11-13.15,148.3-28,238-18.3-142.48,11.2-224.35,39.95-224.35,39.95C-2432.07-5202.47-2439.08-5200.19-2433.93-5192Z" transform="translate(4227.31 6247.83)"/><path class="cls-1" d="M-2510.61-5705.61c103.53,40.66,167.45-77.52,167.45-77.52,41.45-71.63,33.71-150.32,33.71-150.32-126.78-14.68-194.19,48.93-194.19,48.93-81.19,72.94-47.67,140.38-47.67,140.38-24.91,22.2-37.66,36.06-37.66,36.06-3.92,4.53,10.81,28,12.93,27.78a1.14,1.14,0,0,0,.66-.52c3.22-5.52,25.53-36.36,38.86-51.91,31.32-38.05,86.82-92.35,152.4-130.56-89.8,79.61-126.1,141.87-126.1,141.87C-2515-5714-2518.52-5708.84-2510.61-5705.61Z" transform="translate(4227.31 6247.83)"/><path class="cls-1" d="M-2790.89-5934.57c103.82-21.26,96.86-149.28,96.86-149.28-4.3-78.49-51.53-137.12-51.53-137.12-108.82,54-129.43,139.52-129.43,139.52-26.72,100.11,33.33,137,33.33,137-8.29,30.57-11.24,48.21-11.24,48.21-.76,5.63,23.25,16.71,24.82,15.42a1.09,1.09,0,0,0,.25-.76c-.31-6.07,1.4-42.16,3.93-61.45,5.12-46.5,23.09-123.66,55.49-188-30.13,109.87-30.42,183.75-30.42,183.75C-2799.14-5938.83-2798.89-5933-2790.89-5934.57Z" transform="translate(4227.31 6247.83)"/><path class="cls-1" d="M-3451.28-6100.3" transform="translate(4227.31 6247.83)"/><path class="cls-1" d="M-3458.94-5508c-1-4.52-9.41-30.85-15-44.64-12.89-33.44-36.58-84.71-72.2-126.8,43.11,76,56.57,127.31,56.57,127.31,1.65,6.21,2.89,10.54-3,10.74-77.18,1.53-97.37-94.31-97.37-94.31-12.66-58.57,8.81-109.6,8.81-109.6,87.23,21.76,118.79,81.4,118.79,81.4,38.77,69.37.62,107.27.62,107.27,11.94,21.16,17.53,33.67,17.53,33.67" transform="translate(4227.31 6247.83)"/><path class="cls-1" d="M-3787-5454.18c-75.53,38.36-134.52-45.73-134.52-45.73-36.37-51.24-36-111.42-36-111.42,94.93-20.38,150.39,22.88,150.39,22.88,66.53,49.32,44.34,104.61,44.34,104.61,20.4,15,31,24.57,31,24.57,3.27,3.14-6.23,22-7.86,22a.86.86,0,0,1-.53-.35c-2.83-3.94-21.86-25.67-33-36.48-26.35-26.54-70.63-65.37-122.93-89.52,73.52,53.74,107.72,97.5,107.72,97.5C-3784.28-5460.86-3781.28-5457.21-3787-5454.18Z" transform="translate(4227.31 6247.83)"/><path class="cls-1" d="M-3869.84-5218.84c-68.63,106-217,45.55-217,45.55-91-36.49-140.46-112.32-140.46-112.32,109.39-98.24,219.13-86.39,219.13-86.39,129.52,11,145.94,97.4,145.94,97.4,39.61,3.21,61.69,7.1,61.69,7.1,7,1.43,10,32.41,7.82,33.61a1.39,1.39,0,0,1-1,0c-7-2.79-50.42-15.5-74.27-20.51-57.12-13.15-148.31-28-238-18.3,142.48,11.2,224.34,39.95,224.34,39.95C-3871.71-5229.33-3864.69-5227-3869.84-5218.84Z" transform="translate(4227.31 6247.83)"/><path class="cls-1" d="M-3790-5733.16c-103.53,40.65-170.66-76.83-170.66-76.83-41.44-71.63-33.71-150.32-33.71-150.32,126.78-14.68,194.2,48.93,194.2,48.93,81.19,72.94,45.47,142.48,45.47,142.48,24.91,22.2,37.66,36.07,37.66,36.07,3.92,4.52-10.8,28-12.93,27.77a1.1,1.1,0,0,1-.66-.52c-3.22-5.52-25.53-36.36-38.86-51.91-31.31-38.05-84.62-94.45-150.21-132.66,89.8,79.61,129.32,141.17,129.32,141.17C-3785.53-5741.54-3782-5736.39-3790-5733.16Z" transform="translate(4227.31 6247.83)"/><path class="cls-1" d="M-3428.79-6108.3c26.73,100.1-38.06,137-38.06,137,8.29,30.57,11.24,48.22,11.24,48.22.76,5.62-23.25,16.7-24.82,15.41a1.09,1.09,0,0,1-.25-.76c.31-6.06-1.4-42.16-3.93-61.45-5.12-46.5-18.23-119-50.63-183.39,30.12,109.88,29.53,179.35,29.53,179.35-.05,8.41.05,14.31-7.95,12.78-103.82-21.26-96.08-149.53-96.08-149.53,4.3-78.49,51.53-137.12,51.53-137.12,108.82,54,129.42,139.53,129.42,139.53" transform="translate(4227.31 6247.83)"/><rect class="cls-2" x="1034.03" y="936.64" width="88.37" height="754.43"/><path class="cls-3" d="M-3104.92-4340.81l-88.36,3.26v-373.14c0-90.07,49.12-135.5,59.34-144,34.11-29.67,75.9-50.88,77.66-51.78l1.86-.87c42.28-18.92,102.37-22.87,109.08-23.26l2-.07c56.27-.64,81.28-11.61,86.42-14.21l7.26-4.08c12.61-5.8,29.37-26.83,35.54-36.81,7.93-13.29,12.64-36.41,13.45-41.84l1-4.8c2.76-10.44,1.47-22.39.74-26.12l86.41-18.48a153.06,153.06,0,0,1-1.12,64.86c-1.7,10.06-8.45,44.62-25,72.28-5.5,8.91-32.48,50.27-70.65,69.52-14.45,9.05-52.89,27-131.92,28-14.38,1-53.21,5.3-76.21,15.21-5.43,2.84-35.65,19-59,39.45l-1.86,1.53c-.38.36-26.74,23.67-26.74,75.43Zm247.26-603.33Zm1.81-1.27Z" transform="translate(4227.31 6247.83)"/><path class="cls-4" d="M-3149.1-5250c-88,0-159.66-71.62-159.66-159.65s71.62-159.65,159.66-159.65,159.65,71.62,159.65,159.65S-3061.07-5250-3149.1-5250Zm0-230.94a71.38,71.38,0,0,0-71.3,71.29,71.38,71.38,0,0,0,71.3,71.29,71.37,71.37,0,0,0,71.29-71.29A71.37,71.37,0,0,0-3149.1-5481Z" transform="translate(4227.31 6247.83)"/><path class="cls-5" d="M-3193.28-4710.69c0-51.76-26.36-75.07-26.73-75.43l-1.86-1.53c-23.33-20.43-53.55-36.61-59-39.45-23-9.91-61.83-14.26-76.21-15.21-79-1.06-117.47-19-131.92-28-38.16-19.25-65.15-60.61-70.65-69.52-16.5-27.66-23.25-62.22-24.95-72.28a153.06,153.06,0,0,1-1.12-64.86l86.41,18.48c-.73,3.73-2,15.68.74,26.12l1,4.8c.81,5.43,5.52,28.55,13.45,41.84,6.17,10,22.93,31,35.54,36.81l2.94.13,4.32,4c5.14,2.6,30.15,13.57,86.42,14.21l2,.07c6.71.39,66.8,4.34,109.08,23.26l1.86.87c1.76.9,43.55,22.11,77.66,51.78,10.22,8.48,59.34,53.91,59.34,144v356.26h-88.36Zm-247.26-233.45Zm-1.81-1.27Z" transform="translate(4227.31 6247.83)"/><path class="cls-6" d="M-2747.65-5011.11c-88,0-159.66-71.62-159.66-159.65s71.62-159.66,159.66-159.66S-2588-5258.8-2588-5170.76-2659.62-5011.11-2747.65-5011.11Zm0-231a71.39,71.39,0,0,0-71.3,71.3,71.38,71.38,0,0,0,71.3,71.29,71.37,71.37,0,0,0,71.29-71.29A71.38,71.38,0,0,0-2747.65-5242.06Z" transform="translate(4227.31 6247.83)"/><path class="cls-3" d="M-3710.2-5170.76c0-88,71.62-159.66,159.65-159.66s159.66,71.62,159.66,159.66-71.62,159.65-159.66,159.65S-3710.2-5082.73-3710.2-5170.76Zm88.36,0a71.37,71.37,0,0,0,71.29,71.29,71.38,71.38,0,0,0,71.3-71.29,71.39,71.39,0,0,0-71.3-71.3A71.38,71.38,0,0,0-3621.84-5170.76Z" transform="translate(4227.31 6247.83)"/><path class="cls-3" d="M-3149.09-4074.94c-88,0-159.67-71.62-159.67-159.65s71.63-159.66,159.67-159.66,159.65,71.63,159.65,159.66S-3061.07-4074.94-3149.09-4074.94Zm0-230.94a71.37,71.37,0,0,0-71.3,71.29,71.37,71.37,0,0,0,71.3,71.29,71.36,71.36,0,0,0,71.28-71.29A71.36,71.36,0,0,0-3149.09-4305.88Z" transform="translate(4227.31 6247.83)"/><path class="cls-1" d="M-3780.15-4915.11c14.6,100-103.49,135.62-103.49,135.62-72.11,22.16-140.28-.72-140.28-.72,13.25-115.36,83.63-162.16,83.63-162.16,81.5-57.12,135.77-11.3,135.77-11.3,24.85-17.56,39.79-26,39.79-26,4.82-2.55,22.61,15.28,21.95,17.12a1.06,1.06,0,0,1-.6.47c-5.57,1.73-37.53,15.23-54.09,23.88-40.23,20-101.29,55.78-148.76,106.13,89.2-63.39,152-85.88,152-85.88C-3786.66-4920.74-3781.37-4922.78-3780.15-4915.11Z" transform="translate(4227.31 6247.83)"/><path class="cls-3" d="M-1329-5105.86q54.38,34.39,84.92,97.68t30.53,147.63q0,84.38-30.53,149.3t-85.48,100.45q-54.95,35.54-124.86,35.51-58.83,0-104.91-25.53t-70.47-71v27.75q0,30-18.87,47.74t-50,17.75q-31.06,0-49.39-17.75t-18.31-47.74v-663.78q0-28.84,19.42-46.61t50.5-17.76q31.08,0,50,16.65t18.87,45.5v262q24.4-44.4,69.92-68.25t103.24-23.88Q-1383.41-5140.27-1329-5105.86Zm-59.94,376.29q36.63-46.61,36.64-131,0-83.25-36.08-127.64T-1491-5032.6q-66.6,0-102.69,45t-36.06,129.31q0,84.38,36.06,129.87T-1491-4683Q-1425.56-4683-1388.94-4729.57Z" transform="translate(4227.31 6247.83)"/><path class="cls-3" d="M-1090.35-5257.38q-22.22-20.53-22.2-53.83t22.2-53.28q22.2-20,59.94-20,36.62,0,59.38,20t22.76,53.28q0,33.31-22.2,53.83t-59.94,20.53Q-1068.15-5236.85-1090.35-5257.38Zm10.55,662.67q-19.42-17.21-19.42-49.39v-428.47q0-32.18,19.42-48.82t49.39-16.66q30,0,50,16.66t20,48.82v428.47q0,32.2-20,49.39t-50,17.21Q-1060.38-4577.5-1079.8-4594.71Z" transform="translate(4227.31 6247.83)"/><path class="cls-3" d="M-479.85-4630.79q0,26.65-21.65,40.52t-61.6,11.66l-30-2.22q-186.48-13.32-186.48-199.8v-242H-835q-30,0-46.06-13.32t-16.1-38.86q0-25.52,16.1-38.84T-835-5127h55.5v-102.11q0-30,18.86-47.73t51.06-17.77q31.08,0,50,17.77t18.87,47.73V-5127h94.34q30,0,46.07,13.33t16.11,38.84q0,25.56-16.11,38.86t-46.07,13.32H-640.8v252q0,82.14,75.48,87.68l30,2.24Q-479.85-4677.39-479.85-4630.79Z" transform="translate(4227.31 6247.83)"/><path class="cls-3" d="M330.43-5105.86q54.38,34.39,84.92,97.68t30.53,147.63q0,84.38-30.53,149.3T329.86-4610.8q-54.93,35.54-124.86,35.51-58.81,0-104.9-25.53t-70.47-71v27.75q0,30-18.88,47.74t-49.95,17.75q-31.08,0-49.39-17.75t-18.31-47.74v-663.78q0-28.84,19.42-46.61t50.5-17.76q31.08,0,49.95,16.65t18.88,45.5v262q24.39-44.4,69.92-68.25T205-5140.27Q276-5140.27,330.43-5105.86Zm-59.94,376.29q36.63-46.61,36.64-131,0-83.25-36.08-127.64T168.38-5032.6q-66.61,0-102.69,45T29.63-4858.33q0,84.38,36.06,129.87T168.38-4683Q233.87-4683,270.49-4729.57Z" transform="translate(4227.31 6247.83)"/><path class="cls-3" d="M953.71-5127.5a60.2,60.2,0,0,1,32.73-9.44q25.53,0,46.06,17.2t20.55,42.74q0,12.22-6.67,25.53l-303,634.92q-18.89,37.74-58.84,37.73a68.37,68.37,0,0,1-44.95-16.09q-19.44-16.1-19.43-40.52,0-12.21,6.66-27.75l75.48-158.71L495.83-5051.47q-5.58-11.08-5.56-25.53,0-25.53,21.64-43.29A75.77,75.77,0,0,1,561.32-5138a65.11,65.11,0,0,1,34.4,9.44q15.54,9.44,24.42,29.4l155.41,343L929.83-5098.1Q938.71-5118.06,953.71-5127.5Z" transform="translate(4227.31 6247.83)"/><path class="cls-3" d="M1873.31-5105.86q54.38,34.39,84.92,97.68t30.53,147.63q0,84.38-30.53,149.3t-85.48,100.45q-54.95,35.54-124.86,35.51-58.83,0-104.91-25.53t-70.47-71v27.75q0,30-18.87,47.74t-50,17.75q-31.08,0-49.39-17.75T1436-4644.1v-663.78q0-28.84,19.42-46.61t50.5-17.76q31.08,0,50,16.65t18.87,45.5v262q24.4-44.4,69.92-68.25t103.24-23.88Q1818.9-5140.27,1873.31-5105.86Zm-59.94,376.29q36.63-46.61,36.64-131,0-83.25-36.08-127.64t-102.67-44.41q-66.6,0-102.69,45t-36.06,129.31q0,84.38,36.06,129.87t102.69,45.5Q1776.75-4683,1813.37-4729.57Z" transform="translate(4227.31 6247.83)"/><path class="cls-3" d="M2112-5257.38q-22.22-20.53-22.2-53.83t22.2-53.28q22.2-20,59.94-20,36.61,0,59.38,20t22.76,53.28q0,33.31-22.2,53.83t-59.94,20.53Q2134.16-5236.85,2112-5257.38Zm10.55,662.67q-19.43-17.21-19.42-49.39v-428.47q0-32.18,19.42-48.82T2171.9-5138q30,0,49.95,16.66t20,48.82v428.47q0,32.2-20,49.39t-49.95,17.21Q2141.93-4577.5,2122.51-4594.71Z" transform="translate(4227.31 6247.83)"/><path class="cls-3" d="M2722.46-4630.79q0,26.65-21.65,40.52t-61.6,11.66l-30-2.22q-186.48-13.32-186.48-199.8v-242h-55.5q-30,0-46.06-13.32t-16.1-38.86q0-25.52,16.1-38.84t46.06-13.33h55.5v-102.11q0-30,18.86-47.73t51.06-17.77q31.08,0,50,17.77t18.88,47.73V-5127h94.34q30,0,46.07,13.33t16.11,38.84q0,25.56-16.11,38.86t-46.07,13.32h-94.34v252q0,82.14,75.48,87.68l30,2.24Q2722.46-4677.39,2722.46-4630.79Z" transform="translate(4227.31 6247.83)"/></svg>