<?xml version="1.0" encoding="utf-8"?>
<!-- Generator: Adobe Illustrator 25.0.1, SVG Export Plug-In . SVG Version: 6.00 Build 0)  -->
<svg version="1.1" id="Layer_1" xmlns="http://www.w3.org/2000/svg" xmlns:xlink="http://www.w3.org/1999/xlink" x="0px" y="0px"
	 viewBox="0 0 2217.4 1626.7" style="enable-background:new 0 0 2217.4 1626.7;" xml:space="preserve">
<style type="text/css">
	.st0{opacity:0.9;}
	.st1{clip-path:url(#SVGID_2_);}
	.st2{clip-path:url(#SVGID_4_);}
	.st3{opacity:0.41;fill:#FFB560;enable-background:new    ;}
	.st4{opacity:0.49;fill:#FFD30D;enable-background:new    ;}
	.st5{fill-opacity:0;}
	.st6{fill-rule:evenodd;clip-rule:evenodd;fill:#FFE266;}
	.st7{fill:none;stroke:#8198B8;stroke-linejoin:round;}
	.st8{fill-rule:evenodd;clip-rule:evenodd;fill-opacity:0;}
	.st9{fill:none;stroke:#8198B8;stroke-linejoin:round;stroke-dasharray:1,3;}
	.st10{fill:none;stroke:#8198B8;stroke-linejoin:round;stroke-dasharray:4,3;}
	.st11{fill:none;stroke:#8198B8;stroke-linejoin:round;stroke-dasharray:4,3,1,3;}
	.st12{fill:none;}
</style>
<g id="Layer_2_1_">
	<g class="st0">
		<g>
			<defs>
				<rect id="SVGID_1_" x="302.4" y="547.7" width="1915" height="1079"/>
			</defs>
			<clipPath id="SVGID_2_">
				<use xlink:href="#SVGID_1_"  style="overflow:visible;"/>
			</clipPath>
			<g class="st1">
				<g>
					<defs>
						
							<rect id="SVGID_3_" x="549.8" y="432.7" transform="matrix(0.9953 -9.688807e-02 9.688807e-02 0.9953 -100.6048 145.8324)" width="1803" height="1352.2"/>
					</defs>
					<clipPath id="SVGID_4_">
						<use xlink:href="#SVGID_3_"  style="overflow:visible;"/>
					</clipPath>
					<g class="st2">
						<path class="st3" d="M841,1775.1c0,0,137.7-201.5,274.1-261.3c140.9-61.7,395.9-154.7,449.9-200.7s161.1-130.3,232-189.6
							c70.9-59.3,231-221.4,475-100.4s293,255,293,255l-38,59c0,0-107.4-130.6-211-173c-105-43-173-77-270-22s-127,66-197,171
							s-151,145-197,155c-108.5,23.6-163,28-298,63c-147.4,38.2-258,126-280,173s-26,154-26,154L841,1775.1z"/>
						<path class="st4" d="M869,1929.4c0,0,202-387.4,331.3-512.4c247.7-239.6,747.7-173.6,878.7-374.6s381-302,381-302l235,1123
							L869,1929.4z"/>
						
							<rect x="538.8" y="386.7" transform="matrix(0.9953 -9.688807e-02 9.688807e-02 0.9953 -96.199 144.5497)" class="st5" width="1803" height="1352.2"/>
						<path class="st6" d="M1899.1,929.1L1899.1,929.1c-2.6-3.3-7.4-3.8-10.8-1.2l0,0c-3.3,2.6-3.9,7.4-1.2,10.7c0,0,0,0,0,0l0,0
							c2.6,3.3,7.4,3.8,10.8,1.2l0,0C1901.2,937.2,1901.8,932.4,1899.1,929.1C1899.1,929.1,1899.1,929.1,1899.1,929.1z"/>
						<path class="st7" d="M1899.1,929.1L1899.1,929.1c-2.6-3.3-7.4-3.8-10.8-1.2l0,0c-3.3,2.6-3.9,7.4-1.2,10.7c0,0,0,0,0,0l0,0
							c2.6,3.3,7.4,3.8,10.8,1.2l0,0C1901.2,937.2,1901.8,932.4,1899.1,929.1C1899.1,929.1,1899.1,929.1,1899.1,929.1z"/>
						<path class="st8" d="M1910.8,919.7L1910.8,919.7c-7.8-9.8-22-11.4-31.8-3.7l0,0c-9.8,7.8-11.4,22-3.6,31.8c0,0,0,0,0,0l0,0
							c7.8,9.8,22,11.4,31.8,3.7l0,0C1917,943.7,1918.6,929.5,1910.8,919.7C1910.8,919.7,1910.8,919.7,1910.8,919.7z"/>
						<path class="st7" d="M1910.8,919.7L1910.8,919.7c-7.8-9.8-22-11.4-31.8-3.7l0,0c-9.8,7.8-11.4,22-3.6,31.8c0,0,0,0,0,0l0,0
							c7.8,9.8,22,11.4,31.8,3.7l0,0C1917,943.7,1918.6,929.5,1910.8,919.7C1910.8,919.7,1910.8,919.7,1910.8,919.7z"/>
						<path class="st6" d="M1055.2,1487.5L1055.2,1487.5c-1-4.9-5.8-8-10.7-7c0,0,0,0-0.1,0l0,0c-4.9,1-8,5.8-7,10.7c0,0,0,0,0,0
							l0,0c1,4.9,5.9,8,10.7,7c0,0,0,0,0,0l0,0c4.9-1,8-5.8,7-10.6C1055.2,1487.6,1055.2,1487.5,1055.2,1487.5z"/>
						<path class="st7" d="M1055.2,1487.5L1055.2,1487.5c-1-4.9-5.8-8-10.7-7c0,0,0,0-0.1,0l0,0c-4.9,1-8,5.8-7,10.7c0,0,0,0,0,0
							l0,0c1,4.9,5.9,8,10.7,7c0,0,0,0,0,0l0,0c4.9-1,8-5.8,7-10.6C1055.2,1487.6,1055.2,1487.5,1055.2,1487.5z"/>
						<path class="st8" d="M1072.4,1483.8L1072.4,1483.8c-3.1-14.5-17.3-23.7-31.8-20.7l0,0c-14.5,3.1-23.6,17.4-20.5,31.8
							c0,0,0,0,0,0l0,0c3,14.5,17.3,23.8,31.8,20.7c0,0,0,0,0,0l0,0C1066.4,1512.6,1075.6,1498.4,1072.4,1483.8
							C1072.5,1483.9,1072.4,1483.8,1072.4,1483.8z"/>
						<path class="st7" d="M1072.4,1483.8L1072.4,1483.8c-3.1-14.5-17.3-23.7-31.8-20.7l0,0c-14.5,3.1-23.6,17.4-20.5,31.8
							c0,0,0,0,0,0l0,0c3,14.5,17.3,23.8,31.8,20.7c0,0,0,0,0,0l0,0C1066.4,1512.6,1075.6,1498.4,1072.4,1483.8
							C1072.5,1483.9,1072.4,1483.8,1072.4,1483.8z"/>
						<path class="st6" d="M936.4,1497.9L936.4,1497.9c-1.3-5.9-7.1-9.7-13-8.4c0,0,0,0,0,0l0,0c-5.9,1.3-9.7,7.1-8.4,13
							c0,0,0,0,0,0l0,0c1.3,5.9,7.1,9.7,13,8.4c0,0,0,0,0,0l0,0C933.9,1509.6,937.7,1503.8,936.4,1497.9
							C936.4,1497.9,936.4,1497.9,936.4,1497.9z"/>
						<path class="st7" d="M936.4,1497.9L936.4,1497.9c-1.3-5.9-7.1-9.7-13-8.4c0,0,0,0,0,0l0,0c-5.9,1.3-9.7,7.1-8.4,13
							c0,0,0,0,0,0l0,0c1.3,5.9,7.1,9.7,13,8.4c0,0,0,0,0,0l0,0C933.9,1509.6,937.7,1503.8,936.4,1497.9
							C936.4,1497.9,936.4,1497.9,936.4,1497.9z"/>
						<path class="st8" d="M951.9,1494.5L951.9,1494.5c-3.1-14.5-17.3-23.7-31.8-20.7l0,0c-14.5,3.1-23.6,17.3-20.5,31.8
							c0,0,0,0,0,0l0,0c3.1,14.5,17.3,23.7,31.8,20.7l0,0C945.8,1523.3,955,1509,951.9,1494.5
							C951.9,1494.6,951.9,1494.6,951.9,1494.5z"/>
						<path class="st9" d="M951.9,1494.5L951.9,1494.5c-3.1-14.5-17.3-23.7-31.8-20.7l0,0c-14.5,3.1-23.6,17.3-20.5,31.8
							c0,0,0,0,0,0l0,0c3.1,14.5,17.3,23.7,31.8,20.7l0,0C945.8,1523.3,955,1509,951.9,1494.5
							C951.9,1494.6,951.9,1494.6,951.9,1494.5z"/>
						<path class="st6" d="M1277.7,1463.6L1277.7,1463.6c-1.6-7.6-9.1-12.4-16.7-10.8l0,0c-7.6,1.6-12.4,9.1-10.8,16.7c0,0,0,0,0,0
							l0,0c1.6,7.6,9,12.4,16.6,10.9c0,0,0.1,0,0.1,0l0,0C1274.5,1478.7,1279.4,1471.2,1277.7,1463.6z"/>
						<path class="st7" d="M1277.7,1463.6L1277.7,1463.6c-1.6-7.6-9.1-12.4-16.7-10.8l0,0c-7.6,1.6-12.4,9.1-10.8,16.7c0,0,0,0,0,0
							l0,0c1.6,7.6,9,12.4,16.6,10.9c0,0,0.1,0,0.1,0l0,0C1274.5,1478.7,1279.4,1471.2,1277.7,1463.6z"/>
						<path class="st8" d="M1290.1,1461L1290.1,1461c-3.1-14.5-17.3-23.7-31.8-20.7l0,0c-14.5,3.1-23.6,17.4-20.5,31.8c0,0,0,0,0,0
							l0,0c3.1,14.5,17.3,23.7,31.8,20.7l0,0C1284,1489.7,1293.2,1475.5,1290.1,1461C1290.1,1461,1290.1,1461,1290.1,1461z"/>
						<path class="st9" d="M1290.1,1461L1290.1,1461c-3.1-14.5-17.3-23.7-31.8-20.7l0,0c-14.5,3.1-23.6,17.4-20.5,31.8c0,0,0,0,0,0
							l0,0c3.1,14.5,17.3,23.7,31.8,20.7l0,0C1284,1489.7,1293.2,1475.5,1290.1,1461C1290.1,1461,1290.1,1461,1290.1,1461z"/>
						<path class="st8" d="M2052.7,917.4L2052.7,917.4c-3.8-4.7-10.6-5.4-15.3-1.7l0,0c-4.7,3.8-5.5,10.6-1.7,15.3l0,0
							c3.7,4.7,10.6,5.5,15.3,1.8c0,0,0,0,0,0l0,0C2055.8,929,2056.5,922.1,2052.7,917.4C2052.7,917.4,2052.7,917.4,2052.7,917.4z"
							/>
						<path class="st7" d="M2052.7,917.4L2052.7,917.4c-3.8-4.7-10.6-5.4-15.3-1.7l0,0c-4.7,3.8-5.5,10.6-1.7,15.3l0,0
							c3.7,4.7,10.6,5.5,15.3,1.8c0,0,0,0,0,0l0,0C2055.8,929,2056.5,922.1,2052.7,917.4C2052.7,917.4,2052.7,917.4,2052.7,917.4z"
							/>
						<path class="st8" d="M2065.1,907.6L2065.1,907.6c-9.2-11.6-26-13.6-37.6-4.4c0,0,0,0-0.1,0.1l0,0c-5.6,4.4-9.1,10.9-9.9,17.9
							c-0.8,7.1,1.3,14.2,5.7,19.7l0,0c9.2,11.6,26,13.6,37.6,4.4c0,0,0,0,0,0l0,0C2072.4,936,2074.3,919.1,2065.1,907.6z"/>
						<path class="st7" d="M2065.1,907.6L2065.1,907.6c-9.2-11.6-26-13.6-37.6-4.4c0,0,0,0-0.1,0.1l0,0c-5.6,4.4-9.1,10.9-9.9,17.9
							c-0.8,7.1,1.3,14.2,5.7,19.7l0,0c9.2,11.6,26,13.6,37.6,4.4c0,0,0,0,0,0l0,0C2072.4,936,2074.3,919.1,2065.1,907.6z"/>
						<path class="st8" d="M2074.3,845.6L2074.3,845.6c-3-3.7-8.4-4.4-12.1-1.4l0,0c-3.7,3-4.3,8.4-1.3,12.1l0,0
							c3,3.7,8.4,4.4,12.1,1.4c0,0,0,0,0,0l0,0C2076.6,854.8,2077.2,849.3,2074.3,845.6C2074.3,845.6,2074.3,845.6,2074.3,845.6z"/>
						<path class="st7" d="M2074.3,845.6L2074.3,845.6c-3-3.7-8.4-4.4-12.1-1.4l0,0c-3.7,3-4.3,8.4-1.3,12.1l0,0
							c3,3.7,8.4,4.4,12.1,1.4c0,0,0,0,0,0l0,0C2076.6,854.8,2077.2,849.3,2074.3,845.6C2074.3,845.6,2074.3,845.6,2074.3,845.6z"/>
						<path class="st8" d="M2084,837.8L2084,837.8c-7.3-9.1-20.6-10.7-29.7-3.4c0,0,0,0,0,0l0,0c-9.1,7.3-10.6,20.6-3.3,29.7l0,0
							c7.3,9.1,20.6,10.7,29.7,3.4c0,0,0,0,0,0l0,0C2089.8,860.3,2091.3,846.9,2084,837.8z"/>
						<path class="st7" d="M2084,837.8L2084,837.8c-7.3-9.1-20.6-10.7-29.7-3.4c0,0,0,0,0,0l0,0c-9.1,7.3-10.6,20.6-3.3,29.7l0,0
							c7.3,9.1,20.6,10.7,29.7,3.4c0,0,0,0,0,0l0,0C2089.8,860.3,2091.3,846.9,2084,837.8z"/>
						<path class="st6" d="M2031.8,792.8L2031.8,792.8c-4.4-5.6-12.6-6.5-18.2-2.1l0,0c-5.6,4.5-6.5,12.6-2,18.1c0,0,0,0,0,0l0,0
							c4.4,5.6,12.6,6.5,18.2,2.1l0,0C2035.3,806.5,2036.2,798.3,2031.8,792.8C2031.8,792.8,2031.8,792.8,2031.8,792.8z"/>
						<path class="st7" d="M2031.8,792.8L2031.8,792.8c-4.4-5.6-12.6-6.5-18.2-2.1l0,0c-5.6,4.5-6.5,12.6-2,18.1c0,0,0,0,0,0l0,0
							c4.4,5.6,12.6,6.5,18.2,2.1l0,0C2035.3,806.5,2036.2,798.3,2031.8,792.8C2031.8,792.8,2031.8,792.8,2031.8,792.8z"/>
						<path class="st8" d="M2040.9,785.5L2040.9,785.5c-8.4-10.6-23.9-12.4-34.6-4l0,0c-10.6,8.5-12.3,24-3.8,34.6l0,0
							c8.4,10.6,23.9,12.4,34.5,4c0,0,0,0,0,0l0,0C2047.6,811.6,2049.4,796.1,2040.9,785.5z"/>
						<path class="st9" d="M2040.9,785.5L2040.9,785.5c-8.4-10.6-23.9-12.4-34.6-4l0,0c-10.6,8.5-12.3,24-3.8,34.6l0,0
							c8.4,10.6,23.9,12.4,34.5,4c0,0,0,0,0,0l0,0C2047.6,811.6,2049.4,796.1,2040.9,785.5z"/>
						<path class="st6" d="M1528.5,1301L1528.5,1301c-2.7-5.2-9.1-7.3-14.3-4.6l0,0c-5.2,2.7-7.3,9.1-4.6,14.3l0,0
							c2.7,5.2,9.1,7.3,14.3,4.6c0,0,0,0,0,0l0,0C1529.1,1312.6,1531.2,1306.2,1528.5,1301z"/>
						<path class="st10" d="M1528.5,1301L1528.5,1301c-2.7-5.2-9.1-7.3-14.3-4.6l0,0c-5.2,2.7-7.3,9.1-4.6,14.3l0,0
							c2.7,5.2,9.1,7.3,14.3,4.6c0,0,0,0,0,0l0,0C1529.1,1312.6,1531.2,1306.2,1528.5,1301z"/>
						<path class="st8" d="M1542.2,1294L1542.2,1294c-6.5-12.8-22.2-18-35.1-11.4c0,0,0,0,0,0l0,0c-12.8,6.6-17.9,22.3-11.3,35.1
							l0,0c6.5,12.8,22.2,18,35.1,11.4c0,0,0,0,0,0l0,0C1543.8,1322.5,1548.8,1306.8,1542.2,1294
							C1542.2,1294,1542.2,1294,1542.2,1294z"/>
						<path class="st10" d="M1542.2,1294L1542.2,1294c-6.5-12.8-22.2-18-35.1-11.4c0,0,0,0,0,0l0,0c-12.8,6.6-17.9,22.3-11.3,35.1
							l0,0c6.5,12.8,22.2,18,35.1,11.4c0,0,0,0,0,0l0,0C1543.8,1322.5,1548.8,1306.8,1542.2,1294
							C1542.2,1294,1542.2,1294,1542.2,1294z"/>
						<path class="st6" d="M1827.7,1091.3L1827.7,1091.3c-2.7-5.4-9.3-7.5-14.7-4.8l0,0c-5.4,2.7-7.5,9.3-4.7,14.6c0,0,0,0,0,0.1
							l0,0c2.7,5.4,9.3,7.5,14.7,4.8c0,0,0,0,0,0l0,0C1828.3,1103.3,1830.4,1096.7,1827.7,1091.3
							C1827.7,1091.4,1827.7,1091.4,1827.7,1091.3z"/>
						<path class="st7" d="M1827.7,1091.3L1827.7,1091.3c-2.7-5.4-9.3-7.5-14.7-4.8l0,0c-5.4,2.7-7.5,9.3-4.7,14.6c0,0,0,0,0,0.1
							l0,0c2.7,5.4,9.3,7.5,14.7,4.8c0,0,0,0,0,0l0,0C1828.3,1103.3,1830.4,1096.7,1827.7,1091.3
							C1827.7,1091.4,1827.7,1091.4,1827.7,1091.3z"/>
						<path class="st8" d="M1841.8,1084.2L1841.8,1084.2c-6.7-13.2-22.8-18.4-36-11.7l0,0c-13.2,6.8-18.3,22.9-11.6,36.1l0,0
							c6.7,13.2,22.8,18.4,36,11.7l0,0C1843.4,1113.5,1848.5,1097.3,1841.8,1084.2z"/>
						<path class="st9" d="M1841.8,1084.2L1841.8,1084.2c-6.7-13.2-22.8-18.4-36-11.7l0,0c-13.2,6.8-18.3,22.9-11.6,36.1l0,0
							c6.7,13.2,22.8,18.4,36,11.7l0,0C1843.4,1113.5,1848.5,1097.3,1841.8,1084.2z"/>
						<path class="st6" d="M1948,1060.7L1948,1060.7c-2.3-4.5-7.7-6.3-12.2-4c0,0,0,0,0,0l0,0c-4.5,2.2-6.3,7.6-4.1,12.1
							c0,0,0,0.1,0.1,0.1l0,0c2.2,4.5,7.7,6.3,12.2,4c0,0,0,0,0,0l0,0C1948.5,1070.6,1950.3,1065.2,1948,1060.7
							C1948,1060.7,1948,1060.7,1948,1060.7z"/>
						<path class="st7" d="M1948,1060.7L1948,1060.7c-2.3-4.5-7.7-6.3-12.2-4c0,0,0,0,0,0l0,0c-4.5,2.2-6.3,7.6-4.1,12.1
							c0,0,0,0.1,0.1,0.1l0,0c2.2,4.5,7.7,6.3,12.2,4c0,0,0,0,0,0l0,0C1948.5,1070.6,1950.3,1065.2,1948,1060.7
							C1948,1060.7,1948,1060.7,1948,1060.7z"/>
						<path class="st8" d="M1963.8,1052.6L1963.8,1052.6c-6.7-13.2-22.8-18.4-36-11.7c0,0,0,0,0,0l0,0c-6.3,3.2-11.1,8.8-13.3,15.6
							c-2.2,6.8-1.6,14.1,1.7,20.5l0,0c6.7,13.2,22.8,18.4,36,11.7l0,0C1965.3,1082,1970.5,1065.8,1963.8,1052.6z"/>
						<path class="st7" d="M1963.8,1052.6L1963.8,1052.6c-6.7-13.2-22.8-18.4-36-11.7c0,0,0,0,0,0l0,0c-6.3,3.2-11.1,8.8-13.3,15.6
							c-2.2,6.8-1.6,14.1,1.7,20.5l0,0c6.7,13.2,22.8,18.4,36,11.7l0,0C1965.3,1082,1970.5,1065.8,1963.8,1052.6z"/>
						<path class="st8" d="M1776.6,1081.1L1776.6,1081.1c-0.6-6-5.9-10.4-11.9-9.8l0,0c-6,0.6-10.4,5.9-9.8,11.9c0,0,0,0,0,0.1l0,0
							c0.6,6,5.9,10.4,11.9,9.8l0,0C1772.9,1092.5,1777.2,1087.1,1776.6,1081.1z"/>
						<path class="st7" d="M1776.6,1081.1L1776.6,1081.1c-0.6-6-5.9-10.4-11.9-9.8l0,0c-6,0.6-10.4,5.9-9.8,11.9c0,0,0,0,0,0.1l0,0
							c0.6,6,5.9,10.4,11.9,9.8l0,0C1772.9,1092.5,1777.2,1087.1,1776.6,1081.1z"/>
						<path class="st8" d="M1843.1,1219.5L1843.1,1219.5c-6.7-13.2-22.8-18.4-36-11.7l0,0c-13.2,6.8-18.3,22.9-11.6,36.1l0,0
							c6.7,13.2,22.8,18.4,36,11.7l0,0C1844.7,1248.8,1849.9,1232.7,1843.1,1219.5z"/>
						<path class="st7" d="M1843.1,1219.5L1843.1,1219.5c-6.7-13.2-22.8-18.4-36-11.7l0,0c-13.2,6.8-18.3,22.9-11.6,36.1l0,0
							c6.7,13.2,22.8,18.4,36,11.7l0,0C1844.7,1248.8,1849.9,1232.7,1843.1,1219.5z"/>
						<path class="st8" d="M1871.2,1157.1L1871.2,1157.1c-2.2-4.4-7.6-6.1-11.9-3.9c0,0,0,0,0,0l0,0c-4.4,2.2-6.1,7.6-3.9,12
							c0,0,0,0,0,0l0,0c2.2,4.4,7.6,6.1,11.9,3.9c0,0,0,0,0,0l0,0C1871.7,1166.9,1873.4,1161.5,1871.2,1157.1
							C1871.2,1157.1,1871.2,1157.1,1871.2,1157.1z"/>
						<path class="st7" d="M1871.2,1157.1L1871.2,1157.1c-2.2-4.4-7.6-6.1-11.9-3.9c0,0,0,0,0,0l0,0c-4.4,2.2-6.1,7.6-3.9,12
							c0,0,0,0,0,0l0,0c2.2,4.4,7.6,6.1,11.9,3.9c0,0,0,0,0,0l0,0C1871.7,1166.9,1873.4,1161.5,1871.2,1157.1
							C1871.2,1157.1,1871.2,1157.1,1871.2,1157.1z"/>
						<path class="st8" d="M1882.7,1151.3L1882.7,1151.3c-5.5-10.7-18.6-15-29.3-9.6c0,0,0,0,0,0l0,0c-10.7,5.5-14.9,18.7-9.4,29.4
							l0,0c5.5,10.7,18.6,15,29.3,9.6c0,0,0,0,0,0l0,0C1883.9,1175.2,1888.2,1162,1882.7,1151.3
							C1882.7,1151.3,1882.7,1151.3,1882.7,1151.3z"/>
						<path class="st7" d="M1882.7,1151.3L1882.7,1151.3c-5.5-10.7-18.6-15-29.3-9.6c0,0,0,0,0,0l0,0c-10.7,5.5-14.9,18.7-9.4,29.4
							l0,0c5.5,10.7,18.6,15,29.3,9.6c0,0,0,0,0,0l0,0C1883.9,1175.2,1888.2,1162,1882.7,1151.3
							C1882.7,1151.3,1882.7,1151.3,1882.7,1151.3z"/>
						<path class="st6" d="M1672.8,1252.3L1672.8,1252.3c-1.5-3-5.2-4.2-8.3-2.7c0,0,0,0,0,0l0,0c-3,1.5-4.2,5.2-2.7,8.3l0,0
							c1.5,3,5.2,4.2,8.3,2.7c0,0,0,0,0,0l0,0C1673.2,1259,1674.4,1255.3,1672.8,1252.3z"/>
						<path class="st7" d="M1672.8,1252.3L1672.8,1252.3c-1.5-3-5.2-4.2-8.3-2.7c0,0,0,0,0,0l0,0c-3,1.5-4.2,5.2-2.7,8.3l0,0
							c1.5,3,5.2,4.2,8.3,2.7c0,0,0,0,0,0l0,0C1673.2,1259,1674.4,1255.3,1672.8,1252.3z"/>
						<path class="st8" d="M1683.6,1246.8L1683.6,1246.8c-4.5-9-15.5-12.6-24.4-8c0,0,0,0,0,0l0,0c-9,4.6-12.5,15.6-7.9,24.5l0,0
							c4.5,9,15.5,12.6,24.4,8c0,0,0,0,0,0l0,0C1684.6,1266.7,1688.1,1255.7,1683.6,1246.8z"/>
						<path class="st7" d="M1683.6,1246.8L1683.6,1246.8c-4.5-9-15.5-12.6-24.4-8c0,0,0,0,0,0l0,0c-9,4.6-12.5,15.6-7.9,24.5l0,0
							c4.5,9,15.5,12.6,24.4,8c0,0,0,0,0,0l0,0C1684.6,1266.7,1688.1,1255.7,1683.6,1246.8z"/>
						<path class="st6" d="M1683.6,1200.9L1683.6,1200.9c-1.9-3.8-6.5-5.3-10.3-3.3l0,0c-3.8,1.9-5.3,6.5-3.3,10.3l0,0
							c1.9,3.8,6.5,5.3,10.3,3.3l0,0C1684,1209.2,1685.5,1204.6,1683.6,1200.9z"/>
						<path class="st7" d="M1683.6,1200.9L1683.6,1200.9c-1.9-3.8-6.5-5.3-10.3-3.3l0,0c-3.8,1.9-5.3,6.5-3.3,10.3l0,0
							c1.9,3.8,6.5,5.3,10.3,3.3l0,0C1684,1209.2,1685.5,1204.6,1683.6,1200.9z"/>
						<path class="st8" d="M1696.9,1194L1696.9,1194c-5.7-11.1-19.3-15.6-30.4-9.9c0,0,0,0,0,0l0,0c-11.1,5.7-15.5,19.4-9.8,30.5
							l0,0c5.7,11.1,19.3,15.6,30.5,9.9c0,0,0,0,0,0l0,0C1698.2,1218.8,1702.6,1205.1,1696.9,1194z"/>
						<path class="st7" d="M1696.9,1194L1696.9,1194c-5.7-11.1-19.3-15.6-30.4-9.9c0,0,0,0,0,0l0,0c-11.1,5.7-15.5,19.4-9.8,30.5
							l0,0c5.7,11.1,19.3,15.6,30.5,9.9c0,0,0,0,0,0l0,0C1698.2,1218.8,1702.6,1205.1,1696.9,1194z"/>
						<path class="st6" d="M2131.4,735L2131.4,735c-2.9-3.6-8.1-4.2-11.7-1.3l0,0c-3.6,2.9-4.2,8.1-1.3,11.7c0,0,0,0,0,0l0,0
							c2.9,3.6,8.1,4.2,11.7,1.3l0,0C2133.6,743.8,2134.2,738.6,2131.4,735z"/>
						<path class="st7" d="M2131.4,735L2131.4,735c-2.9-3.6-8.1-4.2-11.7-1.3l0,0c-3.6,2.9-4.2,8.1-1.3,11.7c0,0,0,0,0,0l0,0
							c2.9,3.6,8.1,4.2,11.7,1.3l0,0C2133.6,743.8,2134.2,738.6,2131.4,735z"/>
						<path class="st8" d="M2144.1,724.9L2144.1,724.9c-8.4-10.6-23.9-12.4-34.6-4c0,0,0,0,0,0l0,0c-10.6,8.5-12.3,23.9-3.9,34.5
							c0,0,0,0,0,0l0,0c8.4,10.6,23.9,12.4,34.6,4c0,0,0,0,0,0l0,0C2150.9,750.9,2152.6,735.5,2144.1,724.9z"/>
						<path class="st7" d="M2144.1,724.9L2144.1,724.9c-8.4-10.6-23.9-12.4-34.6-4c0,0,0,0,0,0l0,0c-10.6,8.5-12.3,23.9-3.9,34.5
							c0,0,0,0,0,0l0,0c8.4,10.6,23.9,12.4,34.6,4c0,0,0,0,0,0l0,0C2150.9,750.9,2152.6,735.5,2144.1,724.9z"/>
						<path class="st6" d="M2158.4,645.2L2158.4,645.2c-3.4-4.3-9.6-5-13.9-1.6c0,0,0,0,0,0l0,0c-4.3,3.4-5,9.6-1.6,13.9l0,0
							c3.4,4.3,9.6,5,13.9,1.6c0,0,0,0,0,0l0,0C2161.1,655.8,2161.8,649.6,2158.4,645.2C2158.4,645.3,2158.4,645.3,2158.4,645.2z"/>
						<path class="st7" d="M2158.4,645.2L2158.4,645.2c-3.4-4.3-9.6-5-13.9-1.6c0,0,0,0,0,0l0,0c-4.3,3.4-5,9.6-1.6,13.9l0,0
							c3.4,4.3,9.6,5,13.9,1.6c0,0,0,0,0,0l0,0C2161.1,655.8,2161.8,649.6,2158.4,645.2C2158.4,645.3,2158.4,645.3,2158.4,645.2z"/>
						<path class="st8" d="M2165.4,639.7L2165.4,639.7c-6.5-8.2-18.3-9.5-26.5-3.1l0,0c-3.9,3.1-6.4,7.6-6.9,12.6
							c-0.6,5,0.9,10,4,13.9l0,0c6.5,8.2,18.3,9.5,26.5,3.1l0,0C2170.6,659.7,2171.9,647.8,2165.4,639.7z"/>
						<path class="st7" d="M2165.4,639.7L2165.4,639.7c-6.5-8.2-18.3-9.5-26.5-3.1l0,0c-3.9,3.1-6.4,7.6-6.9,12.6
							c-0.6,5,0.9,10,4,13.9l0,0c6.5,8.2,18.3,9.5,26.5,3.1l0,0C2170.6,659.7,2171.9,647.8,2165.4,639.7z"/>
						<path class="st6" d="M1899.3,977.9L1899.3,977.9c-3.4-4.3-9.6-5-13.9-1.6c0,0,0,0,0,0l0,0c-4.3,3.4-5,9.6-1.6,13.9l0,0
							c3.4,4.3,9.6,5,13.9,1.6c0,0,0,0,0,0l0,0C1902,988.4,1902.7,982.2,1899.3,977.9z"/>
						<path class="st7" d="M1899.3,977.9L1899.3,977.9c-3.4-4.3-9.6-5-13.9-1.6c0,0,0,0,0,0l0,0c-4.3,3.4-5,9.6-1.6,13.9l0,0
							c3.4,4.3,9.6,5,13.9,1.6c0,0,0,0,0,0l0,0C1902,988.4,1902.7,982.2,1899.3,977.9z"/>
						<path class="st8" d="M1906.3,972.4L1906.3,972.4c-6.5-8.2-18.3-9.5-26.5-3.1c0,0,0,0,0,0l0,0c-3.9,3.1-6.4,7.7-6.9,12.6
							c-0.5,5,0.9,10,4,13.9l0,0c6.5,8.2,18.3,9.5,26.5,3.1l0,0C1911.5,992.4,1912.8,980.5,1906.3,972.4
							C1906.3,972.4,1906.3,972.4,1906.3,972.4z"/>
						<path class="st7" d="M1906.3,972.4L1906.3,972.4c-6.5-8.2-18.3-9.5-26.5-3.1c0,0,0,0,0,0l0,0c-3.9,3.1-6.4,7.7-6.9,12.6
							c-0.5,5,0.9,10,4,13.9l0,0c6.5,8.2,18.3,9.5,26.5,3.1l0,0C1911.5,992.4,1912.8,980.5,1906.3,972.4
							C1906.3,972.4,1906.3,972.4,1906.3,972.4z"/>
						<path class="st6" d="M1116.3,1421.9L1116.3,1421.9c-1.1-5.3-6.4-8.8-11.7-7.6c0,0,0,0,0,0l0,0c-2.6,0.5-4.8,2.1-6.2,4.3
							c-1.4,2.2-1.9,4.9-1.4,7.5l0,0c1.1,5.3,6.4,8.8,11.7,7.6l0,0C1114,1432.5,1117.4,1427.2,1116.3,1421.9
							C1116.3,1421.9,1116.3,1421.9,1116.3,1421.9z"/>
						<path class="st7" d="M1116.3,1421.9L1116.3,1421.9c-1.1-5.3-6.4-8.8-11.7-7.6c0,0,0,0,0,0l0,0c-2.6,0.5-4.8,2.1-6.2,4.3
							c-1.4,2.2-1.9,4.9-1.4,7.5l0,0c1.1,5.3,6.4,8.8,11.7,7.6l0,0C1114,1432.5,1117.4,1427.2,1116.3,1421.9
							C1116.3,1421.9,1116.3,1421.9,1116.3,1421.9z"/>
						<path class="st8" d="M1125,1420L1125,1420c-2.1-10.2-12.1-16.7-22.3-14.6c0,0,0,0,0,0l0,0c-10.2,2.2-16.7,12.2-14.5,22.4l0,0
							c2.1,10.2,12.1,16.7,22.3,14.6c0,0,0,0,0,0l0,0C1120.7,1440.2,1127.2,1430.2,1125,1420z"/>
						<path class="st7" d="M1125,1420L1125,1420c-2.1-10.2-12.1-16.7-22.3-14.6c0,0,0,0,0,0l0,0c-10.2,2.2-16.7,12.2-14.5,22.4l0,0
							c2.1,10.2,12.1,16.7,22.3,14.6c0,0,0,0,0,0l0,0C1120.7,1440.2,1127.2,1430.2,1125,1420z"/>
						<path class="st8" d="M952.8,1555.7L952.8,1555.7c-0.9-4.4-5.3-7.2-9.7-6.3c0,0,0,0,0,0l0,0c-2.1,0.4-4,1.7-5.2,3.5
							c-1.2,1.8-1.6,4-1.1,6.2l0,0c0.9,4.4,5.3,7.2,9.7,6.3c0,0,0,0,0,0l0,0C951,1564.5,953.8,1560.1,952.8,1555.7z"/>
						<path class="st7" d="M952.8,1555.7L952.8,1555.7c-0.9-4.4-5.3-7.2-9.7-6.3c0,0,0,0,0,0l0,0c-2.1,0.4-4,1.7-5.2,3.5
							c-1.2,1.8-1.6,4-1.1,6.2l0,0c0.9,4.4,5.3,7.2,9.7,6.3c0,0,0,0,0,0l0,0C951,1564.5,953.8,1560.1,952.8,1555.7z"/>
						<path class="st8" d="M964.4,1553.3L964.4,1553.3c-2.3-10.8-12.9-17.8-23.8-15.5l0,0c-10.8,2.3-17.7,12.9-15.4,23.7
							c0,0,0,0.1,0,0.1l0,0c2.3,10.8,12.9,17.8,23.8,15.5l0,0C959.9,1574.8,966.8,1564.2,964.4,1553.3
							C964.5,1553.3,964.4,1553.3,964.4,1553.3z"/>
						<path class="st7" d="M964.4,1553.3L964.4,1553.3c-2.3-10.8-12.9-17.8-23.8-15.5l0,0c-10.8,2.3-17.7,12.9-15.4,23.7
							c0,0,0,0.1,0,0.1l0,0c2.3,10.8,12.9,17.8,23.8,15.5l0,0C959.9,1574.8,966.8,1564.2,964.4,1553.3
							C964.5,1553.3,964.4,1553.3,964.4,1553.3z"/>
						<path class="st6" d="M2128.4,1056.5L2128.4,1056.5c-2.7-5.4-9.3-7.5-14.7-4.8l0,0c-5.4,2.8-7.5,9.3-4.7,14.7l0,0
							c2.8,5.3,9.3,7.5,14.7,4.8l0,0C2129,1068.4,2131.1,1061.9,2128.4,1056.5C2128.4,1056.5,2128.4,1056.5,2128.4,1056.5z"/>
						<path class="st7" d="M2128.4,1056.5L2128.4,1056.5c-2.7-5.4-9.3-7.5-14.7-4.8l0,0c-5.4,2.8-7.5,9.3-4.7,14.7l0,0
							c2.8,5.3,9.3,7.5,14.7,4.8l0,0C2129,1068.4,2131.1,1061.9,2128.4,1056.5C2128.4,1056.5,2128.4,1056.5,2128.4,1056.5z"/>
						<path class="st8" d="M2142.4,1049.3L2142.4,1049.3c-6.7-13.2-22.8-18.4-36-11.7l0,0c-13.2,6.8-18.4,22.9-11.6,36.1l0,0
							c6.7,13.2,22.8,18.4,36,11.7c0,0,0,0,0,0l0,0C2144,1078.7,2149.2,1062.5,2142.4,1049.3
							C2142.4,1049.3,2142.4,1049.3,2142.4,1049.3z"/>
						<path class="st9" d="M2142.4,1049.3L2142.4,1049.3c-6.7-13.2-22.8-18.4-36-11.7l0,0c-13.2,6.8-18.4,22.9-11.6,36.1l0,0
							c6.7,13.2,22.8,18.4,36,11.7c0,0,0,0,0,0l0,0C2144,1078.7,2149.2,1062.5,2142.4,1049.3
							C2142.4,1049.3,2142.4,1049.3,2142.4,1049.3z"/>
						<path class="st6" d="M2054,987.5L2054,987.5c-1.9-3.6-6.3-5.1-10-3.3l0,0c-1.8,0.9-3.1,2.5-3.7,4.3c-0.6,1.9-0.4,3.9,0.5,5.7
							l0,0c1.9,3.6,6.3,5.1,10,3.3l0,0C2054.4,995.7,2055.9,991.2,2054,987.5z"/>
						<path class="st7" d="M2054,987.5L2054,987.5c-1.9-3.6-6.3-5.1-10-3.3l0,0c-1.8,0.9-3.1,2.5-3.7,4.3c-0.6,1.9-0.4,3.9,0.5,5.7
							l0,0c1.9,3.6,6.3,5.1,10,3.3l0,0C2054.4,995.7,2055.9,991.2,2054,987.5z"/>
						<path class="st8" d="M2062.6,983.1L2062.6,983.1c-4.3-8.5-14.6-11.8-23.1-7.5c0,0,0,0,0,0l0,0c-8.4,4.3-11.8,14.7-7.4,23.2
							c0,0,0,0,0,0l0,0c4.3,8.5,14.7,11.8,23.1,7.5l0,0C2063.6,1001.9,2067,991.5,2062.6,983.1z"/>
						<path class="st7" d="M2062.6,983.1L2062.6,983.1c-4.3-8.5-14.6-11.8-23.1-7.5c0,0,0,0,0,0l0,0c-8.4,4.3-11.8,14.7-7.4,23.2
							c0,0,0,0,0,0l0,0c4.3,8.5,14.7,11.8,23.1,7.5l0,0C2063.6,1001.9,2067,991.5,2062.6,983.1z"/>
						<path class="st6" d="M1188.2,1369.4L1188.2,1369.4c-1.6-3.2-5.5-4.5-8.7-2.8c0,0,0,0,0,0l0,0c-3.2,1.6-4.5,5.5-2.8,8.7
							c0,0,0,0,0,0l0,0c1.6,3.2,5.5,4.5,8.7,2.8l0,0C1188.5,1376.5,1189.8,1372.6,1188.2,1369.4z"/>
						<path class="st7" d="M1188.2,1369.4L1188.2,1369.4c-1.6-3.2-5.5-4.5-8.7-2.8c0,0,0,0,0,0l0,0c-3.2,1.6-4.5,5.5-2.8,8.7
							c0,0,0,0,0,0l0,0c1.6,3.2,5.5,4.5,8.7,2.8l0,0C1188.5,1376.5,1189.8,1372.6,1188.2,1369.4z"/>
						<path class="st8" d="M1199.5,1363.6L1199.5,1363.6c-4.8-9.5-16.4-13.3-25.9-8.5c0,0,0,0,0,0l0,0c-9.5,4.8-13.3,16.5-8.5,26
							c0,0,0,0,0,0l0,0c4.8,9.5,16.4,13.3,25.9,8.5c0,0,0,0,0,0l0,0C1200.6,1384.8,1204.4,1373.2,1199.5,1363.6
							C1199.6,1363.6,1199.6,1363.6,1199.5,1363.6z"/>
						<path class="st7" d="M1199.5,1363.6L1199.5,1363.6c-4.8-9.5-16.4-13.3-25.9-8.5c0,0,0,0,0,0l0,0c-9.5,4.8-13.3,16.5-8.5,26
							c0,0,0,0,0,0l0,0c4.8,9.5,16.4,13.3,25.9,8.5c0,0,0,0,0,0l0,0C1200.6,1384.8,1204.4,1373.2,1199.5,1363.6
							C1199.6,1363.6,1199.6,1363.6,1199.5,1363.6z"/>
						<path class="st8" d="M1323.4,1335.3L1323.4,1335.3c-2.7-5.4-9.3-7.5-14.7-4.8c0,0,0,0,0,0l0,0c-5.4,2.7-7.5,9.3-4.8,14.7
							c0,0,0,0,0,0l0,0c2.7,5.4,9.3,7.5,14.6,4.8c0,0,0,0,0,0l0,0C1324.1,1347.2,1326.2,1340.6,1323.4,1335.3z"/>
						<path class="st7" d="M1323.4,1335.3L1323.4,1335.3c-2.7-5.4-9.3-7.5-14.7-4.8c0,0,0,0,0,0l0,0c-5.4,2.7-7.5,9.3-4.8,14.7
							c0,0,0,0,0,0l0,0c2.7,5.4,9.3,7.5,14.6,4.8c0,0,0,0,0,0l0,0C1324.1,1347.2,1326.2,1340.6,1323.4,1335.3z"/>
						<path class="st8" d="M1337.5,1328.1L1337.5,1328.1c-6.7-13.2-22.8-18.5-36-11.9l0,0c-6.3,3.2-11.1,8.8-13.3,15.6
							c-2.2,6.8-1.6,14.1,1.6,20.5l0,0c6.7,13.2,22.8,18.5,36,11.9l0,0C1339,1357.5,1344.2,1341.3,1337.5,1328.1
							C1337.5,1328.2,1337.5,1328.1,1337.5,1328.1z"/>
						<path class="st7" d="M1337.5,1328.1L1337.5,1328.1c-6.7-13.2-22.8-18.5-36-11.9l0,0c-6.3,3.2-11.1,8.8-13.3,15.6
							c-2.2,6.8-1.6,14.1,1.6,20.5l0,0c6.7,13.2,22.8,18.5,36,11.9l0,0C1339,1357.5,1344.2,1341.3,1337.5,1328.1
							C1337.5,1328.2,1337.5,1328.1,1337.5,1328.1z"/>
						<path class="st8" d="M1385.4,1275.6L1385.4,1275.6c-1.7-3.5-5.9-4.8-9.4-3.1c0,0,0,0,0,0l0,0c-3.5,1.7-4.9,5.9-3.1,9.4
							c0,0,0,0,0,0l0,0c1.7,3.5,5.9,4.8,9.4,3.1c0,0,0,0,0,0l0,0C1385.8,1283.3,1387.2,1279.1,1385.4,1275.6
							C1385.4,1275.6,1385.4,1275.6,1385.4,1275.6z"/>
						<path class="st7" d="M1385.4,1275.6L1385.4,1275.6c-1.7-3.5-5.9-4.8-9.4-3.1c0,0,0,0,0,0l0,0c-3.5,1.7-4.9,5.9-3.1,9.4
							c0,0,0,0,0,0l0,0c1.7,3.5,5.9,4.8,9.4,3.1c0,0,0,0,0,0l0,0C1385.8,1283.3,1387.2,1279.1,1385.4,1275.6
							C1385.4,1275.6,1385.4,1275.6,1385.4,1275.6z"/>
						<path class="st8" d="M1394.5,1271L1394.5,1271c-4.3-8.5-14.6-11.9-23.1-7.6c0,0,0,0,0,0l0,0c-4.1,2.1-7.1,5.7-8.5,10
							c-1.4,4.3-1.1,9.1,1,13.2l0,0c4.3,8.5,14.6,11.9,23.1,7.6l0,0C1395.5,1289.9,1398.9,1279.5,1394.5,1271
							C1394.6,1271,1394.6,1271,1394.5,1271z"/>
						<path class="st7" d="M1394.5,1271L1394.5,1271c-4.3-8.5-14.6-11.9-23.1-7.6c0,0,0,0,0,0l0,0c-4.1,2.1-7.1,5.7-8.5,10
							c-1.4,4.3-1.1,9.1,1,13.2l0,0c4.3,8.5,14.6,11.9,23.1,7.6l0,0C1395.5,1289.9,1398.9,1279.5,1394.5,1271
							C1394.6,1271,1394.6,1271,1394.5,1271z"/>
						<path class="st6" d="M1348.8,1215.7L1348.8,1215.7c-2.7-5.4-9.3-7.5-14.7-4.8c0,0,0,0,0,0l0,0c-5.4,2.7-7.5,9.3-4.8,14.7
							c0,0,0,0,0,0l0,0c2.7,5.4,9.3,7.5,14.7,4.8c0,0,0,0,0,0l0,0C1349.4,1227.6,1351.5,1221.1,1348.8,1215.7z"/>
						<path class="st7" d="M1348.8,1215.7L1348.8,1215.7c-2.7-5.4-9.3-7.5-14.7-4.8c0,0,0,0,0,0l0,0c-5.4,2.7-7.5,9.3-4.8,14.7
							c0,0,0,0,0,0l0,0c2.7,5.4,9.3,7.5,14.7,4.8c0,0,0,0,0,0l0,0C1349.4,1227.6,1351.5,1221.1,1348.8,1215.7z"/>
						<path class="st8" d="M1362.9,1208.6L1362.9,1208.6c-6.6-13.2-22.8-18.6-36-11.9c0,0,0,0,0,0l0,0c-6.3,3.2-11.1,8.8-13.3,15.5
							c-2.2,6.8-1.6,14.1,1.6,20.5l0,0c6.7,13.2,22.8,18.5,36,11.9c0,0,0,0,0,0l0,0C1364.4,1237.9,1369.6,1221.8,1362.9,1208.6
							C1362.9,1208.6,1362.9,1208.6,1362.9,1208.6z"/>
						<path class="st11" d="M1362.9,1208.6L1362.9,1208.6c-6.6-13.2-22.8-18.6-36-11.9c0,0,0,0,0,0l0,0c-6.3,3.2-11.1,8.8-13.3,15.5
							c-2.2,6.8-1.6,14.1,1.6,20.5l0,0c6.7,13.2,22.8,18.5,36,11.9c0,0,0,0,0,0l0,0C1364.4,1237.9,1369.6,1221.8,1362.9,1208.6
							C1362.9,1208.6,1362.9,1208.6,1362.9,1208.6z"/>
						<path class="st6" d="M1461,1175.3L1461,1175.3c-1.9-3.7-6.4-5.2-10.2-3.3l0,0c-1.8,0.9-3.1,2.5-3.8,4.4
							c-0.6,1.9-0.5,4,0.4,5.8l0,0c1.9,3.7,6.4,5.2,10.2,3.3l0,0C1461.4,1183.5,1462.9,1179,1461,1175.3z"/>
						<path class="st7" d="M1461,1175.3L1461,1175.3c-1.9-3.7-6.4-5.2-10.2-3.3l0,0c-1.8,0.9-3.1,2.5-3.8,4.4
							c-0.6,1.9-0.5,4,0.4,5.8l0,0c1.9,3.7,6.4,5.2,10.2,3.3l0,0C1461.4,1183.5,1462.9,1179,1461,1175.3z"/>
						<path class="st8" d="M1474.2,1168.6L1474.2,1168.6c-5.6-11-19-15.5-30.1-9.9c0,0,0,0,0,0l0,0c-11,5.6-15.4,19.1-9.8,30.1l0,0
							c5.6,11,19,15.5,30.1,9.9c0,0,0,0,0.1,0l0,0C1475.4,1193.1,1479.8,1179.6,1474.2,1168.6z"/>
						<path class="st7" d="M1474.2,1168.6L1474.2,1168.6c-5.6-11-19-15.5-30.1-9.9c0,0,0,0,0,0l0,0c-11,5.6-15.4,19.1-9.8,30.1l0,0
							c5.6,11,19,15.5,30.1,9.9c0,0,0,0,0.1,0l0,0C1475.4,1193.1,1479.8,1179.6,1474.2,1168.6z"/>
						<path class="st6" d="M1582.7,1113.6L1582.7,1113.6c-2.9-5.7-9.8-7.9-15.4-5.1l0,0c-5.6,2.8-7.9,9.7-5,15.3c0,0,0,0.1,0,0.1
							l0,0c2.9,5.7,9.8,7.9,15.4,5.1l0,0C1583.4,1126.1,1585.6,1119.2,1582.7,1113.6C1582.7,1113.6,1582.7,1113.6,1582.7,1113.6z"/>
						<path class="st7" d="M1582.7,1113.6L1582.7,1113.6c-2.9-5.7-9.8-7.9-15.4-5.1l0,0c-5.6,2.8-7.9,9.7-5,15.3c0,0,0,0.1,0,0.1
							l0,0c2.9,5.7,9.8,7.9,15.4,5.1l0,0C1583.4,1126.1,1585.6,1119.2,1582.7,1113.6C1582.7,1113.6,1582.7,1113.6,1582.7,1113.6z"/>
						<path class="st8" d="M1591.9,1108.9L1591.9,1108.9c-5.4-10.8-18.5-15.1-29.3-9.7c0,0,0,0,0,0l0,0c-10.7,5.5-15,18.6-9.5,29.4
							l0,0c5.4,10.8,18.6,15.1,29.3,9.7l0,0C1593.1,1132.8,1597.4,1119.6,1591.9,1108.9z"/>
						<path class="st7" d="M1591.9,1108.9L1591.9,1108.9c-5.4-10.8-18.5-15.1-29.3-9.7c0,0,0,0,0,0l0,0c-10.7,5.5-15,18.6-9.5,29.4
							l0,0c5.4,10.8,18.6,15.1,29.3,9.7l0,0C1593.1,1132.8,1597.4,1119.6,1591.9,1108.9z"/>
						<path class="st6" d="M1830.2,920.1L1830.2,920.1c-4.8-6-13.5-7-19.6-2.2l0,0c-6,4.8-7,13.5-2.2,19.6l0,0
							c4.8,6,13.5,7,19.5,2.2c0,0,0,0,0,0l0,0C1834,934.9,1835,926.1,1830.2,920.1z"/>
						<path class="st7" d="M1830.2,920.1L1830.2,920.1c-4.8-6-13.5-7-19.6-2.2l0,0c-6,4.8-7,13.5-2.2,19.6l0,0
							c4.8,6,13.5,7,19.5,2.2c0,0,0,0,0,0l0,0C1834,934.9,1835,926.1,1830.2,920.1z"/>
						<path class="st6" d="M2260.5,690.1L2260.5,690.1c-4.8-6-13.5-7-19.6-2.2c0,0,0,0,0,0l0,0c-6,4.8-7,13.5-2.2,19.6c0,0,0,0,0,0
							l0,0c4.8,6,13.5,7,19.6,2.2l0,0C2264.3,704.9,2265.3,696.1,2260.5,690.1C2260.5,690.1,2260.5,690.1,2260.5,690.1z"/>
						<path class="st7" d="M2260.5,690.1L2260.5,690.1c-4.8-6-13.5-7-19.6-2.2c0,0,0,0,0,0l0,0c-6,4.8-7,13.5-2.2,19.6c0,0,0,0,0,0
							l0,0c4.8,6,13.5,7,19.6,2.2l0,0C2264.3,704.9,2265.3,696.1,2260.5,690.1C2260.5,690.1,2260.5,690.1,2260.5,690.1z"/>
						<path class="st6" d="M1611,1184.7L1611,1184.7c-3.5-6.8-11.9-9.5-18.8-6l0,0c-6.8,3.5-9.5,11.9-6,18.7l0,0
							c3.5,6.8,11.9,9.6,18.8,6.1l0,0C1611.9,1200,1614.6,1191.6,1611,1184.7C1611,1184.7,1611,1184.7,1611,1184.7z"/>
						<path class="st7" d="M1611,1184.7L1611,1184.7c-3.5-6.8-11.9-9.5-18.8-6l0,0c-6.8,3.5-9.5,11.9-6,18.7l0,0
							c3.5,6.8,11.9,9.6,18.8,6.1l0,0C1611.9,1200,1614.6,1191.6,1611,1184.7C1611,1184.7,1611,1184.7,1611,1184.7z"/>
						<path class="st6" d="M2079.8,1044.2L2079.8,1044.2c-3.5-6.8-11.9-9.6-18.7-6.1l0,0c-6.8,3.5-9.5,11.9-6,18.8l0,0
							c3.5,6.8,11.9,9.5,18.7,6l0,0C2080.6,1059.4,2083.3,1051.1,2079.8,1044.2z"/>
						<path class="st7" d="M2079.8,1044.2L2079.8,1044.2c-3.5-6.8-11.9-9.6-18.7-6.1l0,0c-6.8,3.5-9.5,11.9-6,18.8l0,0
							c3.5,6.8,11.9,9.5,18.7,6l0,0C2080.6,1059.4,2083.3,1051.1,2079.8,1044.2z"/>
						<path class="st6" d="M1145.6,1318.7L1145.6,1318.7c-3.5-6.9-11.8-9.6-18.7-6.1c0,0,0,0,0,0l0,0c-6.9,3.5-9.6,11.9-6.1,18.7
							c0,0,0,0,0,0l0,0c3.5,6.9,11.8,9.7,18.7,6.2c0,0,0,0,0,0l0,0C1146.3,1334,1149.1,1325.6,1145.6,1318.7
							C1145.6,1318.7,1145.6,1318.7,1145.6,1318.7z"/>
						<path class="st7" d="M1145.6,1318.7L1145.6,1318.7c-3.5-6.9-11.8-9.6-18.7-6.1c0,0,0,0,0,0l0,0c-6.9,3.5-9.6,11.9-6.1,18.7
							c0,0,0,0,0,0l0,0c3.5,6.9,11.8,9.7,18.7,6.2c0,0,0,0,0,0l0,0C1146.3,1334,1149.1,1325.6,1145.6,1318.7
							C1145.6,1318.7,1145.6,1318.7,1145.6,1318.7z"/>
						<path class="st6" d="M1762.4,1150.5L1762.4,1150.5c-2.5-4.9-8.5-6.9-13.4-4.4c0,0,0,0,0,0l0,0c-4.9,2.5-6.9,8.5-4.4,13.4
							c0,0,0,0,0,0l0,0c2.5,4.9,8.5,6.9,13.4,4.4c0,0,0,0,0,0l0,0C1763,1161.5,1765,1155.5,1762.4,1150.5
							C1762.4,1150.5,1762.4,1150.5,1762.4,1150.5z"/>
						<path class="st7" d="M1762.4,1150.5L1762.4,1150.5c-2.5-4.9-8.5-6.9-13.4-4.4c0,0,0,0,0,0l0,0c-4.9,2.5-6.9,8.5-4.4,13.4
							c0,0,0,0,0,0l0,0c2.5,4.9,8.5,6.9,13.4,4.4c0,0,0,0,0,0l0,0C1763,1161.5,1765,1155.5,1762.4,1150.5
							C1762.4,1150.5,1762.4,1150.5,1762.4,1150.5z"/>
						<path class="st6" d="M1186.2,1505.9L1186.2,1505.9c-1.1-5.4-6.4-8.9-11.8-7.7c0,0,0,0-0.1,0l0,0c-5.4,1.1-8.9,6.4-7.7,11.8
							c0,0,0,0,0,0.1l0,0c1.1,5.4,6.4,8.9,11.8,7.7c0,0,0,0,0.1,0l0,0C1183.9,1516.7,1187.3,1511.4,1186.2,1505.9
							C1186.2,1506,1186.2,1505.9,1186.2,1505.9z"/>
						<path class="st7" d="M1186.2,1505.9L1186.2,1505.9c-1.1-5.4-6.4-8.9-11.8-7.7c0,0,0,0-0.1,0l0,0c-5.4,1.1-8.9,6.4-7.7,11.8
							c0,0,0,0,0,0.1l0,0c1.1,5.4,6.4,8.9,11.8,7.7c0,0,0,0,0.1,0l0,0C1183.9,1516.7,1187.3,1511.4,1186.2,1505.9
							C1186.2,1506,1186.2,1505.9,1186.2,1505.9z"/>
						<path class="st6" d="M2006.6,1014.3L2006.6,1014.3c-3.2-6.3-11-8.9-17.4-5.6l0,0c-6.3,3.2-8.9,11-5.6,17.4c0,0,0,0,0,0l0,0
							c3.2,6.3,11,8.9,17.3,5.6c0,0,0,0,0,0l0,0C2007.3,1028.4,2009.8,1020.6,2006.6,1014.3z"/>
						<path class="st7" d="M2006.6,1014.3L2006.6,1014.3c-3.2-6.3-11-8.9-17.4-5.6l0,0c-6.3,3.2-8.9,11-5.6,17.4c0,0,0,0,0,0l0,0
							c3.2,6.3,11,8.9,17.3,5.6c0,0,0,0,0,0l0,0C2007.3,1028.4,2009.8,1020.6,2006.6,1014.3z"/>
						<path class="st6" d="M1965.9,861.2L1965.9,861.2c-3.9-4.9-11.2-5.8-16.1-1.8l0,0c-4.9,4-5.8,11.2-1.8,16.1l0,0
							c3.9,4.9,11.2,5.8,16.1,1.8l0,0C1969,873.4,1969.8,866.1,1965.9,861.2z"/>
						<path class="st7" d="M1965.9,861.2L1965.9,861.2c-3.9-4.9-11.2-5.8-16.1-1.8l0,0c-4.9,4-5.8,11.2-1.8,16.1l0,0
							c3.9,4.9,11.2,5.8,16.1,1.8l0,0C1969,873.4,1969.8,866.1,1965.9,861.2z"/>
						<path class="st6" d="M1091.1,1573.8L1091.1,1573.8c-1-4.9-5.8-8-10.6-7c0,0-0.1,0-0.1,0l0,0c-4.9,1-8,5.8-7,10.7
							c0,0,0,0.1,0,0.1l0,0c1,4.9,5.8,8,10.6,7c0,0,0.1,0,0.1,0l0,0C1089.1,1583.5,1092.2,1578.7,1091.1,1573.8
							C1091.2,1573.9,1091.1,1573.8,1091.1,1573.8z"/>
						<path class="st7" d="M1091.1,1573.8L1091.1,1573.8c-1-4.9-5.8-8-10.6-7c0,0-0.1,0-0.1,0l0,0c-4.9,1-8,5.8-7,10.7
							c0,0,0,0.1,0,0.1l0,0c1,4.9,5.8,8,10.6,7c0,0,0.1,0,0.1,0l0,0C1089.1,1583.5,1092.2,1578.7,1091.1,1573.8
							C1091.2,1573.9,1091.1,1573.8,1091.1,1573.8z"/>
						<path class="st6" d="M1219.3,1424.4L1219.3,1424.4c-1-4.9-5.7-8-10.6-7c0,0-0.1,0-0.1,0l0,0c-4.9,1-8,5.8-7,10.7
							c0,0,0,0.1,0,0.1l0,0c1,4.9,5.7,8,10.6,7c0,0,0.1,0,0.1,0l0,0C1217.2,1434.1,1220.4,1429.3,1219.3,1424.4z"/>
						<path class="st7" d="M1219.3,1424.4L1219.3,1424.4c-1-4.9-5.7-8-10.6-7c0,0-0.1,0-0.1,0l0,0c-4.9,1-8,5.8-7,10.7
							c0,0,0,0.1,0,0.1l0,0c1,4.9,5.7,8,10.6,7c0,0,0.1,0,0.1,0l0,0C1217.2,1434.1,1220.4,1429.3,1219.3,1424.4z"/>
						<path class="st6" d="M1965,913.2L1965,913.2c-2.6-3.3-7.5-3.9-10.8-1.2l0,0c-3.3,2.6-3.8,7.5-1.2,10.8l0,0
							c2.6,3.3,7.4,3.9,10.8,1.2c0,0,0,0,0,0l0,0C1967.1,921.3,1967.7,916.5,1965,913.2z"/>
						<path class="st7" d="M1965,913.2L1965,913.2c-2.6-3.3-7.5-3.9-10.8-1.2l0,0c-3.3,2.6-3.8,7.5-1.2,10.8l0,0
							c2.6,3.3,7.4,3.9,10.8,1.2c0,0,0,0,0,0l0,0C1967.1,921.3,1967.7,916.5,1965,913.2z"/>
						<path class="st6" d="M2197.2,793L2197.2,793c-2.6-3.3-7.5-3.8-10.8-1.2l0,0c-3.3,2.6-3.8,7.5-1.2,10.8l0,0
							c2.6,3.3,7.5,3.8,10.8,1.2l0,0C2199.3,801.1,2199.8,796.3,2197.2,793z"/>
						<path class="st7" d="M2197.2,793L2197.2,793c-2.6-3.3-7.5-3.8-10.8-1.2l0,0c-3.3,2.6-3.8,7.5-1.2,10.8l0,0
							c2.6,3.3,7.5,3.8,10.8,1.2l0,0C2199.3,801.1,2199.8,796.3,2197.2,793z"/>
						<path class="st6" d="M2248.9,606.3L2248.9,606.3c-2.6-3.3-7.4-3.8-10.7-1.2c0,0,0,0,0,0l0,0c-3.3,2.6-3.9,7.4-1.2,10.7
							c0,0,0,0,0,0l0,0c2.6,3.3,7.4,3.8,10.7,1.2c0,0,0,0,0,0l0,0C2251,614.4,2251.5,609.6,2248.9,606.3
							C2248.9,606.3,2248.9,606.3,2248.9,606.3z"/>
						<path class="st7" d="M2248.9,606.3L2248.9,606.3c-2.6-3.3-7.4-3.8-10.7-1.2c0,0,0,0,0,0l0,0c-3.3,2.6-3.9,7.4-1.2,10.7
							c0,0,0,0,0,0l0,0c2.6,3.3,7.4,3.8,10.7,1.2c0,0,0,0,0,0l0,0C2251,614.4,2251.5,609.6,2248.9,606.3
							C2248.9,606.3,2248.9,606.3,2248.9,606.3z"/>
						<path class="st6" d="M1745.4,1200.4L1745.4,1200.4c-1.9-3.8-6.5-5.3-10.3-3.3c0,0,0,0,0,0l0,0c-3.8,1.9-5.3,6.5-3.4,10.3
							c0,0,0,0,0,0l0,0c1.9,3.8,6.5,5.3,10.3,3.3c0,0,0,0,0,0l0,0C1745.9,1208.8,1747.4,1204.2,1745.4,1200.4
							C1745.4,1200.5,1745.4,1200.5,1745.4,1200.4z"/>
						<path class="st7" d="M1745.4,1200.4L1745.4,1200.4c-1.9-3.8-6.5-5.3-10.3-3.3c0,0,0,0,0,0l0,0c-3.8,1.9-5.3,6.5-3.4,10.3
							c0,0,0,0,0,0l0,0c1.9,3.8,6.5,5.3,10.3,3.3c0,0,0,0,0,0l0,0C1745.9,1208.8,1747.4,1204.2,1745.4,1200.4
							C1745.4,1200.5,1745.4,1200.5,1745.4,1200.4z"/>
						<path class="st6" d="M1963.7,1119.5L1963.7,1119.5c-1.9-3.8-6.5-5.3-10.3-3.3l0,0c-3.8,1.9-5.3,6.5-3.3,10.3c0,0,0,0,0,0l0,0
							c1.9,3.8,6.5,5.3,10.3,3.3l0,0C1964.2,1127.9,1965.7,1123.3,1963.7,1119.5C1963.7,1119.5,1963.7,1119.5,1963.7,1119.5z"/>
						<path class="st7" d="M1963.7,1119.5L1963.7,1119.5c-1.9-3.8-6.5-5.3-10.3-3.3l0,0c-3.8,1.9-5.3,6.5-3.3,10.3c0,0,0,0,0,0l0,0
							c1.9,3.8,6.5,5.3,10.3,3.3l0,0C1964.2,1127.9,1965.7,1123.3,1963.7,1119.5C1963.7,1119.5,1963.7,1119.5,1963.7,1119.5z"/>
						<path class="st6" d="M1266.4,1315.1L1266.4,1315.1c-1.9-3.8-6.5-5.3-10.3-3.4c0,0,0,0,0,0l0,0c-3.8,1.9-5.3,6.5-3.4,10.3l0,0
							c1.9,3.8,6.5,5.3,10.3,3.4l0,0C1266.8,1323.4,1268.3,1318.8,1266.4,1315.1z"/>
						<path class="st7" d="M1266.4,1315.1L1266.4,1315.1c-1.9-3.8-6.5-5.3-10.3-3.4c0,0,0,0,0,0l0,0c-3.8,1.9-5.3,6.5-3.4,10.3l0,0
							c1.9,3.8,6.5,5.3,10.3,3.4l0,0C1266.8,1323.4,1268.3,1318.8,1266.4,1315.1z"/>
						<path class="st6" d="M1058.2,1547.5L1058.2,1547.5c-1.2-5.4-6.4-8.8-11.8-7.6l0,0c-5.4,1.1-8.8,6.4-7.6,11.8c0,0,0,0,0,0l0,0
							c1.1,5.3,6.4,8.8,11.7,7.6c0,0,0,0,0,0l0,0C1055.9,1558.1,1059.4,1552.9,1058.2,1547.5
							C1058.2,1547.5,1058.2,1547.5,1058.2,1547.5z"/>
						<path class="st7" d="M1058.2,1547.5L1058.2,1547.5c-1.2-5.4-6.4-8.8-11.8-7.6l0,0c-5.4,1.1-8.8,6.4-7.6,11.8c0,0,0,0,0,0l0,0
							c1.1,5.3,6.4,8.8,11.7,7.6c0,0,0,0,0,0l0,0C1055.9,1558.1,1059.4,1552.9,1058.2,1547.5
							C1058.2,1547.5,1058.2,1547.5,1058.2,1547.5z"/>
						<path class="st6" d="M651.2,1615L651.2,1615c-1.1-5.4-6.4-8.8-11.8-7.6c0,0,0,0,0,0l0,0c-5.4,1.1-8.8,6.4-7.6,11.8
							c0,0,0,0,0,0l0,0c1.1,5.3,6.4,8.8,11.7,7.6c0,0,0,0,0,0l0,0C649,1625.7,652.4,1620.4,651.2,1615
							C651.2,1615.1,651.2,1615.1,651.2,1615z"/>
						<path class="st7" d="M651.2,1615L651.2,1615c-1.1-5.4-6.4-8.8-11.8-7.6c0,0,0,0,0,0l0,0c-5.4,1.1-8.8,6.4-7.6,11.8
							c0,0,0,0,0,0l0,0c1.1,5.3,6.4,8.8,11.7,7.6c0,0,0,0,0,0l0,0C649,1625.7,652.4,1620.4,651.2,1615
							C651.2,1615.1,651.2,1615.1,651.2,1615z"/>
						<path class="st6" d="M1134.3,1530.3L1134.3,1530.3c-0.7-3.3-4-5.4-7.3-4.7l0,0c-3.3,0.7-5.4,4-4.7,7.3c0,0,0,0,0,0l0,0
							c0.7,3.3,4,5.4,7.3,4.7c0,0,0,0,0,0l0,0C1132.9,1536.9,1135.1,1533.6,1134.3,1530.3z"/>
						<path class="st7" d="M1134.3,1530.3L1134.3,1530.3c-0.7-3.3-4-5.4-7.3-4.7l0,0c-3.3,0.7-5.4,4-4.7,7.3c0,0,0,0,0,0l0,0
							c0.7,3.3,4,5.4,7.3,4.7c0,0,0,0,0,0l0,0C1132.9,1536.9,1135.1,1533.6,1134.3,1530.3z"/>
						<path class="st6" d="M2156.7,779.9L2156.7,779.9c-3.4-4.3-9.6-5-13.9-1.6l0,0c-4.3,3.4-5,9.6-1.6,13.9c0,0,0,0,0,0l0,0
							c3.4,4.3,9.6,5,13.9,1.6l0,0C2159.4,790.4,2160.1,784.2,2156.7,779.9z"/>
						<path class="st7" d="M2156.7,779.9L2156.7,779.9c-3.4-4.3-9.6-5-13.9-1.6l0,0c-4.3,3.4-5,9.6-1.6,13.9c0,0,0,0,0,0l0,0
							c3.4,4.3,9.6,5,13.9,1.6l0,0C2159.4,790.4,2160.1,784.2,2156.7,779.9z"/>
						<path class="st6" d="M2225.4,734.7L2225.4,734.7c-2.3-2.8-6.4-3.3-9.2-1l0,0c-2.8,2.2-3.3,6.3-1,9.2c0,0,0,0,0,0l0,0
							c2.3,2.8,6.4,3.3,9.2,1c0,0,0,0,0,0l0,0C2227.2,741.7,2227.6,737.6,2225.4,734.7z"/>
						<path class="st7" d="M2225.4,734.7L2225.4,734.7c-2.3-2.8-6.4-3.3-9.2-1l0,0c-2.8,2.2-3.3,6.3-1,9.2c0,0,0,0,0,0l0,0
							c2.3,2.8,6.4,3.3,9.2,1c0,0,0,0,0,0l0,0C2227.2,741.7,2227.6,737.6,2225.4,734.7z"/>
						<path class="st6" d="M1601.8,1303.2L1601.8,1303.2c-2.5-4.9-8.5-6.8-13.3-4.3c0,0,0,0,0,0l0,0c-4.9,2.5-6.8,8.5-4.3,13.3
							c0,0,0,0,0,0l0,0c2.5,4.9,8.5,6.8,13.3,4.3c0,0,0,0,0,0l0,0C1602.4,1314,1604.3,1308.1,1601.8,1303.2
							C1601.8,1303.2,1601.8,1303.2,1601.8,1303.2z"/>
						<path class="st7" d="M1601.8,1303.2L1601.8,1303.2c-2.5-4.9-8.5-6.8-13.3-4.3c0,0,0,0,0,0l0,0c-4.9,2.5-6.8,8.5-4.3,13.3
							c0,0,0,0,0,0l0,0c2.5,4.9,8.5,6.8,13.3,4.3c0,0,0,0,0,0l0,0C1602.4,1314,1604.3,1308.1,1601.8,1303.2
							C1601.8,1303.2,1601.8,1303.2,1601.8,1303.2z"/>
						<path class="st6" d="M2042.2,1082.8L2042.2,1082.8c-3.2-6.3-11-8.9-17.4-5.6l0,0c-6.3,3.2-8.9,11-5.6,17.4c0,0,0,0,0,0l0,0
							c3.2,6.3,11,8.9,17.4,5.6c0,0,0,0,0,0l0,0C2043,1096.9,2045.5,1089.1,2042.2,1082.8z"/>
						<path class="st7" d="M2042.2,1082.8L2042.2,1082.8c-3.2-6.3-11-8.9-17.4-5.6l0,0c-6.3,3.2-8.9,11-5.6,17.4c0,0,0,0,0,0l0,0
							c3.2,6.3,11,8.9,17.4,5.6c0,0,0,0,0,0l0,0C2043,1096.9,2045.5,1089.1,2042.2,1082.8z"/>
						<path class="st6" d="M1096.7,1385.1L1096.7,1385.1c-2.7-5.4-9.3-7.5-14.7-4.8l0,0c-5.4,2.7-7.5,9.3-4.8,14.7c0,0,0,0,0,0l0,0
							c2.7,5.4,9.3,7.5,14.7,4.8l0,0C1097.3,1397.1,1099.4,1390.5,1096.7,1385.1C1096.7,1385.1,1096.7,1385.1,1096.7,1385.1z"/>
						<path class="st7" d="M1096.7,1385.1L1096.7,1385.1c-2.7-5.4-9.3-7.5-14.7-4.8l0,0c-5.4,2.7-7.5,9.3-4.8,14.7c0,0,0,0,0,0l0,0
							c2.7,5.4,9.3,7.5,14.7,4.8l0,0C1097.3,1397.1,1099.4,1390.5,1096.7,1385.1C1096.7,1385.1,1096.7,1385.1,1096.7,1385.1z"/>
						<path class="st6" d="M2115.1,960.3L2115.1,960.3c-2.4-4.7-8.2-6.6-12.9-4.2l0,0c-4.7,2.4-6.6,8.2-4.1,12.9l0,0
							c2.4,4.7,8.2,6.6,12.9,4.1l0,0C2115.6,970.8,2117.5,965,2115.1,960.3C2115.1,960.3,2115.1,960.3,2115.1,960.3z"/>
						<path class="st7" d="M2115.1,960.3L2115.1,960.3c-2.4-4.7-8.2-6.6-12.9-4.2l0,0c-4.7,2.4-6.6,8.2-4.1,12.9l0,0
							c2.4,4.7,8.2,6.6,12.9,4.1l0,0C2115.6,970.8,2117.5,965,2115.1,960.3C2115.1,960.3,2115.1,960.3,2115.1,960.3z"/>
						<path class="st6" d="M1285.7,1267.3L1285.7,1267.3c-3.5-6.8-11.8-9.5-18.5-6l0,0c-6.8,3.5-9.5,11.8-6,18.5l0,0
							c3.5,6.8,11.8,9.5,18.5,6l0,0C1286.5,1282.4,1289.2,1274.1,1285.7,1267.3z"/>
						<path class="st7" d="M1285.7,1267.3L1285.7,1267.3c-3.5-6.8-11.8-9.5-18.5-6l0,0c-6.8,3.5-9.5,11.8-6,18.5l0,0
							c3.5,6.8,11.8,9.5,18.5,6l0,0C1286.5,1282.4,1289.2,1274.1,1285.7,1267.3z"/>
						<path class="st6" d="M1103.6,1292.5L1103.6,1292.5c-0.4-4.4-4.3-7.6-8.7-7.2c0,0,0,0,0,0l0,0c-4.4,0.4-7.6,4.3-7.2,8.7
							c0,0,0,0,0,0l0,0c0.4,4.4,4.3,7.6,8.7,7.2c0,0,0,0,0,0l0,0C1100.8,1300.8,1104,1296.9,1103.6,1292.5
							C1103.6,1292.5,1103.6,1292.5,1103.6,1292.5z"/>
						<path class="st7" d="M1103.6,1292.5L1103.6,1292.5c-0.4-4.4-4.3-7.6-8.7-7.2c0,0,0,0,0,0l0,0c-4.4,0.4-7.6,4.3-7.2,8.7
							c0,0,0,0,0,0l0,0c0.4,4.4,4.3,7.6,8.7,7.2c0,0,0,0,0,0l0,0C1100.8,1300.8,1104,1296.9,1103.6,1292.5
							C1103.6,1292.5,1103.6,1292.5,1103.6,1292.5z"/>
						<path class="st6" d="M1482.6,1236.8L1482.6,1236.8c-2.5-4.9-8.4-6.8-13.3-4.3c0,0,0,0,0,0l0,0c-4.9,2.5-6.8,8.4-4.3,13.3l0,0
							c2.5,4.9,8.4,6.8,13.3,4.3c0,0,0,0,0,0l0,0C1483.1,1247.6,1485.1,1241.7,1482.6,1236.8
							C1482.6,1236.8,1482.6,1236.8,1482.6,1236.8z"/>
						<path class="st7" d="M1482.6,1236.8L1482.6,1236.8c-2.5-4.9-8.4-6.8-13.3-4.3c0,0,0,0,0,0l0,0c-4.9,2.5-6.8,8.4-4.3,13.3l0,0
							c2.5,4.9,8.4,6.8,13.3,4.3c0,0,0,0,0,0l0,0C1483.1,1247.6,1485.1,1241.7,1482.6,1236.8
							C1482.6,1236.8,1482.6,1236.8,1482.6,1236.8z"/>
						<path class="st6" d="M1546.1,1197.9L1546.1,1197.9c-1.6-3.2-5.5-4.5-8.7-2.8l0,0c-3.2,1.6-4.5,5.5-2.8,8.7l0,0
							c1.6,3.2,5.5,4.5,8.7,2.8l0,0C1546.4,1205,1547.7,1201.1,1546.1,1197.9z"/>
						<path class="st7" d="M1546.1,1197.9L1546.1,1197.9c-1.6-3.2-5.5-4.5-8.7-2.8l0,0c-3.2,1.6-4.5,5.5-2.8,8.7l0,0
							c1.6,3.2,5.5,4.5,8.7,2.8l0,0C1546.4,1205,1547.7,1201.1,1546.1,1197.9z"/>
						<path class="st6" d="M1479.6,1098.9L1479.6,1098.9c-4.5-9-15.5-12.5-24.4-8l0,0c-9,4.5-12.5,15.5-8,24.4c0,0,0,0,0,0l0,0
							c4.5,9,15.5,12.5,24.4,8l0,0C1480.6,1118.8,1484.2,1107.8,1479.6,1098.9z"/>
						<path class="st7" d="M1479.6,1098.9L1479.6,1098.9c-4.5-9-15.5-12.5-24.4-8l0,0c-9,4.5-12.5,15.5-8,24.4c0,0,0,0,0,0l0,0
							c4.5,9,15.5,12.5,24.4,8l0,0C1480.6,1118.8,1484.2,1107.8,1479.6,1098.9z"/>
						<line class="st12" x1="964.4" y1="1553.3" x2="1031.8" y2="1511.9"/>
						<line class="st7" x1="964.4" y1="1553.3" x2="1031.8" y2="1511.9"/>
						<line class="st12" x1="920.1" y1="1473.9" x2="907.6" y2="1461.1"/>
						<line class="st7" x1="920.1" y1="1473.9" x2="907.6" y2="1461.1"/>
						<line class="st12" x1="940.7" y1="1537.8" x2="931.4" y2="1526.4"/>
						<line class="st7" x1="940.7" y1="1537.8" x2="931.4" y2="1526.4"/>
						<line class="st12" x1="899.6" y1="1505.7" x2="882.2" y2="1512.6"/>
						<line class="st7" x1="899.6" y1="1505.7" x2="882.2" y2="1512.6"/>
						<line class="st12" x1="1186.2" y1="1505.9" x2="1237.8" y2="1472.1"/>
						<line class="st7" x1="1186.2" y1="1505.9" x2="1237.8" y2="1472.1"/>
						<line class="st12" x1="1058.2" y1="1547.5" x2="1122.3" y2="1532.9"/>
						<line class="st7" x1="1058.2" y1="1547.5" x2="1122.3" y2="1532.9"/>
						<line class="st12" x1="1056.8" y1="1555" x2="1080.4" y2="1566.9"/>
						<line class="st7" x1="1056.8" y1="1555" x2="1080.4" y2="1566.9"/>
						<line class="st12" x1="1072.4" y1="1483.8" x2="1122.3" y2="1532.9"/>
						<line class="st7" x1="1072.4" y1="1483.8" x2="1122.3" y2="1532.9"/>
						<line class="st12" x1="1125" y1="1420" x2="1201.6" y2="1428.2"/>
						<line class="st7" x1="1125" y1="1420" x2="1201.6" y2="1428.2"/>
						<line class="st12" x1="1278.5" y1="1444" x2="1312.3" y2="1369.8"/>
						<line class="st7" x1="1278.5" y1="1444" x2="1312.3" y2="1369.8"/>
						<line class="st12" x1="1833.2" y1="930.3" x2="1870.6" y2="931.2"/>
						<line class="st7" x1="1833.2" y1="930.3" x2="1870.6" y2="931.2"/>
						<line class="st12" x1="1906.3" y1="972.4" x2="1953" y2="922.7"/>
						<line class="st7" x1="1906.3" y1="972.4" x2="1953" y2="922.7"/>
						<line class="st12" x1="1965" y1="913.2" x2="2017.6" y2="921.1"/>
						<line class="st7" x1="1965" y1="913.2" x2="2017.6" y2="921.1"/>
						<line class="st12" x1="1830.2" y1="920.1" x2="1948" y2="875.5"/>
						<line class="st7" x1="1830.2" y1="920.1" x2="1948" y2="875.5"/>
						<line class="st12" x1="1958.2" y1="856.9" x2="1962.6" y2="784.9"/>
						<line class="st7" x1="1958.2" y1="856.9" x2="1962.6" y2="784.9"/>
						<line class="st12" x1="2006.3" y1="781.5" x2="1968.5" y2="779.1"/>
						<line class="st7" x1="2006.3" y1="781.5" x2="1968.5" y2="779.1"/>
						<line class="st12" x1="2054.3" y1="834.4" x2="2037.1" y2="820.2"/>
						<line class="st7" x1="2054.3" y1="834.4" x2="2037.1" y2="820.2"/>
						<line class="st12" x1="1965.9" y1="861.2" x2="2002.5" y2="816.1"/>
						<line class="st7" x1="1965.9" y1="861.2" x2="2002.5" y2="816.1"/>
						<line class="st12" x1="2140.2" y1="759.4" x2="2142.8" y2="778.3"/>
						<line class="st7" x1="2140.2" y1="759.4" x2="2142.8" y2="778.3"/>
						<line class="st12" x1="2069.9" y1="829.9" x2="2105.7" y2="755.4"/>
						<line class="st7" x1="2069.9" y1="829.9" x2="2105.7" y2="755.4"/>
						<line class="st12" x1="2158.8" y1="787.2" x2="2183.6" y2="797"/>
						<line class="st7" x1="2158.8" y1="787.2" x2="2183.6" y2="797"/>
						<line class="st12" x1="2149.3" y1="742.9" x2="2213.8" y2="738.1"/>
						<line class="st7" x1="2149.3" y1="742.9" x2="2213.8" y2="738.1"/>
						<line class="st12" x1="2156.7" y1="779.9" x2="2219.5" y2="745.3"/>
						<line class="st7" x1="2156.7" y1="779.9" x2="2219.5" y2="745.3"/>
						<line class="st12" x1="2165.4" y1="639.7" x2="2236.9" y2="615.8"/>
						<line class="st7" x1="2165.4" y1="639.7" x2="2236.9" y2="615.8"/>
						<line class="st12" x1="1527" y1="1281" x2="1540.2" y2="1205.4"/>
						<line class="st7" x1="1527" y1="1281" x2="1540.2" y2="1205.4"/>
						<line class="st12" x1="1611.9" y1="1195.4" x2="1655.2" y2="1197.3"/>
						<line class="st7" x1="1611.9" y1="1195.4" x2="1655.2" y2="1197.3"/>
						<line class="st12" x1="1611" y1="1184.7" x2="1744.6" y2="1159.6"/>
						<line class="st7" x1="1611" y1="1184.7" x2="1744.6" y2="1159.6"/>
						<line class="st12" x1="1683.6" y1="1246.8" x2="1731.8" y2="1207.4"/>
						<line class="st7" x1="1683.6" y1="1246.8" x2="1731.8" y2="1207.4"/>
						<line class="st12" x1="1745.9" y1="1206.3" x2="1793.8" y2="1223.4"/>
						<line class="st7" x1="1745.9" y1="1206.3" x2="1793.8" y2="1223.4"/>
						<line class="st12" x1="1745.4" y1="1200.4" x2="1750.5" y2="1164.6"/>
						<line class="st7" x1="1745.4" y1="1200.4" x2="1750.5" y2="1164.6"/>
						<line class="st12" x1="1749" y1="1146.2" x2="1765.6" y2="1091.3"/>
						<line class="st7" x1="1749" y1="1146.2" x2="1765.6" y2="1091.3"/>
						<line class="st12" x1="1870" y1="1140.4" x2="1916.1" y2="1077"/>
						<line class="st7" x1="1870" y1="1140.4" x2="1916.1" y2="1077"/>
						<line class="st12" x1="1953.4" y1="1116.2" x2="1952.2" y2="1088.7"/>
						<line class="st7" x1="1953.4" y1="1116.2" x2="1952.2" y2="1088.7"/>
						<line class="st12" x1="1965.4" y1="1073.1" x2="2018.4" y2="1084.6"/>
						<line class="st7" x1="1965.4" y1="1073.1" x2="2018.4" y2="1084.6"/>
						<line class="st12" x1="2006.6" y1="1014.3" x2="2032" y2="998.7"/>
						<line class="st7" x1="2006.6" y1="1014.3" x2="2032" y2="998.7"/>
						<line class="st12" x1="2062.6" y1="983.1" x2="2098" y2="969"/>
						<line class="st7" x1="2062.6" y1="983.1" x2="2098" y2="969"/>
						<line class="st12" x1="2093.1" y1="1053.2" x2="2080.7" y2="1054.9"/>
						<line class="st7" x1="2093.1" y1="1053.2" x2="2080.7" y2="1054.9"/>
						<line class="st12" x1="2126.8" y1="1036" x2="2165.6" y2="883.2"/>
						<line class="st7" x1="2126.8" y1="1036" x2="2165.6" y2="883.2"/>
						<line class="st12" x1="1126.9" y1="1312.6" x2="1101" y2="1298.4"/>
						<line class="st7" x1="1126.9" y1="1312.6" x2="1101" y2="1298.4"/>
						<line class="st12" x1="1145.6" y1="1318.7" x2="1261.1" y2="1279.8"/>
						<line class="st7" x1="1145.6" y1="1318.7" x2="1261.1" y2="1279.8"/>
						<line class="st12" x1="1199.5" y1="1363.6" x2="1252.7" y2="1322"/>
						<line class="st7" x1="1199.5" y1="1363.6" x2="1252.7" y2="1322"/>
						<line class="st12" x1="1261.9" y1="1311.3" x2="1269.2" y2="1286.7"/>
						<line class="st7" x1="1261.9" y1="1311.3" x2="1269.2" y2="1286.7"/>
						<line class="st12" x1="1266.8" y1="1320.9" x2="1288.2" y2="1331.8"/>
						<line class="st7" x1="1266.8" y1="1320.9" x2="1288.2" y2="1331.8"/>
						<line class="st12" x1="1285.7" y1="1267.3" x2="1315.2" y2="1232.7"/>
						<line class="st7" x1="1285.7" y1="1267.3" x2="1315.2" y2="1232.7"/>
						<line class="st12" x1="1351.2" y1="1244.6" x2="1371.5" y2="1263.4"/>
						<line class="st7" x1="1351.2" y1="1244.6" x2="1371.5" y2="1263.4"/>
						<line class="st12" x1="1482.6" y1="1236.8" x2="1538.3" y2="1207"/>
						<line class="st7" x1="1482.6" y1="1236.8" x2="1538.3" y2="1207"/>
						<line class="st12" x1="1469.3" y1="1232.5" x2="1464.4" y2="1198.7"/>
						<line class="st7" x1="1469.3" y1="1232.5" x2="1464.4" y2="1198.7"/>
						<line class="st12" x1="1384.6" y1="1262.4" x2="1447.3" y2="1200"/>
						<line class="st7" x1="1384.6" y1="1262.4" x2="1447.3" y2="1200"/>
						<line class="st12" x1="1534.5" y1="1203.8" x2="1475.5" y2="1185.7"/>
						<line class="st7" x1="1534.5" y1="1203.8" x2="1475.5" y2="1185.7"/>
						<line class="st12" x1="1480.7" y1="1112.8" x2="1551.7" y2="1111.9"/>
						<line class="st7" x1="1480.7" y1="1112.8" x2="1551.7" y2="1111.9"/>
						<line class="st12" x1="1110.5" y1="1442.4" x2="1168" y2="1502.6"/>
						<line class="st9" x1="1110.5" y1="1442.4" x2="1168" y2="1502.6"/>
						<line class="st12" x1="1895.6" y1="911.3" x2="1892.8" y2="852.8"/>
						<line class="st9" x1="1895.6" y1="911.3" x2="1892.8" y2="852.8"/>
						<line class="st12" x1="1959.9" y1="910.3" x2="1955.6" y2="879.7"/>
						<line class="st9" x1="1959.9" y1="910.3" x2="1955.6" y2="879.7"/>
						<line class="st12" x1="2109.5" y1="720.9" x2="2081.3" y2="711"/>
						<line class="st9" x1="2109.5" y1="720.9" x2="2081.3" y2="711"/>
						<line class="st12" x1="2235.8" y1="697.2" x2="2162.5" y2="666.2"/>
						<line class="st9" x1="2235.8" y1="697.2" x2="2162.5" y2="666.2"/>
						<line class="st12" x1="1588.5" y1="1298.8" x2="1605" y2="1203.5"/>
						<line class="st11" x1="1588.5" y1="1298.8" x2="1605" y2="1203.5"/>
						<line class="st12" x1="1762.5" y1="1150.5" x2="1809.8" y2="1121.9"/>
						<line class="st11" x1="1762.5" y1="1150.5" x2="1809.8" y2="1121.9"/>
						<line class="st12" x1="1683.7" y1="1182.7" x2="1692.7" y2="1129.9"/>
						<line class="st9" x1="1683.7" y1="1182.7" x2="1692.7" y2="1129.9"/>
						<line class="st12" x1="1853.3" y1="1141.7" x2="1830.2" y2="1120.2"/>
						<line class="st9" x1="1853.3" y1="1141.7" x2="1830.2" y2="1120.2"/>
						<line class="st12" x1="2061.1" y1="1038.2" x2="2055.2" y2="1006.2"/>
						<line class="st9" x1="2061.1" y1="1038.2" x2="2055.2" y2="1006.2"/>
						<line class="st12" x1="2102.2" y1="956.1" x2="2064.1" y2="942.2"/>
						<line class="st11" x1="2102.2" y1="956.1" x2="2064.1" y2="942.2"/>
						<line class="st12" x1="1090.3" y1="1379.7" x2="1128.8" y2="1338.3"/>
						<line class="st11" x1="1090.3" y1="1379.7" x2="1128.8" y2="1338.3"/>
						<line class="st12" x1="1326.9" y1="1196.7" x2="1311.3" y2="1184.4"/>
						<line class="st9" x1="1326.9" y1="1196.7" x2="1311.3" y2="1184.4"/>
						<path class="st6" d="M1287.7,1745.2L1287.7,1745.2c-3-7.5-11.4-11.1-18.9-8.1c0,0,0,0,0,0l0,0c-7.5,3-11.1,11.4-8.1,18.9l0,0
							c3,7.5,11.4,11.1,18.9,8.1l0,0C1287.1,1761.1,1290.7,1752.7,1287.7,1745.2z"/>
						<path class="st7" d="M1287.7,1745.2L1287.7,1745.2c-3-7.5-11.4-11.1-18.9-8.1c0,0,0,0,0,0l0,0c-7.5,3-11.1,11.4-8.1,18.9l0,0
							c3,7.5,11.4,11.1,18.9,8.1l0,0C1287.1,1761.1,1290.7,1752.7,1287.7,1745.2z"/>
						<path class="st8" d="M2200.4,849.2L2200.4,849.2c-5.4-13.5-20.7-20.2-34.2-14.8l0,0c-6.5,2.6-11.7,7.7-14.4,14.1
							c-2.8,6.4-2.9,13.7-0.3,20.2l0,0c5.4,13.5,20.7,20.2,34.2,14.8l0,0C2199.2,878.1,2205.9,862.8,2200.4,849.2
							C2200.5,849.2,2200.4,849.2,2200.4,849.2z"/>
						<path class="st9" d="M2200.4,849.2L2200.4,849.2c-5.4-13.5-20.7-20.2-34.2-14.8l0,0c-6.5,2.6-11.7,7.7-14.4,14.1
							c-2.8,6.4-2.9,13.7-0.3,20.2l0,0c5.4,13.5,20.7,20.2,34.2,14.8l0,0C2199.2,878.1,2205.9,862.8,2200.4,849.2
							C2200.5,849.2,2200.4,849.2,2200.4,849.2z"/>
						<path class="st6" d="M1314.8,1535.2L1314.8,1535.2c-2.2-5.5-8.4-8.2-14-6c0,0,0,0,0,0l0,0c-5.5,2.2-8.2,8.5-6,14c0,0,0,0,0,0
							l0,0c2.2,5.5,8.4,8.2,13.9,6c0,0,0,0,0.1,0l0,0C1314.4,1547,1317,1540.8,1314.8,1535.2
							C1314.9,1535.2,1314.8,1535.2,1314.8,1535.2z"/>
						<path class="st7" d="M1314.8,1535.2L1314.8,1535.2c-2.2-5.5-8.4-8.2-14-6c0,0,0,0,0,0l0,0c-5.5,2.2-8.2,8.5-6,14c0,0,0,0,0,0
							l0,0c2.2,5.5,8.4,8.2,13.9,6c0,0,0,0,0.1,0l0,0C1314.4,1547,1317,1540.8,1314.8,1535.2
							C1314.9,1535.2,1314.8,1535.2,1314.8,1535.2z"/>
						<path class="st8" d="M1329.3,1529.4L1329.3,1529.4c-5.4-13.5-20.7-20.2-34.2-14.8l0,0c-13.5,5.4-20.1,20.8-14.6,34.3l0,0
							c5.4,13.6,20.7,20.2,34.2,14.8c0,0,0,0,0,0l0,0C1328.2,1558.3,1334.7,1543,1329.3,1529.4z"/>
						<path class="st7" d="M1329.3,1529.4L1329.3,1529.4c-5.4-13.5-20.7-20.2-34.2-14.8l0,0c-13.5,5.4-20.1,20.8-14.6,34.3l0,0
							c5.4,13.6,20.7,20.2,34.2,14.8c0,0,0,0,0,0l0,0C1328.2,1558.3,1334.7,1543,1329.3,1529.4z"/>
						<path class="st6" d="M1365.9,1452.3L1365.9,1452.3c-3-7.5-11.4-11.1-18.9-8.2l0,0c-7.5,3-11.1,11.4-8.2,18.9l0,0
							c3,7.5,11.4,11.1,18.9,8.2l0,0C1365.2,1468.3,1368.9,1459.8,1365.9,1452.3z"/>
						<path class="st7" d="M1365.9,1452.3L1365.9,1452.3c-3-7.5-11.4-11.1-18.9-8.2l0,0c-7.5,3-11.1,11.4-8.2,18.9l0,0
							c3,7.5,11.4,11.1,18.9,8.2l0,0C1365.2,1468.3,1368.9,1459.8,1365.9,1452.3z"/>
						<path class="st6" d="M1543.4,1482.1L1543.4,1482.1c-3-7.5-11.4-11.1-18.9-8.1l0,0c-7.5,3-11.1,11.4-8.1,18.9c0,0,0,0,0,0l0,0
							c3,7.5,11.4,11.1,18.9,8.1c0,0,0,0,0,0l0,0C1542.8,1498,1546.4,1489.5,1543.4,1482.1z"/>
						<path class="st7" d="M1543.4,1482.1L1543.4,1482.1c-3-7.5-11.4-11.1-18.9-8.1l0,0c-7.5,3-11.1,11.4-8.1,18.9c0,0,0,0,0,0l0,0
							c3,7.5,11.4,11.1,18.9,8.1c0,0,0,0,0,0l0,0C1542.8,1498,1546.4,1489.5,1543.4,1482.1z"/>
						<path class="st6" d="M1562.6,1440L1562.6,1440c-1.8-4.6-7-6.8-11.6-5c0,0,0,0,0,0l0,0c-4.6,1.8-6.8,7-5,11.6c0,0,0,0,0,0l0,0
							c1.8,4.6,7,6.8,11.6,5c0,0,0,0,0,0l0,0C1562.2,1449.8,1564.4,1444.6,1562.6,1440C1562.6,1440.1,1562.6,1440,1562.6,1440z"/>
						<path class="st7" d="M1562.6,1440L1562.6,1440c-1.8-4.6-7-6.8-11.6-5c0,0,0,0,0,0l0,0c-4.6,1.8-6.8,7-5,11.6c0,0,0,0,0,0l0,0
							c1.8,4.6,7,6.8,11.6,5c0,0,0,0,0,0l0,0C1562.2,1449.8,1564.4,1444.6,1562.6,1440C1562.6,1440.1,1562.6,1440,1562.6,1440z"/>
						<path class="st6" d="M1345.2,1399.4L1345.2,1399.4c-3-7.5-11.4-11.1-18.9-8.1l0,0c-7.5,3-11.1,11.4-8.2,18.9l0,0
							c3,7.5,11.4,11.1,18.9,8.1l0,0C1344.5,1415.4,1348.1,1406.9,1345.2,1399.4C1345.2,1399.4,1345.2,1399.4,1345.2,1399.4z"/>
						<path class="st7" d="M1345.2,1399.4L1345.2,1399.4c-3-7.5-11.4-11.1-18.9-8.1l0,0c-7.5,3-11.1,11.4-8.2,18.9l0,0
							c3,7.5,11.4,11.1,18.9,8.1l0,0C1344.5,1415.4,1348.1,1406.9,1345.2,1399.4C1345.2,1399.4,1345.2,1399.4,1345.2,1399.4z"/>
						<path class="st6" d="M1636.3,1420.7L1636.3,1420.7c-2.2-5.5-8.4-8.2-14-6c0,0,0,0,0,0l0,0c-5.5,2.2-8.2,8.5-6,14c0,0,0,0,0,0
							l0,0c2.2,5.5,8.4,8.2,13.9,6c0,0,0,0,0.1,0l0,0C1635.8,1432.5,1638.5,1426.3,1636.3,1420.7
							C1636.3,1420.7,1636.3,1420.7,1636.3,1420.7z"/>
						<path class="st7" d="M1636.3,1420.7L1636.3,1420.7c-2.2-5.5-8.4-8.2-14-6c0,0,0,0,0,0l0,0c-5.5,2.2-8.2,8.5-6,14c0,0,0,0,0,0
							l0,0c2.2,5.5,8.4,8.2,13.9,6c0,0,0,0,0.1,0l0,0C1635.8,1432.5,1638.5,1426.3,1636.3,1420.7
							C1636.3,1420.7,1636.3,1420.7,1636.3,1420.7z"/>
						<path class="st6" d="M1456.7,1343.2L1456.7,1343.2c-2.2-5.5-8.4-8.2-14-6c0,0,0,0,0,0l0,0c-5.5,2.2-8.2,8.4-6,13.9
							c0,0,0,0.1,0,0.1l0,0c2.2,5.5,8.4,8.2,14,6c0,0,0,0,0,0l0,0C1456.2,1355,1458.9,1348.7,1456.7,1343.2
							C1456.7,1343.2,1456.7,1343.2,1456.7,1343.2z"/>
						<path class="st7" d="M1456.7,1343.2L1456.7,1343.2c-2.2-5.5-8.4-8.2-14-6c0,0,0,0,0,0l0,0c-5.5,2.2-8.2,8.4-6,13.9
							c0,0,0,0.1,0,0.1l0,0c2.2,5.5,8.4,8.2,14,6c0,0,0,0,0,0l0,0C1456.2,1355,1458.9,1348.7,1456.7,1343.2
							C1456.7,1343.2,1456.7,1343.2,1456.7,1343.2z"/>
						<path class="st6" d="M1381.3,1373.2L1381.3,1373.2c-1.8-4.6-7-6.8-11.5-5c0,0,0,0,0,0l0,0c-2.2,0.9-4,2.6-4.9,4.8
							c-0.9,2.2-1,4.6-0.1,6.8l0,0c1.8,4.6,7,6.8,11.6,5c0,0,0,0,0,0l0,0C1380.9,1383,1383.1,1377.8,1381.3,1373.2
							C1381.3,1373.2,1381.3,1373.2,1381.3,1373.2z"/>
						<path class="st7" d="M1381.3,1373.2L1381.3,1373.2c-1.8-4.6-7-6.8-11.5-5c0,0,0,0,0,0l0,0c-2.2,0.9-4,2.6-4.9,4.8
							c-0.9,2.2-1,4.6-0.1,6.8l0,0c1.8,4.6,7,6.8,11.6,5c0,0,0,0,0,0l0,0C1380.9,1383,1383.1,1377.8,1381.3,1373.2
							C1381.3,1373.2,1381.3,1373.2,1381.3,1373.2z"/>
						<path class="st6" d="M1593.4,1371.1L1593.4,1371.1c-3-7.5-11.4-11.1-18.9-8.1l0,0c-7.5,3-11.1,11.4-8.2,18.9l0,0
							c3,7.5,11.4,11.1,18.9,8.1l0,0C1592.8,1387.1,1596.4,1378.6,1593.4,1371.1C1593.4,1371.1,1593.4,1371.1,1593.4,1371.1z"/>
						<path class="st7" d="M1593.4,1371.1L1593.4,1371.1c-3-7.5-11.4-11.1-18.9-8.1l0,0c-7.5,3-11.1,11.4-8.2,18.9l0,0
							c3,7.5,11.4,11.1,18.9,8.1l0,0C1592.8,1387.1,1596.4,1378.6,1593.4,1371.1C1593.4,1371.1,1593.4,1371.1,1593.4,1371.1z"/>
						<path class="st8" d="M1604.4,1366.8L1604.4,1366.8c-5.4-13.5-20.7-20.2-34.2-14.8l0,0c-13.5,5.4-20.1,20.8-14.7,34.3l0,0
							c5.4,13.5,20.7,20.2,34.2,14.8c0,0,0,0,0,0l0,0C1603.2,1395.7,1609.8,1380.3,1604.4,1366.8z"/>
						<path class="st11" d="M1604.4,1366.8L1604.4,1366.8c-5.4-13.5-20.7-20.2-34.2-14.8l0,0c-13.5,5.4-20.1,20.8-14.7,34.3l0,0
							c5.4,13.5,20.7,20.2,34.2,14.8c0,0,0,0,0,0l0,0C1603.2,1395.7,1609.8,1380.3,1604.4,1366.8z"/>
						<path class="st6" d="M1702,1104.6L1702,1104.6c-2.2-5.5-8.4-8.2-14-6c0,0,0,0,0,0l0,0c-5.5,2.2-8.2,8.5-6,14l0,0
							c2.2,5.5,8.4,8.2,14,6c0,0,0,0,0,0l0,0C1701.6,1116.4,1704.2,1110.2,1702,1104.6C1702.1,1104.6,1702,1104.6,1702,1104.6z"/>
						<path class="st7" d="M1702,1104.6L1702,1104.6c-2.2-5.5-8.4-8.2-14-6c0,0,0,0,0,0l0,0c-5.5,2.2-8.2,8.5-6,14l0,0
							c2.2,5.5,8.4,8.2,14,6c0,0,0,0,0,0l0,0C1701.6,1116.4,1704.2,1110.2,1702,1104.6C1702.1,1104.6,1702,1104.6,1702,1104.6z"/>
						<path class="st8" d="M1716.5,1098.8L1716.5,1098.8c-5.4-13.6-20.7-20.2-34.2-14.8c0,0,0,0,0,0l0,0
							c-13.5,5.4-20.1,20.8-14.7,34.3l0,0c5.4,13.5,20.7,20.2,34.2,14.8c0,0,0,0,0,0l0,0C1715.4,1127.7,1722,1112.4,1716.5,1098.8
							C1716.5,1098.9,1716.5,1098.9,1716.5,1098.8z"/>
						<path class="st9" d="M1716.5,1098.8L1716.5,1098.8c-5.4-13.6-20.7-20.2-34.2-14.8c0,0,0,0,0,0l0,0
							c-13.5,5.4-20.1,20.8-14.7,34.3l0,0c5.4,13.5,20.7,20.2,34.2,14.8c0,0,0,0,0,0l0,0C1715.4,1127.7,1722,1112.4,1716.5,1098.8
							C1716.5,1098.9,1716.5,1098.9,1716.5,1098.8z"/>
						<path class="st6" d="M915.2,1725.4L915.2,1725.4c-2.2-5.5-8.4-8.2-14-6c0,0,0,0,0,0l0,0c-5.5,2.2-8.2,8.4-6,14c0,0,0,0,0,0
							l0,0c2.2,5.5,8.4,8.2,14,6c0,0,0,0,0,0l0,0C914.7,1737.2,917.4,1731,915.2,1725.4C915.2,1725.4,915.2,1725.4,915.2,1725.4z"/>
						<path class="st10" d="M915.2,1725.4L915.2,1725.4c-2.2-5.5-8.4-8.2-14-6c0,0,0,0,0,0l0,0c-5.5,2.2-8.2,8.4-6,14c0,0,0,0,0,0
							l0,0c2.2,5.5,8.4,8.2,14,6c0,0,0,0,0,0l0,0C914.7,1737.2,917.4,1731,915.2,1725.4C915.2,1725.4,915.2,1725.4,915.2,1725.4z"/>
						<path class="st8" d="M929.7,1719.6L929.7,1719.6c-5.4-13.6-20.7-20.2-34.3-14.8c0,0,0,0,0,0l0,0
							c-13.5,5.4-20.1,20.8-14.7,34.3c0,0,0,0,0,0l0,0c5.4,13.5,20.7,20.2,34.2,14.8l0,0C928.6,1748.5,935.1,1733.2,929.7,1719.6
							C929.7,1719.6,929.7,1719.6,929.7,1719.6z"/>
						<path class="st10" d="M929.7,1719.6L929.7,1719.6c-5.4-13.6-20.7-20.2-34.3-14.8c0,0,0,0,0,0l0,0
							c-13.5,5.4-20.1,20.8-14.7,34.3c0,0,0,0,0,0l0,0c5.4,13.5,20.7,20.2,34.2,14.8l0,0C928.6,1748.5,935.1,1733.2,929.7,1719.6
							C929.7,1719.6,929.7,1719.6,929.7,1719.6z"/>
						<path class="st8" d="M2297.9,804.5L2297.9,804.5c-2.2-5.5-8.5-8.2-14-6c0,0,0,0,0,0l0,0c-2.7,1.1-4.8,3.1-5.9,5.7
							c-1.1,2.6-1.2,5.6-0.1,8.2l0,0c2.2,5.5,8.5,8.2,14,6c0,0,0,0,0,0l0,0C2297.4,816.3,2300.1,810.1,2297.9,804.5
							C2297.9,804.5,2297.9,804.5,2297.9,804.5z"/>
						<path class="st7" d="M2297.9,804.5L2297.9,804.5c-2.2-5.5-8.5-8.2-14-6c0,0,0,0,0,0l0,0c-2.7,1.1-4.8,3.1-5.9,5.7
							c-1.1,2.6-1.2,5.6-0.1,8.2l0,0c2.2,5.5,8.5,8.2,14,6c0,0,0,0,0,0l0,0C2297.4,816.3,2300.1,810.1,2297.9,804.5
							C2297.9,804.5,2297.9,804.5,2297.9,804.5z"/>
						<path class="st8" d="M2312.4,798.8L2312.4,798.8c-5.4-13.5-20.7-20.2-34.2-14.8c0,0,0,0,0,0l0,0c-6.5,2.6-11.7,7.7-14.4,14.1
							c-2.8,6.4-2.8,13.7-0.2,20.2l0,0c5.4,13.6,20.7,20.2,34.2,14.8c0,0,0,0,0,0l0,0C2311.3,827.7,2317.9,812.3,2312.4,798.8z"/>
						<path class="st7" d="M2312.4,798.8L2312.4,798.8c-5.4-13.5-20.7-20.2-34.2-14.8c0,0,0,0,0,0l0,0c-6.5,2.6-11.7,7.7-14.4,14.1
							c-2.8,6.4-2.8,13.7-0.2,20.2l0,0c5.4,13.6,20.7,20.2,34.2,14.8c0,0,0,0,0,0l0,0C2311.3,827.7,2317.9,812.3,2312.4,798.8z"/>
						<path class="st8" d="M2302.7,633.6L2302.7,633.6c-2.2-5.6-8.6-8.3-14.2-6.1l0,0c-5.6,2.3-8.3,8.6-6.1,14.2c0,0,0,0,0,0l0,0
							c2.2,5.6,8.6,8.3,14.1,6.1c0,0,0,0,0,0l0,0C2302.2,645.5,2304.9,639.2,2302.7,633.6C2302.7,633.6,2302.7,633.6,2302.7,633.6z"
							/>
						<path class="st7" d="M2302.7,633.6L2302.7,633.6c-2.2-5.6-8.6-8.3-14.2-6.1l0,0c-5.6,2.3-8.3,8.6-6.1,14.2c0,0,0,0,0,0l0,0
							c2.2,5.6,8.6,8.3,14.1,6.1c0,0,0,0,0,0l0,0C2302.2,645.5,2304.9,639.2,2302.7,633.6C2302.7,633.6,2302.7,633.6,2302.7,633.6z"
							/>
						<path class="st8" d="M2317.3,627.7L2317.3,627.7c-5.4-13.7-21-20.5-34.7-15c0,0,0,0,0,0l0,0c-6.6,2.6-11.9,7.8-14.6,14.3
							c-2.8,6.5-2.9,13.9-0.2,20.5l0,0c5.5,13.7,21,20.4,34.8,15l0,0C2316.2,657,2322.9,641.4,2317.3,627.7
							C2317.3,627.7,2317.3,627.7,2317.3,627.7z"/>
						<path class="st7" d="M2317.3,627.7L2317.3,627.7c-5.4-13.7-21-20.5-34.7-15c0,0,0,0,0,0l0,0c-6.6,2.6-11.9,7.8-14.6,14.3
							c-2.8,6.5-2.9,13.9-0.2,20.5l0,0c5.5,13.7,21,20.4,34.8,15l0,0C2316.2,657,2322.9,641.4,2317.3,627.7
							C2317.3,627.7,2317.3,627.7,2317.3,627.7z"/>
						<path class="st6" d="M1406.9,1448.9L1406.9,1448.9c-1.5-3.9-5.9-5.8-9.8-4.2c0,0,0,0,0,0l0,0c-3.9,1.6-5.8,6-4.2,9.8l0,0
							c1.5,3.9,5.9,5.8,9.8,4.2c0,0,0,0,0,0l0,0C1406.5,1457.2,1408.4,1452.8,1406.9,1448.9z"/>
						<path class="st7" d="M1406.9,1448.9L1406.9,1448.9c-1.5-3.9-5.9-5.8-9.8-4.2c0,0,0,0,0,0l0,0c-3.9,1.6-5.8,6-4.2,9.8l0,0
							c1.5,3.9,5.9,5.8,9.8,4.2c0,0,0,0,0,0l0,0C1406.5,1457.2,1408.4,1452.8,1406.9,1448.9z"/>
						<path class="st8" d="M1417.1,1444.9L1417.1,1444.9c-3.8-9.5-14.5-14.2-24-10.4c0,0,0,0,0,0l0,0c-9.5,3.8-14.1,14.7-10.3,24.2
							c0,0,0,0,0,0l0,0c3.8,9.5,14.6,14.2,24.1,10.4l0,0l0,0C1416.3,1465.3,1420.9,1454.4,1417.1,1444.9
							C1417.1,1444.9,1417.1,1444.9,1417.1,1444.9z"/>
						<path class="st9" d="M1417.1,1444.9L1417.1,1444.9c-3.8-9.5-14.5-14.2-24-10.4c0,0,0,0,0,0l0,0c-9.5,3.8-14.1,14.7-10.3,24.2
							c0,0,0,0,0,0l0,0c3.8,9.5,14.6,14.2,24.1,10.4l0,0l0,0C1416.3,1465.3,1420.9,1454.4,1417.1,1444.9
							C1417.1,1444.9,1417.1,1444.9,1417.1,1444.9z"/>
						<path class="st6" d="M1287.4,1687.8L1287.4,1687.8c-1.5-3.9-6-5.8-9.8-4.3l0,0c-1.9,0.7-3.4,2.2-4.2,4.1
							c-0.8,1.9-0.8,3.9-0.1,5.8l0,0c1.5,3.9,6,5.8,9.8,4.2l0,0C1287.1,1696.1,1289,1691.7,1287.4,1687.8z"/>
						<path class="st7" d="M1287.4,1687.8L1287.4,1687.8c-1.5-3.9-6-5.8-9.8-4.3l0,0c-1.9,0.7-3.4,2.2-4.2,4.1
							c-0.8,1.9-0.8,3.9-0.1,5.8l0,0c1.5,3.9,6,5.8,9.8,4.2l0,0C1287.1,1696.1,1289,1691.7,1287.4,1687.8z"/>
						<path class="st8" d="M1302.6,1681.8L1302.6,1681.8c-4.9-12.3-18.8-18.3-31.1-13.4c0,0,0,0,0,0l0,0
							c-12.3,4.9-18.2,18.9-13.3,31.1l0,0c4.9,12.3,18.8,18.3,31.1,13.4l0,0C1301.6,1708,1307.5,1694.1,1302.6,1681.8z"/>
						<path class="st7" d="M1302.6,1681.8L1302.6,1681.8c-4.9-12.3-18.8-18.3-31.1-13.4c0,0,0,0,0,0l0,0
							c-12.3,4.9-18.2,18.9-13.3,31.1l0,0c4.9,12.3,18.8,18.3,31.1,13.4l0,0C1301.6,1708,1307.5,1694.1,1302.6,1681.8z"/>
						<path class="st8" d="M1202.9,1700.5L1202.9,1700.5c-2.5-6.4-9.7-9.5-16.1-6.9c0,0,0,0,0,0l0,0c-6.3,2.5-9.4,9.7-6.9,16.1
							c0,0,0,0,0,0l0,0c2.5,6.3,9.7,9.5,16.1,6.9l0,0C1202.4,1714,1205.5,1706.8,1202.9,1700.5z"/>
						<path class="st7" d="M1202.9,1700.5L1202.9,1700.5c-2.5-6.4-9.7-9.5-16.1-6.9c0,0,0,0,0,0l0,0c-6.3,2.5-9.4,9.7-6.9,16.1
							c0,0,0,0,0,0l0,0c2.5,6.3,9.7,9.5,16.1,6.9l0,0C1202.4,1714,1205.5,1706.8,1202.9,1700.5z"/>
						<path class="st8" d="M1219.6,1693.8L1219.6,1693.8c-6.2-15.6-23.8-23.2-39.4-17.1l0,0c-15.6,6.3-23.1,23.9-16.9,39.5l0,0
							c6.2,15.6,23.8,23.2,39.4,17l0,0C1218.3,1727,1225.8,1709.4,1219.6,1693.8z"/>
						<path class="st7" d="M1219.6,1693.8L1219.6,1693.8c-6.2-15.6-23.8-23.2-39.4-17.1l0,0c-15.6,6.3-23.1,23.9-16.9,39.5l0,0
							c6.2,15.6,23.8,23.2,39.4,17l0,0C1218.3,1727,1225.8,1709.4,1219.6,1693.8z"/>
						<path class="st6" d="M1019.9,1675.3L1019.9,1675.3c-2-5-7.7-7.4-12.7-5.5c0,0,0,0,0,0l0,0c-5,2-7.4,7.7-5.5,12.7l0,0
							c2,5,7.7,7.4,12.7,5.5c0,0,0,0,0,0l0,0C1019.5,1685.9,1021.9,1680.3,1019.9,1675.3z"/>
						<path class="st10" d="M1019.9,1675.3L1019.9,1675.3c-2-5-7.7-7.4-12.7-5.5c0,0,0,0,0,0l0,0c-5,2-7.4,7.7-5.5,12.7l0,0
							c2,5,7.7,7.4,12.7,5.5c0,0,0,0,0,0l0,0C1019.5,1685.9,1021.9,1680.3,1019.9,1675.3z"/>
						<path class="st8" d="M1135.8,1698.8L1135.8,1698.8c-4.9-12.3-18.8-18.3-31.1-13.4l0,0c-12.3,5-18.2,18.9-13.3,31.2l0,0
							c4.9,12.3,18.8,18.3,31.1,13.5l0,0C1134.8,1725,1140.7,1711.1,1135.8,1698.8z"/>
						<path class="st10" d="M1135.8,1698.8L1135.8,1698.8c-4.9-12.3-18.8-18.3-31.1-13.4l0,0c-12.3,5-18.2,18.9-13.3,31.2l0,0
							c4.9,12.3,18.8,18.3,31.1,13.5l0,0C1134.8,1725,1140.7,1711.1,1135.8,1698.8z"/>
						<path class="st6" d="M891.9,1680.8L891.9,1680.8c-3-7.5-11.4-11.1-18.9-8.2c0,0,0,0,0,0l0,0c-7.5,3-11.1,11.4-8.1,18.9l0,0
							c3,7.5,11.4,11.1,18.9,8.2l0,0C891.3,1696.7,894.9,1688.3,891.9,1680.8z"/>
						<path class="st7" d="M891.9,1680.8L891.9,1680.8c-3-7.5-11.4-11.1-18.9-8.2c0,0,0,0,0,0l0,0c-7.5,3-11.1,11.4-8.1,18.9l0,0
							c3,7.5,11.4,11.1,18.9,8.2l0,0C891.3,1696.7,894.9,1688.3,891.9,1680.8z"/>
						<path class="st8" d="M2240.9,774L2240.9,774c-3.8-9.5-14.5-14.2-24-10.4c0,0,0,0,0,0l0,0c-4.6,1.8-8.2,5.4-10.1,9.9
							c-1.9,4.5-2,9.6-0.2,14.2l0,0c3.8,9.5,14.5,14.2,24,10.4c0,0,0,0,0,0l0,0C2240.1,794.4,2244.7,783.6,2240.9,774z"/>
						<path class="st7" d="M2240.9,774L2240.9,774c-3.8-9.5-14.5-14.2-24-10.4c0,0,0,0,0,0l0,0c-4.6,1.8-8.2,5.4-10.1,9.9
							c-1.9,4.5-2,9.6-0.2,14.2l0,0c3.8,9.5,14.5,14.2,24,10.4c0,0,0,0,0,0l0,0C2240.1,794.4,2244.7,783.6,2240.9,774z"/>
						<path class="st6" d="M2233.7,777L2233.7,777c-2.2-5.5-8.4-8.2-13.9-6c0,0,0,0-0.1,0l0,0c-5.5,2.2-8.2,8.4-6,13.9
							c0,0,0,0,0,0.1l0,0c2.2,5.5,8.4,8.2,13.9,6c0,0,0,0,0.1,0l0,0C2233.2,788.9,2235.9,782.6,2233.7,777
							C2233.7,777.1,2233.7,777.1,2233.7,777z"/>
						<path class="st7" d="M2233.7,777L2233.7,777c-2.2-5.5-8.4-8.2-13.9-6c0,0,0,0-0.1,0l0,0c-5.5,2.2-8.2,8.4-6,13.9
							c0,0,0,0,0,0.1l0,0c2.2,5.5,8.4,8.2,13.9,6c0,0,0,0,0.1,0l0,0C2233.2,788.9,2235.9,782.6,2233.7,777
							C2233.7,777.1,2233.7,777.1,2233.7,777z"/>
						<path class="st6" d="M1175.7,1554.5L1175.7,1554.5c-1.4-3.6-5.4-5.3-9-3.9c0,0,0,0,0,0l0,0c-1.7,0.7-3.1,2-3.8,3.7
							c-0.7,1.7-0.7,3.6-0.1,5.3l0,0c1.4,3.6,5.4,5.3,9,3.9l0,0C1175.4,1562.2,1177.1,1558.1,1175.7,1554.5
							C1175.7,1554.6,1175.7,1554.6,1175.7,1554.5z"/>
						<path class="st7" d="M1175.7,1554.5L1175.7,1554.5c-1.4-3.6-5.4-5.3-9-3.9c0,0,0,0,0,0l0,0c-1.7,0.7-3.1,2-3.8,3.7
							c-0.7,1.7-0.7,3.6-0.1,5.3l0,0c1.4,3.6,5.4,5.3,9,3.9l0,0C1175.4,1562.2,1177.1,1558.1,1175.7,1554.5
							C1175.7,1554.6,1175.7,1554.6,1175.7,1554.5z"/>
						<path class="st8" d="M1189.5,1549L1189.5,1549c-4.4-11.2-17.1-16.7-28.4-12.3c0,0,0,0,0,0l0,0c-11.2,4.5-16.7,17.2-12.2,28.4
							c0,0,0,0,0,0l0,0c4.5,11.2,17.2,16.7,28.4,12.3l0,0C1188.6,1573,1194,1560.2,1189.5,1549z"/>
						<path class="st7" d="M1189.5,1549L1189.5,1549c-4.4-11.2-17.1-16.7-28.4-12.3c0,0,0,0,0,0l0,0c-11.2,4.5-16.7,17.2-12.2,28.4
							c0,0,0,0,0,0l0,0c4.5,11.2,17.2,16.7,28.4,12.3l0,0C1188.6,1573,1194,1560.2,1189.5,1549z"/>
						<path class="st8" d="M1261.6,1578.9L1261.6,1578.9c-2.5-6.4-9.7-9.5-16.1-6.9l0,0c-6.3,2.5-9.4,9.7-6.9,16.1c0,0,0,0,0,0l0,0
							c2.5,6.4,9.7,9.5,16.1,6.9c0,0,0,0,0,0l0,0C1261,1592.4,1264.1,1585.2,1261.6,1578.9z"/>
						<path class="st7" d="M1261.6,1578.9L1261.6,1578.9c-2.5-6.4-9.7-9.5-16.1-6.9l0,0c-6.3,2.5-9.4,9.7-6.9,16.1c0,0,0,0,0,0l0,0
							c2.5,6.4,9.7,9.5,16.1,6.9c0,0,0,0,0,0l0,0C1261,1592.4,1264.1,1585.2,1261.6,1578.9z"/>
						<path class="st8" d="M1274.5,1573.7L1274.5,1573.7c-5.4-13.5-20.7-20.2-34.2-14.8l0,0c-13.5,5.4-20.1,20.8-14.7,34.3
							c0,0,0,0,0,0l0,0c5.4,13.5,20.7,20.2,34.2,14.8l0,0C1273.4,1602.6,1280,1587.2,1274.5,1573.7z"/>
						<path class="st7" d="M1274.5,1573.7L1274.5,1573.7c-5.4-13.5-20.7-20.2-34.2-14.8l0,0c-13.5,5.4-20.1,20.8-14.7,34.3
							c0,0,0,0,0,0l0,0c5.4,13.5,20.7,20.2,34.2,14.8l0,0C1273.4,1602.6,1280,1587.2,1274.5,1573.7z"/>
						<path class="st6" d="M1110.8,1624L1110.8,1624c-1.8-4.6-7-6.8-11.6-5c0,0,0,0,0,0l0,0c-4.6,1.8-6.8,7-5,11.6c0,0,0,0,0,0l0,0
							c1.8,4.6,7,6.8,11.6,5l0,0C1110.4,1633.8,1112.6,1628.6,1110.8,1624C1110.8,1624,1110.8,1624,1110.8,1624z"/>
						<path class="st7" d="M1110.8,1624L1110.8,1624c-1.8-4.6-7-6.8-11.6-5c0,0,0,0,0,0l0,0c-4.6,1.8-6.8,7-5,11.6c0,0,0,0,0,0l0,0
							c1.8,4.6,7,6.8,11.6,5l0,0C1110.4,1633.8,1112.6,1628.6,1110.8,1624C1110.8,1624,1110.8,1624,1110.8,1624z"/>
						<path class="st8" d="M1122.8,1619.2L1122.8,1619.2c-4.4-11.2-17.2-16.7-28.4-12.3c0,0,0,0,0,0l0,0
							c-11.2,4.5-16.7,17.2-12.2,28.4c0,0,0,0,0,0l0,0c4.5,11.2,17.2,16.7,28.4,12.3l0,0C1121.9,1643.2,1127.3,1630.4,1122.8,1619.2
							z"/>
						<path class="st7" d="M1122.8,1619.2L1122.8,1619.2c-4.4-11.2-17.2-16.7-28.4-12.3c0,0,0,0,0,0l0,0
							c-11.2,4.5-16.7,17.2-12.2,28.4c0,0,0,0,0,0l0,0c4.5,11.2,17.2,16.7,28.4,12.3l0,0C1121.9,1643.2,1127.3,1630.4,1122.8,1619.2
							z"/>
						<path class="st6" d="M635.9,1705.1L635.9,1705.1c-2.2-5.5-8.4-8.2-14-6c0,0,0,0,0,0l0,0c-5.5,2.2-8.2,8.5-6,14c0,0,0,0,0,0
							l0,0c2.2,5.5,8.5,8.2,14,6c0,0,0,0,0,0l0,0C635.5,1716.9,638.2,1710.7,635.9,1705.1C636,1705.1,636,1705.1,635.9,1705.1z"/>
						<path class="st10" d="M635.9,1705.1L635.9,1705.1c-2.2-5.5-8.4-8.2-14-6c0,0,0,0,0,0l0,0c-5.5,2.2-8.2,8.5-6,14c0,0,0,0,0,0
							l0,0c2.2,5.5,8.5,8.2,14,6c0,0,0,0,0,0l0,0C635.5,1716.9,638.2,1710.7,635.9,1705.1C636,1705.1,636,1705.1,635.9,1705.1z"/>
						<path class="st8" d="M650.4,1699.3L650.4,1699.3c-5.4-13.5-20.7-20.2-34.2-14.8c0,0,0,0,0,0l0,0
							c-13.5,5.4-20.1,20.8-14.7,34.3l0,0c5.3,13.5,20.7,20.2,34.2,14.9c0,0,0,0,0,0l0,0C649.3,1728.3,655.9,1712.9,650.4,1699.3
							C650.5,1699.4,650.4,1699.4,650.4,1699.3z"/>
						<path class="st10" d="M650.4,1699.3L650.4,1699.3c-5.4-13.5-20.7-20.2-34.2-14.8c0,0,0,0,0,0l0,0
							c-13.5,5.4-20.1,20.8-14.7,34.3l0,0c5.3,13.5,20.7,20.2,34.2,14.9c0,0,0,0,0,0l0,0C649.3,1728.3,655.9,1712.9,650.4,1699.3
							C650.5,1699.4,650.4,1699.4,650.4,1699.3z"/>
						<path class="st6" d="M1815.6,1015.3L1815.6,1015.3c-1.6-3.9-6-5.8-9.9-4.3l0,0c-3.9,1.6-5.8,6-4.2,9.8c0,0,0,0,0,0l0,0
							c1.5,3.9,6,5.8,9.9,4.3l0,0C1815.2,1023.7,1817.1,1019.2,1815.6,1015.3C1815.6,1015.4,1815.6,1015.3,1815.6,1015.3z"/>
						<path class="st7" d="M1815.6,1015.3L1815.6,1015.3c-1.6-3.9-6-5.8-9.9-4.3l0,0c-3.9,1.6-5.8,6-4.2,9.8c0,0,0,0,0,0l0,0
							c1.5,3.9,6,5.8,9.9,4.3l0,0C1815.2,1023.7,1817.1,1019.2,1815.6,1015.3C1815.6,1015.4,1815.6,1015.3,1815.6,1015.3z"/>
						<path class="st8" d="M1830.7,1009.3L1830.7,1009.3c-4.9-12.3-18.8-18.3-31.1-13.4l0,0c-12.3,4.9-18.2,18.9-13.3,31.1l0,0
							c4.9,12.3,18.8,18.3,31.1,13.5c0,0,0,0,0,0l0,0C1829.7,1035.5,1835.6,1021.6,1830.7,1009.3z"/>
						<path class="st7" d="M1830.7,1009.3L1830.7,1009.3c-4.9-12.3-18.8-18.3-31.1-13.4l0,0c-12.3,4.9-18.2,18.9-13.3,31.1l0,0
							c4.9,12.3,18.8,18.3,31.1,13.5c0,0,0,0,0,0l0,0C1829.7,1035.5,1835.6,1021.6,1830.7,1009.3z"/>
						<path class="st8" d="M706.1,1667.1L706.1,1667.1c-3-7.5-11.5-11.1-19-8.2l0,0c-7.5,3-11.1,11.5-8.1,18.9c0,0,0,0,0,0.1l0,0
							c3,7.5,11.5,11.2,19,8.2l0,0C705.5,1683.1,709.1,1674.6,706.1,1667.1C706.1,1667.1,706.1,1667.1,706.1,1667.1z"/>
						<path class="st7" d="M706.1,1667.1L706.1,1667.1c-3-7.5-11.5-11.1-19-8.2l0,0c-7.5,3-11.1,11.5-8.1,18.9c0,0,0,0,0,0.1l0,0
							c3,7.5,11.5,11.2,19,8.2l0,0C705.5,1683.1,709.1,1674.6,706.1,1667.1C706.1,1667.1,706.1,1667.1,706.1,1667.1z"/>
						<path class="st6" d="M700.4,1669.4L700.4,1669.4c-1.7-4.3-6.6-6.4-10.9-4.7l0,0c-4.3,1.7-6.5,6.6-4.7,11c0,0,0,0,0,0l0,0
							c1.7,4.3,6.6,6.4,11,4.7l0,0C700,1678.7,702.1,1673.8,700.4,1669.4C700.4,1669.5,700.4,1669.4,700.4,1669.4z"/>
						<path class="st7" d="M700.4,1669.4L700.4,1669.4c-1.7-4.3-6.6-6.4-10.9-4.7l0,0c-4.3,1.7-6.5,6.6-4.7,11c0,0,0,0,0,0l0,0
							c1.7,4.3,6.6,6.4,11,4.7l0,0C700,1678.7,702.1,1673.8,700.4,1669.4C700.4,1669.5,700.4,1669.4,700.4,1669.4z"/>
						<path class="st6" d="M732.6,1618L732.6,1618c-1.7-4.3-6.5-6.4-10.8-4.7c0,0,0,0,0,0l0,0c-2,0.8-3.7,2.4-4.5,4.4
							c-0.9,2-0.9,4.3-0.1,6.4l0,0c1.7,4.3,6.5,6.4,10.8,4.7l0,0C732.3,1627.1,734.4,1622.3,732.6,1618
							C732.6,1618,732.6,1618,732.6,1618z"/>
						<path class="st7" d="M732.6,1618L732.6,1618c-1.7-4.3-6.5-6.4-10.8-4.7c0,0,0,0,0,0l0,0c-2,0.8-3.7,2.4-4.5,4.4
							c-0.9,2-0.9,4.3-0.1,6.4l0,0c1.7,4.3,6.5,6.4,10.8,4.7l0,0C732.3,1627.1,734.4,1622.3,732.6,1618
							C732.6,1618,732.6,1618,732.6,1618z"/>
						<path class="st8" d="M749.3,1611.3L749.3,1611.3c-5.4-13.5-20.7-20.2-34.2-14.8l0,0c-13.5,5.4-20.1,20.8-14.7,34.3
							c0,0,0,0,0,0l0,0c5.4,13.5,20.7,20.2,34.2,14.8l0,0C748.2,1640.2,754.8,1624.8,749.3,1611.3z"/>
						<path class="st7" d="M749.3,1611.3L749.3,1611.3c-5.4-13.5-20.7-20.2-34.2-14.8l0,0c-13.5,5.4-20.1,20.8-14.7,34.3
							c0,0,0,0,0,0l0,0c5.4,13.5,20.7,20.2,34.2,14.8l0,0C748.2,1640.2,754.8,1624.8,749.3,1611.3z"/>
						<path class="st6" d="M1968.6,770.9L1968.6,770.9c-2.2-5.5-8.4-8.2-14-6c0,0,0,0,0,0l0,0c-5.5,2.2-8.2,8.5-6,14l0,0
							c2.2,5.5,8.5,8.2,14,6c0,0,0,0,0,0l0,0C1968.1,782.7,1970.8,776.4,1968.6,770.9C1968.6,770.9,1968.6,770.9,1968.6,770.9z"/>
						<path class="st7" d="M1968.6,770.9L1968.6,770.9c-2.2-5.5-8.4-8.2-14-6c0,0,0,0,0,0l0,0c-5.5,2.2-8.2,8.5-6,14l0,0
							c2.2,5.5,8.5,8.2,14,6c0,0,0,0,0,0l0,0C1968.1,782.7,1970.8,776.4,1968.6,770.9C1968.6,770.9,1968.6,770.9,1968.6,770.9z"/>
						<path class="st8" d="M805.8,1703.4L805.8,1703.4c-5.4-13.5-20.7-20.2-34.2-14.8l0,0c-13.5,5.4-20.1,20.8-14.7,34.3l0,0
							c5.4,13.5,20.7,20.2,34.2,14.8c0,0,0,0,0,0l0,0C804.7,1732.3,811.2,1716.9,805.8,1703.4z"/>
						<path class="st9" d="M805.8,1703.4L805.8,1703.4c-5.4-13.5-20.7-20.2-34.2-14.8l0,0c-13.5,5.4-20.1,20.8-14.7,34.3l0,0
							c5.4,13.5,20.7,20.2,34.2,14.8c0,0,0,0,0,0l0,0C804.7,1732.3,811.2,1716.9,805.8,1703.4z"/>
						<path class="st8" d="M826,1550.4L826,1550.4c-5.4-13.5-20.7-20.2-34.2-14.8c0,0,0,0,0,0l0,0c-6.5,2.6-11.7,7.7-14.4,14.1
							c-2.8,6.4-2.8,13.7-0.2,20.2l0,0c5.4,13.6,20.7,20.2,34.2,14.8c0,0,0,0,0,0l0,0C824.8,1579.3,831.4,1563.9,826,1550.4
							C826,1550.4,826,1550.4,826,1550.4z"/>
						<path class="st9" d="M826,1550.4L826,1550.4c-5.4-13.5-20.7-20.2-34.2-14.8c0,0,0,0,0,0l0,0c-6.5,2.6-11.7,7.7-14.4,14.1
							c-2.8,6.4-2.8,13.7-0.2,20.2l0,0c5.4,13.6,20.7,20.2,34.2,14.8c0,0,0,0,0,0l0,0C824.8,1579.3,831.4,1563.9,826,1550.4
							C826,1550.4,826,1550.4,826,1550.4z"/>
						<path class="st6" d="M875.9,1592.5L875.9,1592.5c-2.2-5.5-8.5-8.2-14-6c0,0,0,0,0,0l0,0c-2.7,1.1-4.8,3.1-5.9,5.7
							c-1.1,2.6-1.2,5.6-0.1,8.2l0,0c2.2,5.5,8.5,8.2,14,6c0,0,0,0,0,0l0,0C875.4,1604.3,878.1,1598.1,875.9,1592.5z"/>
						<path class="st7" d="M875.9,1592.5L875.9,1592.5c-2.2-5.5-8.5-8.2-14-6c0,0,0,0,0,0l0,0c-2.7,1.1-4.8,3.1-5.9,5.7
							c-1.1,2.6-1.2,5.6-0.1,8.2l0,0c2.2,5.5,8.5,8.2,14,6c0,0,0,0,0,0l0,0C875.4,1604.3,878.1,1598.1,875.9,1592.5z"/>
						<path class="st8" d="M890.4,1586.8L890.4,1586.8c-5.4-13.6-20.7-20.2-34.2-14.8c0,0,0,0,0,0l0,0c-6.5,2.6-11.7,7.7-14.4,14.1
							c-2.7,6.4-2.8,13.7-0.2,20.2l0,0c5.4,13.6,20.7,20.2,34.2,14.8c0,0,0,0,0,0l0,0C889.2,1615.7,895.8,1600.3,890.4,1586.8
							C890.4,1586.8,890.4,1586.8,890.4,1586.8z"/>
						<path class="st9" d="M890.4,1586.8L890.4,1586.8c-5.4-13.6-20.7-20.2-34.2-14.8c0,0,0,0,0,0l0,0c-6.5,2.6-11.7,7.7-14.4,14.1
							c-2.7,6.4-2.8,13.7-0.2,20.2l0,0c5.4,13.6,20.7,20.2,34.2,14.8c0,0,0,0,0,0l0,0C889.2,1615.7,895.8,1600.3,890.4,1586.8
							C890.4,1586.8,890.4,1586.8,890.4,1586.8z"/>
						<path class="st8" d="M819,1657.7L819,1657.7c-2-5-7.7-7.5-12.7-5.5c0,0,0,0,0,0l0,0c-5,2-7.4,7.7-5.5,12.7l0,0
							c2,5,7.7,7.5,12.7,5.5c0,0,0,0,0,0l0,0C818.6,1668.4,821,1662.7,819,1657.7z"/>
						<path class="st7" d="M819,1657.7L819,1657.7c-2-5-7.7-7.5-12.7-5.5c0,0,0,0,0,0l0,0c-5,2-7.4,7.7-5.5,12.7l0,0
							c2,5,7.7,7.5,12.7,5.5c0,0,0,0,0,0l0,0C818.6,1668.4,821,1662.7,819,1657.7z"/>
						<path class="st8" d="M832.1,1652.4L832.1,1652.4c-4.9-12.3-18.8-18.3-31.1-13.5l0,0c-12.3,4.9-18.2,18.9-13.3,31.2l0,0
							c4.9,12.3,18.8,18.3,31.1,13.5l0,0C831.1,1678.6,837.1,1664.7,832.1,1652.4z"/>
						<path class="st7" d="M832.1,1652.4L832.1,1652.4c-4.9-12.3-18.8-18.3-31.1-13.5l0,0c-12.3,4.9-18.2,18.9-13.3,31.2l0,0
							c4.9,12.3,18.8,18.3,31.1,13.5l0,0C831.1,1678.6,837.1,1664.7,832.1,1652.4z"/>
						<path class="st8" d="M985.4,1646.8L985.4,1646.8c-5.4-13.5-20.7-20.2-34.2-14.8l0,0c-13.5,5.4-20.2,20.7-14.8,34.3
							c0,0,0,0,0,0l0,0c5.4,13.6,20.7,20.2,34.2,14.8c0,0,0,0,0,0l0,0C984.2,1675.7,990.8,1660.4,985.4,1646.8
							C985.5,1646.8,985.4,1646.8,985.4,1646.8z"/>
						<path class="st7" d="M985.4,1646.8L985.4,1646.8c-5.4-13.5-20.7-20.2-34.2-14.8l0,0c-13.5,5.4-20.2,20.7-14.8,34.3
							c0,0,0,0,0,0l0,0c5.4,13.6,20.7,20.2,34.2,14.8c0,0,0,0,0,0l0,0C984.2,1675.7,990.8,1660.4,985.4,1646.8
							C985.5,1646.8,985.4,1646.8,985.4,1646.8z"/>
						<line class="st12" x1="2282" y1="662.3" x2="2261.3" y2="690.8"/>
						<line class="st7" x1="2282" y1="662.3" x2="2261.3" y2="690.8"/>
						<path class="st6" d="M1471.7,1399.1L1471.7,1399.1c-1.9-4.9-7.5-7.4-12.5-5.4l0,0c-2.4,0.9-4.3,2.8-5.2,5.1
							c-1,2.4-1,5-0.1,7.4l0,0c2,4.9,7.5,7.4,12.5,5.4l0,0C1471.3,1409.7,1473.7,1404.1,1471.7,1399.1
							C1471.7,1399.2,1471.7,1399.1,1471.7,1399.1z"/>
						<path class="st7" d="M1471.7,1399.1L1471.7,1399.1c-1.9-4.9-7.5-7.4-12.5-5.4l0,0c-2.4,0.9-4.3,2.8-5.2,5.1
							c-1,2.4-1,5-0.1,7.4l0,0c2,4.9,7.5,7.4,12.5,5.4l0,0C1471.3,1409.7,1473.7,1404.1,1471.7,1399.1
							C1471.7,1399.2,1471.7,1399.1,1471.7,1399.1z"/>
						<path class="st8" d="M1490.9,1391.5L1490.9,1391.5c-6.2-15.6-23.8-23.2-39.4-17l0,0c-15.5,6.2-23.1,23.9-16.9,39.4
							c0,0,0,0,0,0l0,0c6.2,15.6,23.8,23.2,39.4,17l0,0C1489.6,1424.7,1497.2,1407,1490.9,1391.5
							C1490.9,1391.5,1490.9,1391.5,1490.9,1391.5z"/>
						<path class="st7" d="M1490.9,1391.5L1490.9,1391.5c-6.2-15.6-23.8-23.2-39.4-17l0,0c-15.5,6.2-23.1,23.9-16.9,39.4
							c0,0,0,0,0,0l0,0c6.2,15.6,23.8,23.2,39.4,17l0,0C1489.6,1424.7,1497.2,1407,1490.9,1391.5
							C1490.9,1391.5,1490.9,1391.5,1490.9,1391.5z"/>
						<line class="st12" x1="2200.4" y1="849.2" x2="2263.5" y2="818.3"/>
						<line class="st7" x1="2200.4" y1="849.2" x2="2263.5" y2="818.3"/>
						<line class="st12" x1="2263.7" y1="798" x2="2240.7" y2="788.3"/>
						<line class="st7" x1="2263.7" y1="798" x2="2240.7" y2="788.3"/>
						<line class="st12" x1="1434.9" y1="1390.6" x2="1376.4" y2="1384.8"/>
						<line class="st7" x1="1434.9" y1="1390.6" x2="1376.4" y2="1384.8"/>
						<line class="st12" x1="1436.7" y1="1351.1" x2="1381.3" y2="1373.2"/>
						<line class="st7" x1="1436.7" y1="1351.1" x2="1381.3" y2="1373.2"/>
						<line class="st12" x1="788" y1="1651.7" x2="749.1" y2="1631.6"/>
						<line class="st7" x1="788" y1="1651.7" x2="749.1" y2="1631.6"/>
						<line class="st12" x1="706.1" y1="1667.1" x2="714.5" y2="1645.4"/>
						<line class="st7" x1="706.1" y1="1667.1" x2="714.5" y2="1645.4"/>
						<line class="st12" x1="811.3" y1="1584.7" x2="819.4" y2="1639.2"/>
						<line class="st7" x1="811.3" y1="1584.7" x2="819.4" y2="1639.2"/>
						<line class="st12" x1="890.1" y1="1607" x2="936.7" y2="1646"/>
						<line class="st7" x1="890.1" y1="1607" x2="936.7" y2="1646"/>
						<line class="st12" x1="890.4" y1="1586.8" x2="923.1" y2="1572.1"/>
						<line class="st9" x1="890.4" y1="1586.8" x2="923.1" y2="1572.1"/>
						<line class="st12" x1="1177.3" y1="1577.5" x2="1180.2" y2="1676.8"/>
						<line class="st9" x1="1177.3" y1="1577.5" x2="1180.2" y2="1676.8"/>
						<line class="st12" x1="1337" y1="1418.3" x2="1382.9" y2="1444.4"/>
						<line class="st9" x1="1337" y1="1418.3" x2="1382.9" y2="1444.4"/>
						<line class="st12" x1="1789" y1="1027.6" x2="1702.4" y2="1084.3"/>
						<line class="st7" x1="1789" y1="1027.6" x2="1702.4" y2="1084.3"/>
						<line class="st12" x1="1239.7" y1="1607.7" x2="1203.4" y2="1677.1"/>
						<line class="st7" x1="1239.7" y1="1607.7" x2="1203.4" y2="1677.1"/>
						<line class="st12" x1="1189.3" y1="1565.8" x2="1258.5" y2="1681.1"/>
						<line class="st7" x1="1189.3" y1="1565.8" x2="1258.5" y2="1681.1"/>
						<line class="st12" x1="1258.2" y1="1699.5" x2="1219.6" y2="1693.8"/>
						<line class="st7" x1="1258.2" y1="1699.5" x2="1219.6" y2="1693.8"/>
						<line class="st12" x1="1163.3" y1="1716.3" x2="1135.6" y2="1717.2"/>
						<line class="st7" x1="1163.3" y1="1716.3" x2="1135.6" y2="1717.2"/>
						<line class="st12" x1="1149" y1="1565.2" x2="1123" y2="1685.6"/>
						<line class="st7" x1="1149" y1="1565.2" x2="1123" y2="1685.6"/>
						<line class="st12" x1="1172.5" y1="1534.6" x2="1178.5" y2="1517.8"/>
						<line class="st7" x1="1172.5" y1="1534.6" x2="1178.5" y2="1517.8"/>
						<line class="st12" x1="1091.4" y1="1716.5" x2="929.7" y2="1719.6"/>
						<line class="st7" x1="1091.4" y1="1716.5" x2="929.7" y2="1719.6"/>
						<line class="st12" x1="915" y1="1753.9" x2="1012.3" y2="1775.3"/>
						<line class="st7" x1="915" y1="1753.9" x2="1012.3" y2="1775.3"/>
						<line class="st12" x1="801.1" y1="1638.9" x2="747.3" y2="1552.3"/>
						<line class="st7" x1="801.1" y1="1638.9" x2="747.3" y2="1552.3"/>
						<line class="st12" x1="1451.5" y1="1374.4" x2="1450.7" y2="1357.1"/>
						<line class="st7" x1="1451.5" y1="1374.4" x2="1450.7" y2="1357.1"/>
						<line class="st12" x1="1474.1" y1="1430.9" x2="1516.5" y2="1481.7"/>
						<line class="st7" x1="1474.1" y1="1430.9" x2="1516.5" y2="1481.7"/>
						<line class="st12" x1="1604.4" y1="1366.8" x2="1618.5" y2="1359.6"/>
						<line class="st7" x1="1604.4" y1="1366.8" x2="1618.5" y2="1359.6"/>
						<line class="st12" x1="1604.1" y1="1387" x2="1622.3" y2="1414.7"/>
						<line class="st7" x1="1604.1" y1="1387" x2="1622.3" y2="1414.7"/>
						<line class="st12" x1="865" y1="1680.4" x2="818.9" y2="1683.5"/>
						<line class="st9" x1="865" y1="1680.4" x2="818.9" y2="1683.5"/>
						<line class="st12" x1="791.7" y1="1688.9" x2="800.5" y2="1683.3"/>
						<line class="st7" x1="791.7" y1="1688.9" x2="800.5" y2="1683.3"/>
						<line class="st12" x1="1325.9" y1="1418.2" x2="1315.2" y2="1514.9"/>
						<line class="st11" x1="1325.9" y1="1418.2" x2="1315.2" y2="1514.9"/>
						<line class="st12" x1="1268.8" y1="1737.1" x2="1271" y2="1712.6"/>
						<line class="st11" x1="1268.8" y1="1737.1" x2="1271" y2="1712.6"/>
					</g>
				</g>
			</g>
		</g>
	</g>
</g>
</svg>
