<svg xmlns="http://www.w3.org/2000/svg" viewBox="0 0 344.63 366.29"><defs><style>.cls-1{fill:#153570;}.cls-2{fill:none;stroke:#fff;stroke-miterlimit:10;stroke-width:11px;}.cls-3{fill:#fff;}</style></defs><g id="Layer_2" data-name="Layer 2"><g id="Layer_1-2" data-name="Layer 1"><ellipse class="cls-1" cx="72.17" cy="114.53" rx="78" ry="64" transform="translate(-57.82 76.75) rotate(-41.58)"/><ellipse class="cls-1" cx="175.51" cy="154.82" rx="64" ry="87.49" transform="translate(-20.26 283.07) rotate(-74.65)"/><ellipse class="cls-1" cx="256.94" cy="114.2" rx="64" ry="87.49" transform="translate(78.78 331.73) rotate(-74.65)"/><ellipse class="cls-1" cx="123.86" cy="79.25" rx="64" ry="87.49" transform="translate(14.64 177.71) rotate(-74.65)"/><ellipse class="cls-1" cx="212.54" cy="69.97" rx="64" ry="124.4" transform="translate(88.79 256.39) rotate(-74.65)"/><ellipse class="cls-1" cx="94.79" cy="184.76" rx="31.83" ry="62.18" transform="translate(-98.78 109.58) rotate(-41.62)"/><ellipse class="cls-1" cx="155.31" cy="183.21" rx="62.18" ry="31.83" transform="translate(-84.06 163.48) rotate(-45)"/><ellipse class="cls-1" cx="132.8" cy="217.4" rx="41.89" ry="16.62" transform="translate(-120.59 191.07) rotate(-52.65)"/><path class="cls-2" d="M340.12,93.71S318.67,63,280.67,59.38s-68,26.42-68,26.42"/><path class="cls-3" d="M124.65,103.07a8.5,8.5,0,1,1-8.5,8.5,8.51,8.51,0,0,1,8.5-8.5m0-11a19.5,19.5,0,1,0,19.5,19.5,19.5,19.5,0,0,0-19.5-19.5Z"/><path class="cls-2" d="M6.58,181.11s35,19.21,70.24,4.43,45.66-58.15,45.66-58.15"/><path class="cls-3" d="M204.65,89.07a8.5,8.5,0,1,1-8.5,8.5,8.51,8.51,0,0,1,8.5-8.5m0-11a19.5,19.5,0,1,0,19.5,19.5,19.5,19.5,0,0,0-19.5-19.5Z"/><path class="cls-1" d="M82.56,288.32a8.27,8.27,0,1,1-8.27,8.26,8.27,8.27,0,0,1,8.27-8.26m0-8a16.27,16.27,0,1,0,16.27,16.26,16.27,16.27,0,0,0-16.27-16.26Z"/><path class="cls-1" d="M55.61,347.62h0A5.84,5.84,0,0,1,59.31,358a5.76,5.76,0,0,1-3.69,1.32,5.84,5.84,0,0,1-3.7-10.35,5.76,5.76,0,0,1,3.69-1.32m0-7a12.83,12.83,0,1,0,9.93,4.7,12.78,12.78,0,0,0-9.93-4.7Z"/></g></g></svg>