<svg xmlns="http://www.w3.org/2000/svg" viewBox="0 0 346 373.89"><defs><style>.cls-1{fill:#153570;}.cls-2{fill:none;stroke:#fff;stroke-miterlimit:10;stroke-width:11px;}.cls-3{fill:#fff;}</style></defs><g id="Layer_2" data-name="Layer 2"><g id="Layer_1-2" data-name="Layer 1"><ellipse class="cls-1" cx="72.8" cy="115.53" rx="78.68" ry="64.56" transform="matrix(0.75, -0.66, 0.66, 0.75, -58.32, 77.42)"/><ellipse class="cls-1" cx="177.04" cy="156.17" rx="64.56" ry="88.25" transform="translate(-20.44 285.53) rotate(-74.65)"/><ellipse class="cls-1" cx="259.18" cy="115.19" rx="64.56" ry="88.25" transform="translate(79.47 334.62) rotate(-74.65)"/><ellipse class="cls-1" cx="124.94" cy="79.94" rx="64.56" ry="88.25" transform="translate(14.77 179.26) rotate(-74.65)"/><ellipse class="cls-1" cx="214.39" cy="70.58" rx="64.56" ry="125.49" transform="translate(89.56 258.63) rotate(-74.65)"/><ellipse class="cls-1" cx="95.61" cy="186.37" rx="32.11" ry="62.72" transform="translate(-99.64 110.54) rotate(-41.62)"/><ellipse class="cls-1" cx="156.66" cy="184.81" rx="62.72" ry="32.11" transform="translate(-84.8 164.91) rotate(-45)"/><ellipse class="cls-1" cx="133.96" cy="219.29" rx="42.26" ry="16.76" transform="translate(-121.64 192.74) rotate(-52.65)"/><path class="cls-2" d="M326.9,78.13c-12.08-9.55-26.68-16.28-42.06-18-16.59-1.91-33.27,2.53-47.85,10.35a98.46,98.46,0,0,0-22.46,16.12"/><path class="cls-3" d="M125.74,126.71a14.17,14.17,0,1,1,14.17-14.17A14.18,14.18,0,0,1,125.74,126.71Z"/><path class="cls-3" d="M125.74,103.87a8.67,8.67,0,1,1-8.67,8.67,8.68,8.68,0,0,1,8.67-8.67m0-11a19.67,19.67,0,1,0,19.67,19.67,19.67,19.67,0,0,0-19.67-19.67Z"/><path class="cls-2" d="M65.59,191a70.61,70.61,0,0,0,11.9-3.79c35.55-14.91,46.05-58.66,46.05-58.66"/><path class="cls-3" d="M206.44,112.59a14.17,14.17,0,1,1,14.17-14.17A14.18,14.18,0,0,1,206.44,112.59Z"/><path class="cls-3" d="M206.44,89.75a8.67,8.67,0,1,1-8.67,8.67,8.68,8.68,0,0,1,8.67-8.67m0-11a19.67,19.67,0,1,0,19.67,19.67,19.67,19.67,0,0,0-19.67-19.67Z"/><path class="cls-1" d="M87.54,295.91a8.27,8.27,0,1,1-8.27,8.27,8.28,8.28,0,0,1,8.27-8.27m0-8a16.27,16.27,0,1,0,16.26,16.27,16.26,16.26,0,0,0-16.26-16.27Z"/><path class="cls-1" d="M60.58,355.22h0a5.84,5.84,0,0,1,5.82,6.41,5.83,5.83,0,0,1-10.32,3.12,5.83,5.83,0,0,1,4.5-9.53m0-7a12.83,12.83,0,1,0,9.94,4.7,12.73,12.73,0,0,0-9.94-4.7Z"/><path class="cls-3" d="M56.62,186.69A59.32,59.32,0,0,0,62,195.36c2.39,2.81,2-3,2-3l3,1-1-8Z"/><path class="cls-3" d="M66.5,196.35a1.5,1.5,0,0,0,0-3,1.5,1.5,0,0,0,0,3Z"/><path class="cls-3" d="M65.34,192.13l-.83-.11-.4-.05-.21,0h0a3.12,3.12,0,0,0-.41.06,2.28,2.28,0,0,0-.36.15h0l-.31.23a1.92,1.92,0,0,0-.13.17l-.13.17c0,.08-.12.29-.16.37v0l-.06.19a5.58,5.58,0,0,0-.08.57c0,.06,0,.13,0,.19v.08a3.25,3.25,0,0,0,.06.45,2.34,2.34,0,0,0,.09.24,1.15,1.15,0,0,0,.12.25,3.24,3.24,0,0,0,.24.31l.18.14a1.59,1.59,0,0,0,.21.15l.15.1a1.52,1.52,0,0,0,.34.22,2.3,2.3,0,0,0,.43.18,3.81,3.81,0,0,0,.47.07h.09l.42-.06.06,0a1,1,0,0,0,.51-.27,1.06,1.06,0,0,0,.39-.42,1.09,1.09,0,0,0,.18-.55,1.22,1.22,0,0,0,0-.6,1.49,1.49,0,0,0-.69-.9,1.51,1.51,0,0,0-1.16-.15l-.07,0,.39-.05h-.1l.4.05-.14,0,.36.15a1.61,1.61,0,0,1-.28-.17c-.08-.07-.18-.12-.26-.18l.3.23,0,0,.24.3,0-.06.15.36s0,0,0-.08l.06.4a1.61,1.61,0,0,1,0-.31l0,.39a2,2,0,0,1,.1-.4l-.15.36v0l-.23.3v0l-.3.24h0l-.36.15h0l-.4.05c.12,0,.24,0,.36,0l.37.05.75.1a1.06,1.06,0,0,0,.58-.13,1.36,1.36,0,0,0,.79-.79,1.06,1.06,0,0,0,.13-.58,1.5,1.5,0,0,0-.44-1.06l-.3-.23a1.48,1.48,0,0,0-.76-.21Z"/><path class="cls-3" d="M63.55,196.45a1.5,1.5,0,0,0,0-3,1.5,1.5,0,0,0,0,3Z"/><path class="cls-3" d="M63.42,196.26a1.5,1.5,0,0,0,0-3,1.5,1.5,0,0,0,0,3Z"/><path class="cls-3" d="M63.31,196.09a1.5,1.5,0,0,0,0-3,1.5,1.5,0,0,0,0,3Z"/><path class="cls-3" d="M63.31,196.09a1.5,1.5,0,0,0,0-3,1.5,1.5,0,0,0,0,3Z"/><path class="cls-3" d="M63.3,196.1a1.5,1.5,0,0,0,0-3,1.5,1.5,0,0,0,0,3Z"/><path class="cls-3" d="M64.93,196.77a1.5,1.5,0,0,0,0-3,1.5,1.5,0,0,0,0,3Z"/><path class="cls-3" d="M65.16,196.72a1.5,1.5,0,0,0,0-3,1.5,1.5,0,0,0,0,3Z"/><path class="cls-3" d="M65.35,196.66a1.5,1.5,0,0,0,0-3,1.5,1.5,0,0,0,0,3Z"/><path class="cls-3" d="M65.58,196.59a1.5,1.5,0,0,0,0-3,1.5,1.5,0,0,0,0,3Z"/><path class="cls-3" d="M65.88,196.5a1.5,1.5,0,0,0,0-3,1.5,1.5,0,0,0,0,3Z"/><path class="cls-3" d="M64,197.1a1.5,1.5,0,0,0,0-3,1.5,1.5,0,0,0,0,3Z"/><path class="cls-3" d="M63.84,196.89a1.5,1.5,0,0,0,0-3,1.5,1.5,0,0,0,0,3Z"/><path class="cls-3" d="M63.71,196.7a1.5,1.5,0,0,0,0-3,1.5,1.5,0,0,0,0,3Z"/><path class="cls-3" d="M63.68,196.63a1.5,1.5,0,0,0,0-3,1.5,1.5,0,0,0,0,3Z"/><path class="cls-3" d="M66.17,196.45a1.5,1.5,0,0,0,0-3,1.5,1.5,0,0,0,0,3Z"/><path class="cls-3" d="M64.61,196.88a1.5,1.5,0,0,0,0-3,1.5,1.5,0,0,0,0,3Z"/><path class="cls-3" d="M64.35,197a1.5,1.5,0,0,0,0-3,1.5,1.5,0,0,0,0,3Z"/><path class="cls-3" d="M319,72.36s-17-6,7,12c3.05,2.29,10,10,11,11,.68-5.84-5-21-6-21a48.88,48.88,0,0,0-7-5Z"/></g></g></svg>