<?xml version="1.0" encoding="utf-8"?>
<!-- Generator: Adobe Illustrator 25.3.1, SVG Export Plug-In . SVG Version: 6.00 Build 0)  -->
<svg version="1.1" xmlns="http://www.w3.org/2000/svg" xmlns:xlink="http://www.w3.org/1999/xlink" x="0px" y="0px"
	 viewBox="0 0 595.3 841.9" style="enable-background:new 0 0 595.3 841.9;" xml:space="preserve">
<style type="text/css">
	.st0{display:none;}
	.st1{display:inline;}
	.st2{opacity:0.5;fill:#C4EFFE;}
	.st3{fill:#93DDF8;}
	.st4{fill:#B2B2B2;}
	.st5{fill:none;}
	.st6{fill:#5CB2D3;}
	.st7{fill:#D0D0D0;}
	.st8{fill:#B0B0B0;}
	.st9{fill:#717171;}
	.st10{fill:#6F6F6F;}
	.st11{fill:#E7F8FF;}
	.st12{fill:#FFFFFF;}
	.st13{fill:#F2F2F2;}
	.st14{fill:#399BB2;}
	.st15{fill:#C4EFFE;}
	.st16{fill:none;stroke:#153570;stroke-width:3.5;stroke-linejoin:round;stroke-miterlimit:10;}
	.st17{fill:none;stroke:#000000;stroke-width:1.5;stroke-linejoin:round;stroke-miterlimit:10;}
	.st18{fill:none;stroke:#000000;stroke-linecap:round;stroke-linejoin:round;stroke-miterlimit:10;}
	.st19{fill:none;stroke:#153570;stroke-width:3.5;stroke-linecap:round;stroke-linejoin:round;stroke-miterlimit:10;}
	.st20{fill:none;stroke:#EB8F38;stroke-width:2.5;stroke-linecap:round;stroke-linejoin:round;stroke-miterlimit:10;}
	.st21{fill:#EB8F38;}
	.st22{fill:none;stroke:#EB8F38;stroke-width:3;stroke-linecap:round;stroke-linejoin:round;stroke-miterlimit:10;}
	.st23{fill:none;stroke:#000000;stroke-width:1.5;stroke-linecap:round;stroke-linejoin:round;stroke-miterlimit:10;}
	.st24{fill:none;stroke:#000000;stroke-width:3;stroke-linecap:round;stroke-linejoin:round;stroke-miterlimit:10;}
</style>
<g id="Layer_2" class="st0">
	<g id="Layer_2_1_" class="st1">
		
			<image style="overflow:visible;enable-background:new    ;" width="3514" height="2549" xlink:href="CFE416B0.png"  transform="matrix(0.313 0 0 0.313 -369.3242 -187.1817)">
		</image>
	</g>
</g>
<g id="Layer_5">
	<ellipse class="st2" cx="180.8" cy="353.2" rx="164.5" ry="157.9"/>
	<ellipse transform="matrix(0.1558 -0.9878 0.9878 0.1558 70.475 801.3007)" class="st2" cx="504" cy="359.4" rx="57.5" ry="45.1"/>
	<ellipse class="st2" cx="405.9" cy="340" rx="10.8" ry="13.6"/>
	<ellipse transform="matrix(0.3108 -0.9505 0.9505 0.3108 -100.578 845.3936)" class="st2" cx="532.6" cy="492" rx="8.4" ry="5.4"/>
	
		<ellipse transform="matrix(0.1558 -0.9878 0.9878 0.1558 -314.5907 954.3115)" class="st2" cx="401" cy="661.2" rx="62.1" ry="71.4"/>
	
		<ellipse transform="matrix(0.2568 -0.9665 0.9665 0.2568 -426.6746 713.8092)" class="st2" cx="250.8" cy="634.3" rx="26.6" ry="19.8"/>
</g>
<g id="Layer_3_1_">
	<path class="st3" d="M358.3,424.5c0,16.2-5.4,31.1-14.5,43.2c-18.3,5.4-45.2,4.2-61.3-2.6c-9.2-12.3-16.3-42.4-4.5-67.6
		c9.2,1.9,36.3,7.3,72.5,0.1c0.8-0.1,1.6-0.4,2.4-0.5l0,0l0,0C356.4,405.6,358.3,414.9,358.3,424.5z"/>
	<path class="st3" d="M283.5,567.4c0.1,0,0.3-0.1,0.4-0.1l0,0C283.8,567.4,283.7,567.4,283.5,567.4z"/>
	<path class="st3" d="M284,567.3l15.8-7.4c-0.3,0.2-0.7,0.4-1,0.7c-0.1,0-0.1,0.1-0.1,0.1l-0.1,0.1c-0.1,0.1-0.3,0.2-0.5,0.3
		c-0.3,0.1-0.5,0.4-0.8,0.5c-0.4,0.2-0.7,0.4-1,0.7c-0.4,0.2-0.7,0.4-1.1,0.6c-0.7,0.4-1.5,0.8-2.2,1.2c-0.4,0.1-0.7,0.4-1.1,0.5
		s-0.7,0.4-1.1,0.5c-0.7,0.3-1.5,0.6-2.3,0.9c-0.3,0.1-0.6,0.2-0.9,0.3c-0.1,0-0.1,0.1-0.3,0.1c-0.4,0.1-0.7,0.2-1.1,0.4
		c-0.3,0.1-0.6,0.1-0.8,0.2c-0.1,0-0.1,0-0.1,0c-0.1,0.1-0.4,0.1-0.5,0.1C284.5,567.1,284.3,567.2,284,567.3z"/>
	<path class="st3" d="M321.8,497.2c-0.7-3.2-1.8-6.3-3-9.2L321.8,497.2l-15.8,6.7l-7,3l22.4,19.2c-2.3,9.3-6.4,17.7-11.8,24.3
		c-0.1,0.1-0.2,0.2-0.3,0.4c-5.4-0.4-11-1.8-16-3.7c-22.6,20.5-41.8,8.4-51.9-1.7c1.6,2.8,3.4,5.4,5.4,7.8
		c5.1,6.1,11.6,10.6,18.9,13c1.3,0.4,2.8,0.8,4.2,1.1l0,0c0.5,0.1,1,0.1,1.6,0.2c3.7,0.5,7.4,0.4,11-0.1c0.3-0.1,0.6-0.1,0.9-0.1
		c-0.1,0-0.3,0.1-0.4,0.1c-0.1,0.1-0.3,0.1-0.4,0.1c-0.2,0.1-0.4,0.1-0.7,0.1c-0.2,0.1-0.4,0.1-0.7,0.1c-0.2,0.1-0.5,0.1-0.7,0.1
		c0,0,0,0-0.1,0c-0.4,0.1-0.8,0.1-1.2,0.1c-0.4,0.1-0.9,0.1-1.3,0.1c-0.4,0-0.7,0.1-1,0.1s-0.8,0-1.2,0c-1.7,0-3.4-0.1-5.1-0.4
		c-0.5-0.1-1.1-0.1-1.6-0.2l0,0c-1.4-0.3-2.8-0.7-4.2-1.1c-7.3-2.4-13.8-7-18.9-13c-9.2-10.8-14.4-26.5-13-43.5c0-0.4,0.1-0.7,0.1-1
		c0-0.1,0-0.2,0.1-0.4c0-0.3,0.1-0.6,0.1-1s0.1-0.7,0.1-1v-0.2c1.1-7.4,3.3-14.3,6.4-20.4c0.1-0.1,0.1-0.4,0.3-0.5
		c0.2-0.4,0.4-0.7,0.6-1.1c9.7-17.8,27-28.6,45-26.2c14.5,2,26.2,12.2,32.6,26.3c1.8,3.9,3.2,8.1,4,12.5L321.8,497.2z"/>
	<path class="st3" d="M318.8,487.9c1.2,2.9,2.3,6,3,9.2l0,0L318.8,487.9z"/>
	<path class="st3" d="M358.3,424.5c0,9.9-2,19.4-5.7,28c-5.5,12.8-14.6,23.7-26.1,31.4c-1.1,0.7-2.2,1.4-3.3,2.1
		c-2.1,1.2-4.1,2.3-6.2,3.3c-9,4.2-19.1,6.5-29.7,6.5c-13.8,0-26.6-4-37.5-10.7c-2.8-1.7-5.4-3.6-7.9-5.7
		c-15.7-13.1-25.7-32.7-25.7-54.8c0-39.3,31.8-71.2,71.1-71.2C326.5,353.4,358.3,385.3,358.3,424.5z"/>
	<path class="st3" d="M233,509c-0.1,0.4-0.1,0.8-0.1,1.2c0-0.1,0-0.1,0-0.2C232.9,509.6,233,509.2,233,509z"/>
	<path class="st3" d="M232.9,510.1c-1.4,16.9,3.7,32.5,13,43.3c5.1,6.1,11.6,10.6,18.9,13c1.4,0.4,2.8,0.8,4.2,1.1
		C245.9,563.5,230.3,538.5,232.9,510.1z"/>
	<path class="st3" d="M322.8,519.2c-0.3,2.3-0.7,4.6-1.3,6.8l-22.4-19.2l7-3l15.7-6.7l-3-9.2c1.2,2.9,2.3,6,3,9.2l0.3-0.1
		c1.2,5.6,1.5,11.5,1.2,17.6C323.2,516.1,323,517.7,322.8,519.2z"/>
	<polygon class="st4" points="450.4,545.2 379.1,575.5 321.5,526.1 313.7,519.4 312.9,518.7 299.1,506.8 306.1,503.9 309.4,502.5 
		321.8,497.2 321.8,497.2 322.1,497.1 343.6,487.9 357.7,482 370.4,476.6 	"/>
	<line class="st5" x1="313.7" y1="519.4" x2="312.9" y2="518.7"/>
	<path class="st6" d="M343.6,487.9l-21.5,9.2l-0.3,0.1l-0.1,0.1l-12.4,5.3c-0.3-0.5-0.6-1-1-1.5c0,0-46.9,8.9-66.9-19.5l0.3-2.3
		c2.5,2.1,5.1,4,7.9,5.7c10.9,6.7,23.7,10.7,37.5,10.7c10.6,0,20.7-2.3,29.7-6.5c0.8-0.4,1.7-0.8,2.5-1.3c1-0.5,2-1.1,3-1.6
		c1.1-0.4,2.3-0.9,3.4-1.4c1.2-0.5,2.3-1,3.5-1.6C335,483.6,339.9,485.4,343.6,487.9z"/>
	<polygon class="st7" points="371.2,476.6 450.5,545.2 485.3,472.2 406,403.6 	"/>
	<polygon class="st8" points="409.8,403.7 489.3,472.8 485.4,472.4 405.9,403.2 	"/>
	<polygon class="st9" points="450.7,545.1 452,550.9 489.3,472.8 485.1,472.3 	"/>
	<polygon class="st10" points="376.6,583.4 452.3,550.4 450.5,545.2 378.7,576.1 	"/>
	<path class="st10" d="M298.8,506.8l20.9,17.9c-5.3-2.9-11.9-5-18-5.7l-5-4.2L298.8,506.8z"/>
	<path class="st10" d="M378.7,575.3l-2.1,8L329.8,543c0.4-0.7,0.7-1.6,1-2.5c0.7-2.6,0.1-5.2-1.4-7.6L378.7,575.3z"/>
	<polygon class="st11" points="379.1,475.3 409.2,501.3 435.9,524.5 448.2,535 455.3,519.9 460.4,508.7 476.8,473.4 446.5,447.1 
		437,438.9 437,438.9 411.7,417.1 408.3,414.1 407.7,413.6 407.4,414.4 395.3,440.1 	"/>
	<polygon class="st12" points="437,438.9 455.3,519.9 460.4,508.7 446.5,447.1 	"/>
	<polygon class="st12" points="395.3,440.1 409.2,501.3 435.9,524.5 411.7,417.1 408.3,414.1 407.7,413.6 407.4,414.4 	"/>
	<path class="st3" d="M321.8,497.2c-0.7-3.2-1.8-6.3-3-9.2L321.8,497.2l0.1,0.4C321.9,497.5,321.8,497.3,321.8,497.2z M233.3,506.5
		c1.1-7.4,3.3-14.3,6.4-20.4C236.5,492.2,234.3,499.1,233.3,506.5z M310.2,551l-0.1-0.1l-0.4-0.4c-0.1,0.1-0.2,0.2-0.3,0.4
		c-0.4,0.4-0.7,0.9-1.1,1.3c0,0.1-0.1,0.1-0.1,0.1c-0.1,0.1-0.2,0.2-0.4,0.4c-0.2,0.3-0.5,0.6-0.7,0.8l-0.1,0.1
		c-0.4,0.4-0.8,0.9-1.2,1.2c-0.4,0.4-0.8,0.8-1.2,1.2c-0.4,0.4-0.7,0.7-1.2,1c-0.4,0.4-1,0.8-1.4,1.2c-0.3,0.3-0.7,0.5-1,0.7
		l-0.1,0.1c-0.1,0-0.1,0.1-0.1,0.1c-0.3,0.2-0.7,0.5-1,0.7l0,0l0,0l0,0c-0.3,0.2-0.7,0.4-1,0.7c-0.1,0-0.1,0.1-0.1,0.1l-0.1,0.1
		c-0.1,0.1-0.3,0.2-0.5,0.3c-0.3,0.1-0.5,0.4-0.8,0.5c-0.4,0.2-0.7,0.4-1,0.7c-0.4,0.2-0.7,0.4-1.1,0.6c-0.7,0.4-1.5,0.8-2.2,1.2
		c-0.4,0.1-0.7,0.4-1.1,0.5c-0.4,0.1-0.7,0.4-1.1,0.5c-0.7,0.3-1.5,0.6-2.3,0.9c-0.3,0.1-0.6,0.2-0.9,0.3c-0.1,0-0.1,0.1-0.3,0.1
		c-0.4,0.1-0.7,0.2-1.1,0.4c-0.3,0.1-0.5,0.1-0.8,0.2c-0.1,0-0.1,0-0.1,0c-0.1,0.1-0.4,0.1-0.5,0.1c-0.3,0.1-0.6,0.1-0.9,0.2l0,0
		c-0.1,0-0.3,0.1-0.4,0.1l0,0c-0.1,0-0.3,0.1-0.4,0.1c-0.1,0.1-0.3,0.1-0.4,0.1c-0.2,0.1-0.4,0.1-0.7,0.1c-0.2,0.1-0.4,0.1-0.7,0.1
		c-0.2,0.1-0.5,0.1-0.7,0.1c0,0,0,0-0.1,0c-0.4,0.1-0.8,0.1-1.2,0.1c-0.4,0.1-0.9,0.1-1.3,0.1c-0.4,0-0.7,0.1-1,0.1s-0.8,0-1.2,0
		c-1.7,0-3.4-0.1-5.1-0.4c-0.5-0.1-1.1-0.1-1.6-0.2c1.5,0.3,3,0.5,4.5,0.7c3.1,0.3,6.1,0.1,9-0.3l0,0h0.1c7.5-1.2,14.6-4.5,20.7-9.6
		l0,0c0.7-0.6,1.4-1.2,2.1-1.8c1.6-1.5,3.1-3.1,4.5-4.8c0.1-0.1,0.3-0.4,0.4-0.5L310.2,551z"/>
	<path class="st12" d="M358.3,424.5c0,13.3-3.7,25.8-10,36.4c-1.4,2.3-2.9,4.5-4.5,6.7c-18.3,5.4-45.2,4.2-61.3-2.6
		c-9.2-12.3-16.3-42.4-4.5-67.6c2.3,0.5,5.7,1.2,10,1.8c13.2,2,35.2,3.7,62.4-1.7c0.8-0.1,1.6-0.4,2.4-0.5l0,0l0,0
		C356.4,405.6,358.3,414.9,358.3,424.5z"/>
	<path class="st3" d="M264.7,566.5c-0.1,1.3-0.2,2.7-0.5,4.1c-0.5,2.8-1.5,5.7-3,8.6c-2.2,4.2-5.3,8.1-8.6,10.6
		c-1.5,1.1-2.9,2.1-4.4,2.7c-3.7,1.6-7.6,1.8-10.8,0.1c-1.8-1-3.3-2.5-4.5-4.3c-0.4-0.7-0.7-1.4-1-2.1c-0.4-0.9-0.7-1.9-0.8-2.9
		c-0.1-0.8-0.2-1.7-0.2-2.6l0,0c-0.1-4.8,1.6-10.4,4.2-15.5c2.6-5.1,6.3-9.1,10.3-11.5c0.1-0.1,0.3-0.1,0.4-0.2l2.4,1.7L264,566
		L264.7,566.5z"/>
	<path class="st3" d="M312.9,589.7c-0.1,0.1-0.1,0.3-0.1,0.4c-1.5,4-4.2,7-7.8,8.2c-3.1,1-6.4,0.4-9.6-1.3c-0.4-0.2-0.7-0.4-1-0.6
		c-4.3-2.9-8.4-8.7-10.6-15.3c-1.3-4.2-1.8-8.4-1.5-12.1c0-0.4,0.1-0.7,0.1-1l0,0h0.1l1.4-0.7l0,0l0,0l0,0l15.8-7.4l0,0l0,0l2.2-1
		l0,0l1.1-0.5l0,0c3.7,3,6.7,7.7,8.6,13.4C313.9,578,314.4,584.9,312.9,589.7z"/>
	<path class="st3" d="M279.3,539.4c8.6,10.2,43,18.5,50.3,4c0.4-0.7,0.7-1.6,1-2.5c0.7-2.6,0.1-5.2-1.4-7.6c-2-3.2-5.4-6-9.7-8.3
		c-5.3-2.9-11.9-5-18-5.7c-3.7-0.4-7.3-0.4-10.2,0.3"/>
	<path class="st5" d="M343.7,467.3c-18.3,5.4-45.2,4.2-61.3-2.6c-9.2-12.3-16.3-42.4-4.5-67.6c9.2,1.9,36.3,7.3,72.5,0.1
		c0.8-0.1,1.6-0.4,2.4-0.5l0,0"/>
	<path class="st13" d="M348.3,461c-1.4,2.3-2.9,4.5-4.5,6.7c-18.3,5.4-45.2,4.2-61.3-2.6c-9.2-12.3-16.3-42.4-4.5-67.6
		c2.3,0.5,5.7,1.2,10,1.8c-9.8,35.8,2.1,56.9,2.1,56.9C310.6,463.8,332,463.5,348.3,461z"/>
	<path class="st6" d="M309.4,550.8c-0.4,0.4-0.7,0.9-1.1,1.3c0,0.1-0.1,0.1-0.1,0.1c-0.1,0.1-0.2,0.2-0.4,0.4
		c-0.2,0.3-0.5,0.6-0.7,0.8l-0.1,0.1c-0.4,0.4-0.8,0.9-1.2,1.2c-0.4,0.4-0.8,0.8-1.2,1.2c-0.4,0.4-0.7,0.7-1.2,1
		c-0.4,0.4-1,0.8-1.4,1.2c-0.3,0.3-0.7,0.5-1,0.7l-0.1,0.1c-0.1,0-0.1,0.1-0.1,0.1c-0.3,0.2-0.7,0.5-1,0.7l0,0l0,0l0,0l-15.9,7.6
		l0,0c-0.1,0-0.3,0.1-0.4,0.1l0,0c-0.3,0.1-0.6,0.1-0.9,0.1c-3.6,0.6-7.3,0.7-11,0.1c-0.5-0.1-1-0.1-1.6-0.2l0,0
		c-1.4-0.3-2.8-0.7-4.2-1.1c-7.3-2.4-13.8-7-18.9-13c-2.1-2.3-3.8-5-5.4-7.8c10.1,10.1,29.2,22.2,51.9,1.7
		C298.3,549,304,550.4,309.4,550.8z"/>
	<path class="st6" d="M310.3,550.9l-0.1,0.1c-1.6,1.9-3.3,3.7-5.1,5.3c-1,0.9-2,1.8-3,2.6l0,0c-5.5,4.2-11.7,7.2-18.2,8.4
		c-0.1,0-0.3,0.1-0.4,0.1c0.1,0,0.3-0.1,0.4-0.1l0,0l15.8-7.4l0,0l0,0l0,0c0.3-0.2,0.7-0.5,1-0.7c0.1,0,0.1-0.1,0.1-0.1l0.1-0.1
		c0.3-0.2,0.7-0.5,1-0.7c0.4-0.4,1-0.8,1.4-1.2c0.4-0.4,0.7-0.7,1.2-1c0.4-0.4,0.8-0.8,1.2-1.2c0.4-0.4,0.8-0.8,1.2-1.2l0.1-0.1
		c0.2-0.3,0.5-0.6,0.7-0.8c0.1-0.1,0.2-0.3,0.4-0.4l0.1-0.1c0.4-0.4,0.7-0.9,1.1-1.3c0.2,0,0.4,0,0.7,0.1L310.3,550.9z"/>
	<path class="st14" d="M312.9,589.7c-1.9-15.6-7.8-20.3-7.8-20.3c-5.9,5.1-16,6.1-16,6.1c-0.4,8.9,2.7,15.6,6.4,21.6
		c-0.4-0.2-0.7-0.4-1-0.6c-4.3-2.9-8.4-8.7-10.6-15.3c-1.3-4.2-1.8-8.4-1.5-12.1c0.1-0.4,0.1-0.7,0.2-1l0,0c0-0.1,0.1-0.3,0.1-0.4
		l0,0c0.3-0.1,0.6-0.1,0.9-0.1l0,0c0.1,0,0.3-0.1,0.4-0.1l0,0l15.8-7.4l0,0l0,0l0,0c0.3-0.2,0.7-0.5,1-0.7c0.1,0,0.1-0.1,0.1-0.1
		l0.1-0.1c0.3-0.2,0.7-0.5,1-0.7c0.4-0.4,1-0.8,1.4-1.2c0.4-0.4,0.7-0.7,1.2-1c0.1,0.1,0.4,0.2,0.5,0.4c0.1,0.1,0.1,0.1,0.2,0.1
		c-0.7,0.7-1.4,1.2-2.1,1.8l0,0l0,0c3.7,3,6.7,7.7,8.6,13.4C313.9,578,314.4,584.9,312.9,589.7z"/>
	<path class="st14" d="M264.2,570.6c-0.5,2.8-1.5,5.7-3,8.6c-2.2,4.2-5.3,8.1-8.6,10.6c2.9-5.2,4.9-11.1,4.5-18.5c0,0-10.2-1-16-6.1
		c0,0-6.6,5.3-8.1,22.9c-0.4-0.7-0.7-1.4-1-2.1c-0.4-1.7-0.7-3.6-1-5.5l0,0c-0.1-4.8,1.6-10.4,4.2-15.5c2.6-5.1,6.3-9.1,10.3-11.5
		l2.9,1.4l15.8,10.8C264.2,567.5,264.2,569,264.2,570.6z"/>
	<path class="st14" d="M343.6,487.9l-21.5,9.2c-0.6-3.2-1.6-6.3-2.6-9.2c-0.1-0.2-0.1-0.4-0.2-0.6c1.1-0.3,2.2-0.7,3.2-1.1
		c1.1-0.4,2.3-0.9,3.4-1.4c1.2-0.5,2.3-1,3.5-1.6C335,483.6,339.9,485.4,343.6,487.9z"/>
	<path class="st15" d="M253.1,474.5c2-1-8.4-8.3-16.2-20.3c-7-10.8-9.5-24.4-10.8-22.6c-2.3,3.2,1.9,17.7,6.5,25.5
		C238.1,466.7,250.2,476.1,253.1,474.5z"/>
	<path class="st15" d="M225.8,425.2c1,0,0.8-3.2,0.9-7.3c0.1-3.7,0.8-7.7-0.1-7.5c-1.7,0.3-2.8,4.6-3.1,7.2
		C223.2,420.8,224.5,425,225.8,425.2z"/>
	<path class="st15" d="M253.1,548.6c1.8-0.5-5.1-9-8.9-21.1c-3.4-10.9-2.5-23.4-3.9-22.1c-2.7,2.4-2.4,16-0.3,23.8
		C242.4,538.7,250.3,549.4,253.1,548.6z"/>
</g>
<g id="Layer_4_1_">
	<path class="st16" d="M327.6,482.8c5.1,0.4,12.4,2.3,15.7,5.3"/>
	<path class="st16" d="M322,497.2c-0.8-3.4-1.8-6.6-3.1-9.6 M243.1,479.9c-5.5,8.2-9.2,18.4-10.1,29.6c-1.5,17,3.7,32.7,13,43.5
		c5.2,6.1,11.6,10.6,18.9,13c2.8,1,5.7,1.5,8.7,1.8c3.1,0.3,6.1,0.1,9-0.3c7.5-1.2,14.7-4.5,20.8-9.7c2.3-2,4.5-4.2,6.6-6.7
		c0.1-0.1,0.3-0.4,0.4-0.5"/>
	<polygon class="st17" points="299.1,506.8 379.1,575.5 450.4,545.2 370.4,476.6 	"/>
	<polyline class="st18" points="301.6,518.9 296.7,514.7 298.8,506.8 319.6,524.6 319.6,524.6 329.2,532.9 378.7,575.3 376.6,583.3 
		329.7,543 	"/>
	<path class="st19" d="M343.7,467.3c-18.3,5.4-45.2,4.2-61.3-2.6c-9.2-12.3-16.3-42.4-4.5-67.6c9.2,1.9,36.3,7.3,72.5,0.1
		c0.8-0.1,1.6-0.4,2.4-0.5l0,0"/>
	<path class="st16" d="M287.3,353c-39.3,0-71.1,31.9-71.1,71.2c0,25.6,13.4,47.9,33.6,60.5c10.9,6.8,23.7,10.7,37.5,10.7
		c13.1,0,25.4-3.6,36-9.8c21-12.4,35.1-35.2,35.1-61.4C358.3,384.8,326.5,353,287.3,353z"/>
	<path class="st19" d="M264.8,566.1c-0.1,4-1.3,8.4-3.5,12.6c-3.2,6.2-8.2,11.3-13,13.3c-3.7,1.6-7.6,1.8-10.8,0.1
		c-3.2-1.8-5.5-5.2-6.3-9.4c-1-5.1,0.9-12,4-18c2.7-5.3,6.6-9.4,10.6-11.7"/>
	<path class="st19" d="M303.3,557.9c3.7,3,6.7,7.7,8.6,13.4c2.1,6.4,2.7,13.6,0.9,18.5c-1.5,4-4.2,7-7.8,8.2
		c-3.4,1.1-7.3,0.3-10.6-1.9c-4.3-2.9-8.5-8.7-10.6-15.3c-1.5-4.5-1.8-9.1-1.3-13.1"/>
	<path class="st20" d="M298.3,434.1"/>
	<path class="st20" d="M286.2,436.7"/>
	<ellipse class="st21" cx="345.3" cy="425.4" rx="4.5" ry="8.7"/>
	<ellipse class="st21" cx="301" cy="426.9" rx="4.5" ry="8.7"/>
	<path class="st22" d="M319.9,451.1c3.5-7.7,8.8-3.6,9.9,0"/>
	<path class="st19" d="M279.3,539c8.6,10.2,43,18.5,50.3,4c0.4-0.7,0.7-1.6,1-2.5c0.7-2.6,0.1-5.2-1.4-7.6c-2-3.2-5.4-6-9.7-8.3
		c-5.3-2.9-11.9-5-18-5.7c-3.7-0.4-7.3-0.4-10.2,0.3"/>
	<polygon class="st23" points="371.2,476.6 450.5,545.2 485.3,472.2 406,403.6 	"/>
	<polygon class="st18" points="409.8,403.7 489.3,472.8 485.4,472.4 405.9,403.2 	"/>
	<polygon class="st18" points="450.9,544.5 452.3,550.4 489.3,472.8 485.1,472.3 	"/>
	<polygon class="st18" points="376.6,583.4 452.3,550.4 450.5,545.2 378.7,576.1 	"/>
	<g>
		<polyline class="st24" points="419.6,437.9 401,449 418.9,460.3 		"/>
		<line class="st24" x1="399.4" y1="483.5" x2="421.5" y2="440"/>
		
			<ellipse transform="matrix(0.4276 -0.904 0.904 0.4276 -184.7753 657.0443)" class="st24" cx="426.4" cy="474.4" rx="26.1" ry="8.6"/>
		<polyline class="st24" points="458.6,469.6 440.1,480.7 458,492 		"/>
		<line class="st24" x1="438.5" y1="515.3" x2="460.5" y2="471.8"/>
	</g>
</g>
</svg>
