<svg id="Layer_1" data-name="Layer 1" xmlns="http://www.w3.org/2000/svg" viewBox="0 0 373.2 452.88"><defs><style>.cls-1{fill:#fefefe;}.cls-2{fill:#010101;}.cls-3{fill:#020202;}.cls-4{fill:#21386d;}.cls-5{fill:#2d3e66;}.cls-6{fill:#c13a2e;}.cls-7{fill:#323f61;}.cls-8{fill:#363636;}.cls-9{fill:#94def9;}.cls-10{fill:#f6f5f0;}.cls-11{fill:#74291f;}.cls-12{fill:#1f386c;}.cls-13{fill:#030303;}.cls-14{fill:#050505;}.cls-15{fill:#c83a2d;}.cls-16{fill:#c83b2d;}.cls-17{fill:#c73b2d;}.cls-18{fill:#f0f3f4;}.cls-19{fill:#213563;}.cls-20{fill:#293352;}.cls-21{fill:#ec8f39;}.cls-22{fill:#ea9140;}</style></defs><path class="cls-1" d="M111,194.89H484.2V647.77H111ZM346.18,575.28a8.46,8.46,0,0,0,1.53-.68,33,33,0,0,0,8-8.94,75.79,75.79,0,0,0,11.58-40.73v-1.26a26.58,26.58,0,0,0,12.08-2.79c9.89-5,16.45-13,20.53-23.13,2.78-6.91,3.87-14.07,1.94-21.43-2.88-11-12.42-16.12-23-13.38-8.07,2.09-14.22,7-19.28,13.35-1.94,2.44-3.53,5.16-5.14,7.54l-6.3-7c.78-.45,1.54-.94,2.34-1.34,4.61-2.35,9.3-4.54,13.82-7.05,5.48-3,10.25-7.13,15-11.17a104.44,104.44,0,0,0,22.39-27A105.92,105.92,0,0,0,416,363.58c-.31-3.08-.46-6.19-1-9.25a90.17,90.17,0,0,0-5.21-17.61,116,116,0,0,0-11.16-21.57c-4-6.15-9.06-11.44-14-16.86-4.37-4.84-9.68-8.51-15-12.17a113.73,113.73,0,0,0-35.48-16.57,80.61,80.61,0,0,0-8.21-1.48,69.37,69.37,0,0,0-8.8-1.1c-7.45-.16-14.92-.72-22.35.4.11-3.06-1.61-5.25-3.52-7.33a4.46,4.46,0,0,0-5.72-1.18c-3.23,1.65-6.38,3.44-9.58,5.15-1.8,1-3.62,1.89-5.44,2.83l-2.14-3.73q-8.25-15.95-16.52-31.88a9.21,9.21,0,0,0-1.77-2.22,2.66,2.66,0,0,0-2.74-.79c-1.48.45-3,.78-4.45,1.33a169.05,169.05,0,0,0-23.85,11.64c-4.11,2.36-8.06,5-12.08,7.52-.72.48-1.47.94-2.16,1.46-1.67,1.27-1.88,2.26-1,4.23.21.48.39,1,.62,1.42q4.51,9.19,9.05,18.37c2.21,4.47,4.46,8.93,6.69,13.39.48,1.34,1,2.68,1.46,4-1,.4-2,.76-2.91,1.22-2.89,1.42-5.81,2.8-8.63,4.36-1.64.9-3.09,2.52-2.6,4.32a46.44,46.44,0,0,0,3.54,8.55,3.18,3.18,0,0,0,3.68,1.61,59.85,59.85,0,0,0,6.39-2.77c0,.2,0,.45,0,.58q-1.71,2.41-3.46,4.8a89.86,89.86,0,0,0-7.77,13,105.35,105.35,0,0,0-7.55,19.46,116.71,116.71,0,0,0-2.77,13.58c-.65,4.41-.94,8.88-1.19,13.33-.14,2.62.2,5.27.14,7.9a75.66,75.66,0,0,0,1.57,14.33c1.76,10.26,5.41,19.87,10,29.22a103.8,103.8,0,0,0,14.25,21.69A96.77,96.77,0,0,0,244.68,465c3.66,2.43,7.49,4.61,11.24,6.91l1,.75a34.34,34.34,0,0,0-8.57,10.67c-.17-.05-.22-.05-.23-.07-.13-.25-.25-.5-.37-.75a44.15,44.15,0,0,0-8.44-12.56c-5.09-5.24-10.91-9.14-18.37-10.13a17.66,17.66,0,0,0-18.48,9.77c-3.1,6.29-3.34,12.91-2.12,19.62A43.33,43.33,0,0,0,210,509.68c6.66,7.87,14.62,13.25,25.54,12.53-.81,8.57,1.67,16.53,4.74,24.33s6.8,15.27,12.91,21.1c-1.11,1.63-2.31,3.15-3.24,4.81a32.16,32.16,0,0,0-3.59,21.61,26.56,26.56,0,0,0,7.24,14.64c6.56,6.61,15.87,7.46,23.39,2,5.47-3.93,8.53-9.47,10.11-15.89.46-1.83.68-3.73,1-5.59,7,2,14.07,2.17,21.24,1.73.18,1.12.33,2.22.56,3.31,1.51,7.06,4.76,13.08,10.65,17.45,6.9,5.12,15.45,5.17,21.8,0,5.57-4.54,8-10.69,8.34-17.72a29.55,29.55,0,0,0-.24-5.48,34.62,34.62,0,0,0-1.3-6.34C348.4,579.83,347.2,577.58,346.18,575.28Z" transform="translate(-111 -194.89)"/><path class="cls-2" d="M207,248.71c4-2.52,8-5.16,12.08-7.52A169.05,169.05,0,0,1,243,229.55c1.44-.55,3-.88,4.45-1.33a2.66,2.66,0,0,1,2.74.79,9.21,9.21,0,0,1,1.77,2.22q8.31,15.93,16.52,31.88c-.82.46-1.63.95-2.47,1.38q-11.72,6-23.45,11.88Q231.4,282,220.27,287.58c-2.23-4.46-4.48-8.92-6.69-13.39Q209,265,204.53,255.82c-.23-.46-.41-.94-.62-1.42.06-.42.13-.83.18-1.25a3.67,3.67,0,0,1,2.06-3.22C206.87,249.63,207,249.34,207,248.71Z" transform="translate(-111 -194.89)"/><path class="cls-3" d="M270.57,266.84c1.82-.94,3.64-1.86,5.44-2.83,3.2-1.71,6.35-3.5,9.58-5.15a4.46,4.46,0,0,1,5.72,1.18c1.91,2.08,3.63,4.27,3.52,7.33a6.69,6.69,0,0,1-2.37,3.61h0l-.25.22h0l-.25.17,0,0-.19.15a.09.09,0,0,1-.1.06l-.55.34,0,0-.26.15-4.13,2.19L237,300.58c-2.89,1.53-5.74,3.14-8.61,4.71l-7.15,3.6a59.85,59.85,0,0,1-6.39,2.77,3.18,3.18,0,0,1-3.68-1.61,46.44,46.44,0,0,1-3.54-8.55c-.49-1.8,1-3.42,2.6-4.32,2.82-1.56,5.74-2.94,8.63-4.36,1-.46,1.94-.82,2.91-1.22.63-.29,1.28-.56,1.9-.88l23.47-11.89c4.9-2.48,9.8-4.93,14.69-7.42C264.73,269.91,267.65,268.37,270.57,266.84Z" transform="translate(-111 -194.89)"/><path class="cls-4" d="M292.46,271a6.69,6.69,0,0,0,2.37-3.61c7.43-1.12,14.9-.56,22.35-.4a69.37,69.37,0,0,1,8.8,1.1,80.61,80.61,0,0,1,8.21,1.48,113.73,113.73,0,0,1,35.48,16.57c5.35,3.66,10.66,7.33,15,12.17,4.9,5.42,9.95,10.71,14,16.86a116,116,0,0,1,11.16,21.57A90.17,90.17,0,0,1,415,354.33c.5,3.06.65,6.17,1,9.25a105.92,105.92,0,0,1-14.31,66.68,104.44,104.44,0,0,1-22.39,27c-4.74,4-9.51,8.13-15,11.17-4.52,2.51-9.21,4.7-13.82,7.05-.8.4-1.56.89-2.34,1.34l-.3.3a4.63,4.63,0,0,0-1.43-.06c-1.14.32-2.26.73-3.36,1.14A92.9,92.9,0,0,1,327,482.35v-2.71a4.75,4.75,0,0,1,.46-.14c8.17-1.84,16.26-4,23.87-7.57a109.12,109.12,0,0,0,32.74-23.26A105.87,105.87,0,0,0,403.41,420c10.68-23,13.07-46.81,6.78-71.35a102.1,102.1,0,0,0-38.85-58c-20.48-15.26-43.65-22.11-69.17-20.82C298.92,269.93,295.69,270.56,292.46,271Z" transform="translate(-111 -194.89)"/><path class="cls-4" d="M221.2,308.89l7.15-3.6c-.24.31-.46.65-.72.94a101.72,101.72,0,0,0-14.51,21.38c-10.54,20.79-14.22,42.73-10.41,65.77a103.83,103.83,0,0,0,29.11,57.06,107.34,107.34,0,0,0,31.43,21.86l5.2,2.42c0,.95,0,1.89,0,2.84-3.31-1.43-6.61-2.87-9.93-4.26a2.8,2.8,0,0,0-1.08,0c-.16-.23-.46-.45-.47-.68,0-.78-.47-.81-1-.75-3.75-2.3-7.58-4.48-11.24-6.91a96.77,96.77,0,0,1-20.35-18.18,103.8,103.8,0,0,1-14.25-21.69c-4.55-9.35-8.2-19-10-29.22a75.66,75.66,0,0,1-1.57-14.33c.06-2.63-.28-5.28-.14-7.9.25-4.45.54-8.92,1.19-13.33a116.71,116.71,0,0,1,2.77-13.58,105.35,105.35,0,0,1,7.55-19.46,89.86,89.86,0,0,1,7.77-13q1.76-2.38,3.46-4.8C221.24,309.34,221.18,309.09,221.2,308.89Z" transform="translate(-111 -194.89)"/><path class="cls-5" d="M255.92,471.87c.56-.06,1,0,1,.75,0,.23.31.45.47.68-4,3.24-6.72,7.42-9.1,11.9-.32-.22-.41-.26-.44-.32s-.21-.43-.31-.65a42.35,42.35,0,0,0-11.66-16.43c-4.88-4.09-10.28-7-16.85-7.28a15.76,15.76,0,0,0-14.17,6.88c-4.29,6-4.95,12.87-4,20a42.52,42.52,0,0,0,3.66,11.85A41.17,41.17,0,0,0,219.24,517a23.77,23.77,0,0,0,11.94,4.27c1.83.11,3.67,0,5.58,0a.71.71,0,0,1,0,.3c-1.05,3.91-.4,7.76.37,11.6a77,77,0,0,0,6.41,18.66c2.7,5.54,5.6,11,10.34,15.13.26.23.2,1.08,0,1.51s-.85.93-1.23,1.44a29.72,29.72,0,0,0-5.86,18.21c0,7.05,1.71,13.59,6.52,19,3.46,3.88,7.75,6.26,13.06,6.3,5.64.05,10.13-2.52,13.75-6.63a28.51,28.51,0,0,0,7-17.66c.06-1,.37-1.17,1.22-.85a13.78,13.78,0,0,0,2,.67,58.83,58.83,0,0,0,15.2,1.38c1.5-.07,3-.2,4.46-.3.47,2.23.76,4.49,1.42,6.64,2.22,7.26,6.2,13.17,13.28,16.54a16.33,16.33,0,0,0,18-2.87c6.59-6.39,8.12-14.36,6.92-23.09a28.12,28.12,0,0,0-3.9-10.83c-.35-.58-.45-1,.46-1.12l0,0c1,2.3,2.22,4.55,3,6.94a34.62,34.62,0,0,1,1.3,6.34,29.55,29.55,0,0,1,.24,5.48c-.36,7-2.77,13.18-8.34,17.72-6.35,5.17-14.9,5.12-21.8,0-5.89-4.37-9.14-10.39-10.65-17.45-.23-1.09-.38-2.19-.56-3.31-7.17.44-14.26.23-21.24-1.73-.33,1.86-.55,3.76-1,5.59-1.58,6.42-4.64,12-10.11,15.89-7.52,5.41-16.83,4.56-23.39-2a26.56,26.56,0,0,1-7.24-14.64A32.16,32.16,0,0,1,250,572.45c.93-1.66,2.13-3.18,3.24-4.81-6.11-5.83-9.85-13.28-12.91-21.1s-5.55-15.76-4.74-24.33c-10.92.72-18.88-4.66-25.54-12.53a43.33,43.33,0,0,1-9.67-20.51c-1.22-6.71-1-13.33,2.12-19.62A17.66,17.66,0,0,1,221,459.78c7.46,1,13.28,4.89,18.37,10.13a44.15,44.15,0,0,1,8.44,12.56c.12.25.24.5.37.75,0,0,.06,0,.23.07A34.34,34.34,0,0,1,257,472.62Z" transform="translate(-111 -194.89)"/><path class="cls-6" d="M270.57,266.84c-2.92,1.53-5.84,3.07-8.78,4.57-4.89,2.49-9.79,4.94-14.69,7.42l-23.47,11.89c-.62.32-1.27.59-1.9.88-.49-1.34-1-2.68-1.46-4q11.11-5.61,22.24-11.21,11.73-5.92,23.45-11.88c.84-.43,1.65-.92,2.47-1.38Z" transform="translate(-111 -194.89)"/><path class="cls-7" d="M347.84,477.15l.3-.3,6.3,7c1.61-2.38,3.2-5.1,5.14-7.54,5.06-6.37,11.21-11.26,19.28-13.35,10.6-2.74,20.14,2.37,23,13.38,1.93,7.36.84,14.52-1.94,21.43-4.08,10.13-10.64,18.13-20.53,23.13a26.58,26.58,0,0,1-12.08,2.79v1.26a75.79,75.79,0,0,1-11.58,40.73,33,33,0,0,1-8,8.94,8.46,8.46,0,0,1-1.53.68l0,0a4.58,4.58,0,0,1,.71-.85A35.08,35.08,0,0,0,356.69,563a74.1,74.1,0,0,0,9.9-34.86c.06-1.83,0-3.66,0-5.56a4.52,4.52,0,0,0,.72.37,3.44,3.44,0,0,0,.72,0,22.42,22.42,0,0,0,11.3-2.73c9.69-5,16.16-12.84,20.08-22.83,2.61-6.62,3.82-13.48,2-20.58-1.47-5.61-4.41-10.13-9.89-12.53-5.65-2.48-11.28-1.71-16.73.67-8.15,3.56-14,9.66-18.48,17.19-.6,1-1.13,2-1.67,3Z" transform="translate(-111 -194.89)"/><path class="cls-8" d="M207,248.71c0,.63-.15.92-.87,1.22a3.67,3.67,0,0,0-2.06,3.22c-.05.42-.12.83-.18,1.25-.93-2-.72-3,1-4.23C205.55,249.65,206.3,249.19,207,248.71Z" transform="translate(-111 -194.89)"/><path class="cls-9" d="M268.45,474.72l-5.2-2.42a107.34,107.34,0,0,1-31.43-21.86,103.83,103.83,0,0,1-29.11-57.06c-3.81-23-.13-45,10.41-65.77a101.72,101.72,0,0,1,14.51-21.38c.26-.29.48-.63.72-.94,2.87-1.57,5.72-3.18,8.61-4.71l49.68-26.25,4.13-2.19L291,272l0,0,.55-.34a.09.09,0,0,0,.1-.06l.19-.15,0,0,.25-.17h0l.25-.22h0c3.23-.42,6.46-1.05,9.71-1.22,25.52-1.29,48.69,5.56,69.17,20.82a102.1,102.1,0,0,1,38.85,58c6.29,24.54,3.9,48.38-6.78,71.35a105.87,105.87,0,0,1-19.35,28.71,109.12,109.12,0,0,1-32.74,23.26c-7.61,3.6-15.7,5.73-23.87,7.57a4.75,4.75,0,0,0-.46.14,4.3,4.3,0,0,1-.43-1.23c0-2.44,0-4.87,0-7.31,0-1.82-.54-2.18-2.19-1.49-4.27,1.77-8.56,3.53-12.81,5.36-3.38,1.46-6.75,2.76-10.52,2.91-3,.12-6,.65-9,1a7.48,7.48,0,0,1-2.79,0c-6.17-1.92-12.32-3.93-18.47-5.92-1-.33-1.72-.13-2,1A4.31,4.31,0,0,1,268.45,474.72Zm-34.81-96.65v19.68q0,12.12,0,24.24c0,1.32.25,2.44,1.6,3a67.53,67.53,0,0,0,14.2,4.28c7.14,1.36,14.33,2.54,21.55,3.41a189.35,189.35,0,0,0,18.89,1.39c8.74.18,17.49-.07,26.24-.17,2.43,0,4.85-.14,7.28-.24,1.15-.05,2.3-.14,3.45-.25,4-.39,8-.74,12-1.2,3.19-.37,6.37-.8,9.54-1.33,3.62-.6,7.24-1.21,10.8-2,4.94-1.15,9.85-2.44,14.73-3.82,2.07-.58,2.57-1.53,2.57-3.71V399.49q0-31.26,0-62.52a17.92,17.92,0,0,0-.16-2.74,1.49,1.49,0,0,0-1.91-1.33c-2.84.5-5.67,1.08-8.52,1.52-3.3.51-6.61,1-9.92,1.33-3.52.4-7.05.73-10.58,1-4.44.35-8.89.7-13.35.91-4.14.19-8.29.21-12.43.28-4.79.09-9.57.21-14.36.2s-9.66-.07-14.48-.27c-4.34-.18-8.66-.6-13-.9-2.42-.17-4.85-.31-7.27-.5-4.69-.37-9.38-.78-14.07-1.15-6.85-.54-13.7-1-20.38-2.78-2-.55-2.37-.18-2.37,2Z" transform="translate(-111 -194.89)"/><path class="cls-4" d="M291.6,271.63l-.55.34Z" transform="translate(-111 -194.89)"/><path class="cls-4" d="M292.45,271l-.25.22Z" transform="translate(-111 -194.89)"/><path class="cls-4" d="M292.18,271.21l-.25.17Z" transform="translate(-111 -194.89)"/><path class="cls-4" d="M291.89,271.42l-.19.15Z" transform="translate(-111 -194.89)"/><path class="cls-4" d="M291,272l-.26.15Z" transform="translate(-111 -194.89)"/><path class="cls-10" d="M347.84,477.15l6.78,8c.54-1,1.07-2,1.67-3,4.48-7.53,10.33-13.63,18.48-17.19,5.45-2.38,11.08-3.15,16.73-.67,5.48,2.4,8.42,6.92,9.89,12.53,1.85,7.1.64,14-2,20.58-3.92,10-10.39,17.88-20.08,22.83A22.42,22.42,0,0,1,368,523a3.44,3.44,0,0,1-.72,0,4.52,4.52,0,0,1-.72-.37c0,1.9,0,3.73,0,5.56a74.1,74.1,0,0,1-9.9,34.86,35.08,35.08,0,0,1-9.78,11.48,4.58,4.58,0,0,0-.71.85c-.91.07-.81.54-.46,1.12a28.12,28.12,0,0,1,3.9,10.83c1.2,8.73-.33,16.7-6.92,23.09a16.33,16.33,0,0,1-18,2.87c-7.08-3.37-11.06-9.28-13.28-16.54-.66-2.15-.95-4.41-1.42-6.64-1.47.1-3,.23-4.46.3a58.83,58.83,0,0,1-15.2-1.38,13.78,13.78,0,0,1-2-.67c-.85-.32-1.16-.14-1.22.85a28.51,28.51,0,0,1-7,17.66c-3.62,4.11-8.11,6.68-13.75,6.63-5.31,0-9.6-2.42-13.06-6.3-4.81-5.39-6.5-11.93-6.52-19a29.72,29.72,0,0,1,5.86-18.21c.38-.51,1-.89,1.23-1.44s.26-1.28,0-1.51c-4.74-4.17-7.64-9.59-10.34-15.13a77,77,0,0,1-6.41-18.66c-.77-3.84-1.42-7.69-.37-11.6a.71.71,0,0,0,0-.3c-1.91,0-3.75.09-5.58,0A23.77,23.77,0,0,1,219.24,517a41.17,41.17,0,0,1-14.67-17.79,42.52,42.52,0,0,1-3.66-11.85c-1-7.09-.31-13.94,4-20a15.76,15.76,0,0,1,14.17-6.88c6.57.24,12,3.19,16.85,7.28a42.35,42.35,0,0,1,11.66,16.43c.1.22.2.44.31.65s.12.1.44.32c2.38-4.48,5.15-8.66,9.1-11.9a2.8,2.8,0,0,1,1.08,0c3.32,1.39,6.62,2.83,9.93,4.26a5,5,0,0,1,.22,1c0,1.72,0,3.43,0,5.15-.1,5-.22,9.91-.33,14.87,0,1.44.46,1.81,1.83,1.41.22-.06.45-.14.68-.22l20-6.5-.08.3a6.8,6.8,0,0,0,1.88.62c4.59.18,9.18.27,13.78.41a12.77,12.77,0,0,1,2.91.25c5.24,1.44,10.45,3,15.68,4.45,1.63.46,2.06.13,2-1.54-.08-4.68-.18-9.35-.25-14a9.31,9.31,0,0,1,.18-1.38,92.9,92.9,0,0,0,16.07-4.12c1.1-.41,2.22-.82,3.36-1.14A4.63,4.63,0,0,1,347.84,477.15Zm-52.21,53.39a10.06,10.06,0,0,0,9.83-6.33,7.67,7.67,0,0,0-6.12-10.51,9.21,9.21,0,0,0-8.94,3.51A8.05,8.05,0,0,0,289,526,7.31,7.31,0,0,0,295.63,530.54Zm2.4-21.6a6.32,6.32,0,0,0,6.43-6.09,5.8,5.8,0,0,0-6-5.81,6.3,6.3,0,0,0-6.37,6.15A5.81,5.81,0,0,0,298,508.94Z" transform="translate(-111 -194.89)"/><path class="cls-11" d="M327,482.35a9.31,9.31,0,0,0-.18,1.38c.07,4.68.17,9.35.25,14,0,1.67-.4,2-2,1.54-5.23-1.49-10.44-3-15.68-4.45a12.77,12.77,0,0,0-2.91-.25c-4.6-.14-9.19-.23-13.78-.41a6.8,6.8,0,0,1-1.88-.62l.08-.3-20,6.5c-.23.08-.46.16-.68.22-1.37.4-1.86,0-1.83-1.41.11-5,.23-9.91.33-14.87,0-1.72,0-3.43,0-5.15a5,5,0,0,0-.22-1c0-.95,0-1.89,0-2.84a4.31,4.31,0,0,0,.32-.77c.23-1.16.94-1.36,2-1,6.15,2,12.3,4,18.47,5.92a7.48,7.48,0,0,0,2.79,0c3-.31,6-.84,9-1,3.77-.15,7.14-1.45,10.52-2.91,4.25-1.83,8.54-3.59,12.81-5.36,1.65-.69,2.18-.33,2.19,1.49,0,2.44,0,4.87,0,7.31a4.3,4.3,0,0,0,.43,1.23C327,480.54,327,481.44,327,482.35Zm-2.62-10.16c-1,.35-1.74.6-2.49.91-4.06,1.7-8.12,3.43-12.19,5.11-2.24.92-2.25.89-2.14,3.27v.24c.16,3.1.36,6.2.46,9.31a1.29,1.29,0,0,0,1.12,1.4c3.91,1.09,7.81,2.22,11.72,3.33,1.28.36,2.56.7,3.91,1.06C324.62,488.57,324.49,480.5,324.36,472.19Zm-53.6,25.25,20-6.6c-.09-2.1-.19-4.16-.27-6.23-.11-2.87.57-2.85-2.78-3.79-4.05-1.14-8-2.63-12-3.93-1.56-.51-3.16-.92-5-1.44Zm22-16.4a3.58,3.58,0,0,0-.08.59c.15,3.23.33,6.45.46,9.67,0,.73.47.71,1,.72l10.29.24c.42,0,.85-.06,1.37-.1-.28-4.2-.56-8.27-.85-12.51Z" transform="translate(-111 -194.89)"/><path class="cls-12" d="M233.64,378.07V334.52c0-2.15.35-2.52,2.37-2,6.68,1.81,13.53,2.24,20.38,2.78,4.69.37,9.38.78,14.07,1.15,2.42.19,4.85.33,7.27.5,4.33.3,8.65.72,13,.9,4.82.2,9.65.26,14.48.27s9.57-.11,14.36-.2c4.14-.07,8.29-.09,12.43-.28,4.46-.21,8.91-.56,13.35-.91,3.53-.28,7.06-.61,10.58-1,3.31-.37,6.62-.82,9.92-1.33,2.85-.44,5.68-1,8.52-1.52a1.49,1.49,0,0,1,1.91,1.33,17.92,17.92,0,0,1,.16,2.74q0,31.26,0,62.52v21.84c0,2.18-.5,3.13-2.57,3.71-4.88,1.38-9.79,2.67-14.73,3.82-3.56.83-7.18,1.44-10.8,2-3.17.53-6.35,1-9.54,1.33-4,.46-8,.81-12,1.2-1.15.11-2.3.2-3.45.25-2.43.1-4.85.22-7.28.24-8.75.1-17.5.35-26.24.17A189.35,189.35,0,0,1,271,432.7c-7.22-.87-14.41-2.05-21.55-3.41a67.53,67.53,0,0,1-14.2-4.28c-1.35-.58-1.6-1.7-1.6-3q0-12.12,0-24.24Zm1.92,44.58a7.49,7.49,0,0,0,1.34.77,105.17,105.17,0,0,0,10.26,3.25c6.16,1.32,12.39,2.37,18.62,3.32,4.51.69,9.06,1.13,13.6,1.51,4.25.36,8.52.67,12.78.69,8.86.05,17.71-.06,26.57-.21,2.85-.05,5.69-.42,8.54-.68,4.93-.47,9.86-.91,14.79-1.47a100.31,100.31,0,0,0,10.39-1.48c6.89-1.52,13.72-3.29,20.56-5a6.07,6.07,0,0,0,1.54-.94A5.2,5.2,0,0,0,375,421q0-41.89,0-83.79a4.28,4.28,0,0,0,0-.95c-.05-.18-.28-.32-.43-.48a8.68,8.68,0,0,0-1,0c-3.4.54-6.8,1.21-10.22,1.63-4.18.52-8.38.86-12.57,1.25-5.38.49-10.76,1-16.15,1.39-3.45.24-6.93.31-10.39.26-12.84-.17-25.69.54-38.52-.67-3.84-.36-7.7-.43-11.56-.63-4.14-.22-8.3-.34-12.43-.69-6.56-.57-13.11-1.27-19.66-2-2.16-.24-4.31-.69-6.47-1,0,0-.07,0-.11,0s-.08,0-.08.06c0,.27,0,.55,0,.82q0,40.16,0,80.31a7.44,7.44,0,0,0,.18,1.15v1.22Z" transform="translate(-111 -194.89)"/><path class="cls-13" d="M295.63,530.54A7.31,7.31,0,0,1,289,526a8.05,8.05,0,0,1,1.38-8.76,9.21,9.21,0,0,1,8.94-3.51,7.67,7.67,0,0,1,6.12,10.51A10.06,10.06,0,0,1,295.63,530.54Z" transform="translate(-111 -194.89)"/><path class="cls-14" d="M298,508.94a5.81,5.81,0,0,1-6-5.75,6.3,6.3,0,0,1,6.37-6.15,5.8,5.8,0,0,1,6,5.81A6.32,6.32,0,0,1,298,508.94Z" transform="translate(-111 -194.89)"/><path class="cls-15" d="M324.36,472.19c.13,8.31.26,16.38.39,24.63-1.35-.36-2.63-.7-3.91-1.06-3.91-1.11-7.81-2.24-11.72-3.33A1.29,1.29,0,0,1,308,491c-.1-3.11-.3-6.21-.46-9.31v-.24c-.11-2.38-.1-2.35,2.14-3.27,4.07-1.68,8.13-3.41,12.19-5.11C322.62,472.79,323.39,472.54,324.36,472.19Z" transform="translate(-111 -194.89)"/><path class="cls-16" d="M270.76,497.44v-22c1.81.52,3.41.93,5,1.44,4,1.3,8,2.79,12,3.93,3.35.94,2.67.92,2.78,3.79.08,2.07.18,4.13.27,6.23Z" transform="translate(-111 -194.89)"/><path class="cls-17" d="M292.77,481l12.16-1.39c.29,4.24.57,8.31.85,12.51-.52,0-.95.11-1.37.1L294.12,492c-.5,0-.94,0-1-.72-.13-3.22-.31-6.44-.46-9.67A3.58,3.58,0,0,1,292.77,481Z" transform="translate(-111 -194.89)"/><path class="cls-18" d="M235.51,418.82V417.6c0-.24,0-.47,0-.71q0-40.8,0-81.6c2.16.36,4.31.81,6.47,1,6.55.71,13.1,1.41,19.66,2,4.13.35,8.29.47,12.43.69,3.86.2,7.72.27,11.56.63,12.83,1.21,25.68.5,38.52.67,3.46.05,6.94,0,10.39-.26,5.39-.36,10.77-.9,16.15-1.39,4.19-.39,8.39-.73,12.57-1.25,3.42-.42,6.82-1.09,10.22-1.63a8.68,8.68,0,0,1,1,0q0,24.51,0,49,0,18.81,0,37.63a6.07,6.07,0,0,1-1.54.94c-6.84,1.71-13.67,3.48-20.56,5a100.31,100.31,0,0,1-10.39,1.48c-4.93.56-9.86,1-14.79,1.47-2.85.26-5.69.63-8.54.68-8.86.15-17.71.26-26.57.21-4.26,0-8.53-.33-12.78-.69-4.54-.38-9.09-.82-13.6-1.51-6.23-.95-12.46-2-18.62-3.32a105.17,105.17,0,0,1-10.26-3.25,7.49,7.49,0,0,1-1.34-.77C235.54,421.37,235.53,420.09,235.51,418.82Zm46.43-49.35a43.74,43.74,0,0,0-.63-5.09,13.19,13.19,0,0,0-1.76-4.12,2,2,0,0,0-3.34-.2,11.1,11.1,0,0,0-1.93,3,30.29,30.29,0,0,0-2.16,10.6,26.77,26.77,0,0,0,1.05,10.06c.47,1.38,1,2.77,2.59,3s2.54-1.13,3.22-2.43C281.31,379.82,281.71,375,281.94,369.47Zm47.42,6.32a24.75,24.75,0,0,0,1.48,9c.68,1.63,1.77,2.41,3.05,2.09,1.46-.37,2.14-1.61,2.7-2.85,2.66-5.9,3.06-12.12,2.25-18.42a15,15,0,0,0-1.8-5,2,2,0,0,0-3.4-.33,10,10,0,0,0-1.82,2.62C329.91,367,329.59,371.5,329.36,375.79Zm-36,29.6a11.2,11.2,0,0,0,2.51,7,11.71,11.71,0,0,0,12.45,4.33A12.93,12.93,0,0,0,318,402.44c-.14-1-.67-1.63-1.76-1.54-.93.07-1.51,1.07-1.58,2.06a18.44,18.44,0,0,1-.72,5,9.41,9.41,0,0,1-9,5.8,8.54,8.54,0,0,1-7.83-6.16,13.21,13.21,0,0,1-.44-3.4c-.07-1.3-.52-1.94-1.56-2-1.2-.06-1.68.42-1.8,1.85C293.29,404.51,293.32,405,293.32,405.39Z" transform="translate(-111 -194.89)"/><path class="cls-19" d="M374.55,422.41q0-18.82,0-37.63,0-24.51,0-49c.15.16.38.3.43.48a4.28,4.28,0,0,1,0,.95q0,41.9,0,83.79A5.2,5.2,0,0,1,374.55,422.41Z" transform="translate(-111 -194.89)"/><path class="cls-20" d="M235.55,335.29q0,40.8,0,81.6c0,.24,0,.47,0,.71a7.44,7.44,0,0,1-.18-1.15q0-40.15,0-80.31c0-.27,0-.55,0-.82,0,0,0-.06.08-.06S235.52,335.28,235.55,335.29Z" transform="translate(-111 -194.89)"/><path class="cls-20" d="M235.51,418.82c0,1.27,0,2.55.05,3.83Z" transform="translate(-111 -194.89)"/><path class="cls-21" d="M281.94,369.47c-.23,5.51-.63,10.35-3,14.79-.68,1.3-1.56,2.65-3.22,2.43s-2.12-1.6-2.59-3a26.77,26.77,0,0,1-1.05-10.06,30.29,30.29,0,0,1,2.16-10.6,11.1,11.1,0,0,1,1.93-3,2,2,0,0,1,3.34.2,13.19,13.19,0,0,1,1.76,4.12A43.74,43.74,0,0,1,281.94,369.47Z" transform="translate(-111 -194.89)"/><path class="cls-21" d="M329.36,375.79c.23-4.29.55-8.75,2.46-12.9a10,10,0,0,1,1.82-2.62,2,2,0,0,1,3.4.33,15,15,0,0,1,1.8,5c.81,6.3.41,12.52-2.25,18.42-.56,1.24-1.24,2.48-2.7,2.85-1.28.32-2.37-.46-3.05-2.09A24.75,24.75,0,0,1,329.36,375.79Z" transform="translate(-111 -194.89)"/><path class="cls-22" d="M293.32,405.39c0-.44,0-.88,0-1.32.12-1.43.6-1.91,1.8-1.85,1,0,1.49.69,1.56,2a13.21,13.21,0,0,0,.44,3.4,8.54,8.54,0,0,0,7.83,6.16,9.41,9.41,0,0,0,9-5.8,18.44,18.44,0,0,0,.72-5c.07-1,.65-2,1.58-2.06,1.09-.09,1.62.54,1.76,1.54a12.93,12.93,0,0,1-9.69,14.25,11.71,11.71,0,0,1-12.45-4.33A11.2,11.2,0,0,1,293.32,405.39Z" transform="translate(-111 -194.89)"/></svg>